<svg width="2374pt" height="760" viewBox="0 0 2374 570" xmlns="http://www.w3.org/2000/svg"><path d="M1749.97 33.97c3.27-2 7.3-1.66 10.99-1.46 3.42-.01 5.52 3.49 6.21 6.46 1.55 7.15-1.82 14.44-6.49 19.72-8.17 8.88-20.88 12.38-32.65 11.68-2.58 2.52-4.92 5.27-7.45 7.82-1.59-3.13-2.05-6.63-1.87-10.1-1.25-.37-2.46-.74-3.66-1.1-4.19 4.03-7.5 10.72-14.16 10.44-5.75.95-11.2-1.73-16.84-1.75-5.02 1.56-8.87 5.86-14.28 6.45-.33-10.46 8.04-18.33 16.2-23.49 6.47 2.61 13.6 4 20.57 3.04.91-1.13 1.86-2.23 2.83-3.34-2.32-7.38-5.45-15.83-1.3-23.18 1.3-.02 2.62-.05 3.96-.07 3.02 7.49 5.49 16.32 13.04 20.55 9.13-6.27 15.18-16.17 24.9-21.67m-15.51 22.48c6.87.05 13.77-1.73 19.68-5.26 1.59-.94 3.24-2.23 3.64-4.16-.35-2.17-3.05-2.12-4.71-2.17-7.82-.08-14.57 5.27-18.61 11.59ZM897.4 38.23c3.71-2.74 8.59-1.5 12.87-1.81 4.93 4.58 5.92 12.2 3.27 18.23-3.25 8.58-11.35 14.17-19.62 17.33-7.96 2.84-16.89 1.72-24.54 5.62-1.79-2.69-3.71-5.29-5.66-7.85-3.69 3.92-6.72 8.8-11.63 11.32-6.68 1.54-13.63.04-19.89-2.43-4.32 2.78-8.88 5.18-13.78 6.75-1.22-7.39 3.87-13.6 8.99-18.22 2.46-2.19 5.63-5.2 9.2-3.69 6.74 2.69 14.77 4.02 21.31.04-2.02-7.82-7.25-16.66-2.04-24.37 1.41.12 2.85.22 4.29.32 1.99 6.51 4.38 13.22 9.26 18.18 1.77 1.98 5.21 1.89 6.86-.23 6.3-7.15 13.33-13.66 21.11-19.19m-2.63 11.61c-5.14 2.07-9.32 6.04-12.39 10.59 5.16.28 10.37-.67 15.04-2.93 3.49-1.76 8.05-3.51 7.99-8.2-3.54.05-7.21-.54-10.64.54Z"/><path d="M1641.36 53.44c1.36-.15 2.74-.28 4.15-.39 8.18 19.68 15.81 39.58 23.05 59.63 1.51 4.48 2.34 9.23 1.89 13.97-5.65-1.56-9.65-5.98-14.18-9.36-.66 12.31 1.43 24.51 1.97 36.78.94 6.62.7 13.33 1.71 19.94 1.26 8.99-.14 18.14 1.49 27.11.97 11.59.18 23.23.48 34.84.24 9.05-1.68 17.99-1.42 27.05-1.09 12.26-4.01 24.4-8.72 35.78-3.14 7.84-8.62 14.34-13.39 21.2 5.22 2.42 11.01 2.82 16.66 3.34 17.64 2.65 35.37 4.73 53.08 6.88 4.87.89 9.85 1.11 14.78.4.23-8.25-1.67-16.37-1.55-24.62-.55-5.29-1.08-10.59-1.21-15.91.01-6.41-1.77-12.67-1.43-19.09.24-7.03-1.49-13.93-1.32-20.95 0-3.67-.36-7.32-.97-10.93-1-5.72-.27-11.55-1.16-17.27-1.25-8.6.34-17.52-2.3-25.93-9.82 1.96-18.28 7.97-28.17 9.66 6.85-8.45 17.24-12.58 25.52-19.32 1.66-1.23 2.82-3.1 2.73-5.23-.15-4.7-1.2-9.33-1.24-14.04-.02-6.03-1.58-11.93-1.41-17.96-.1-8.83.78-17.88-1.82-26.45-.99-4.07-3.21-8.19-2.07-12.47 2.22-8.05 5.44-15.78 8.88-23.37 1.24-.05 2.51-.11 3.8-.16 5.42 10.29 8.65 21.52 12.96 32.29 5 13.3 10.9 26.44 13.25 40.56-6.65-.07-10.81-5.75-15.33-9.74-.32 7.55-.48 15.25 1.59 22.6 9.97-5.27 18.91-12.21 28.58-17.97 14.14-8.48 26.84-19.09 39.07-30.09-.06-.74-.17-2.22-.23-2.97-6.09-4.47-12.83-9.47-14.86-17.14-1.64-8.4 2.5-16.77 7.95-22.94 4.04-4.35 8.39-8.98 14.3-10.66 2.98-1.16 5.89 1.14 7.94 3.11 4.32 4.37 2.99 10.98 3.12 16.53.06 6.06-3.09 11.7-2.81 17.74 1.68 4.05 6.21 5.77 8.79 9.11.39 5.59-2.23 10.77-4.99 15.44-4.13-1.34-7.86-3.58-11.65-5.64-3.02 1.68-4.59 4.85-6.65 7.46-6.42 8.56-14.87 15.3-23.53 21.45-8.7 6.42-17.77 12.31-26.85 18.17-5.57 4-11.95 6.81-17.14 11.32-.94 12.57 2.03 25 1.59 37.57 20.56-10.33 41.75-19.35 62.67-28.93 35.28-15.95 69.27-34.54 103.66-52.29 2.36-1.26 4.68-2.6 6.97-4.02-1.98-5.29-4.6-10.64-4.25-16.45.14-7.72 6.11-13.7 6.96-21.27.75-5.48 3-11.42 8.18-14.14 5.42-1.58 11.21.24 16.09 2.73 7.74 4.36 14.3 11.07 17.98 19.21 3.2 7.04 3.28 15.13 1.81 22.61-1.31 5.53-4.53 11.67-10.46 13.18-8.61 1.94-16.25-5.29-24.83-3.54-6.13 2.58-11.59 6.48-17.29 9.84-6.09 3.87-12.94 6.24-19.22 9.73-10.26 5.38-20.07 11.6-30.5 16.67-19.01 9.07-38.15 17.88-57.41 26.42-14.26 6.17-28.32 12.83-42.91 18.19-5.98 2.26-11.94 4.63-17.64 7.53 1.86 12.14 2.75 24.41 3.18 36.68.93 7.04.94 14.15 1.68 21.2 1.06 7.22.55 14.55 1.2 21.8 1.29 8.57.76 17.34 2.75 25.82 13.03.51 26.25-1.11 39.13 1.62-.44 3.11-1.26 6.19-2.77 8.96-3.89 6.83-7.12 14.07-11.99 20.3-7.8-.21-15.6.25-23.28 1.51-1.61 24.53-4.89 49.97-17.69 71.47-3.84-4.89-.97-11.13-.63-16.6.24-17.45.07-34.91.05-52.36-6.26.36-13.29-1.43-18.83 2.34-1.45.8-1.61 2.56-1.97 3.98-2.62 11.47-2.5 23.32-2.34 35.02.68 11.54 2.26 23.06 5.22 34.24 2.21 8.04 6.37 15.87 13.13 20.98 7.82 5.3 19.43 4.83 26.29-1.9 9.91-10.35 13.84-24.49 20.27-36.95 5.77-12.09 10.49-24.76 17.88-36.01 7.81-12.42 17.28-24.32 30.06-31.92 5.07-3.42 11.61-5 17.56-3.1 4.24 1.06 7.43 4.27 10.09 7.57 7.06 8.9 11.08 19.82 18.57 28.42 5.16 6.03 11.7 11.21 19.37 13.58 19.64 5.4 41.49 1.93 58.59-9.12 5.3-3.24 9.25-8.15 13.48-12.62 4.63-5.05 9.09-10.28 13.83-15.25 1.85-2.32 5.04-2.27 7.74-2.63-.51 8.21-5.02 16.57-1.61 24.7 1.89 6.25 8.06 9.89 14.03 11.48 4.92.85 9.95.54 14.93.65 2.79-.02 5.69.32 8.4-.66 8.62-3.03 13.99-12.96 12.26-21.85-2.84-16.34-6.62-32.49-10.63-48.57-2.13-8.32-6.43-16.32-5.86-25.11 1.01-9.28 2.71-18.69 7.06-27.04 2.54.84 5.26 2.18 6 5.02 9.52 22.34 14.24 46.31 18.66 70.08 1.65 9.48 3.9 18.9 7.31 27.91 2.65 6.4 6.43 12.95 12.77 16.31 4.01 2.29 8.76 4.62 13.46 2.99 8.17-2.72 16.91-2.94 25.11-5.56 9.47-2.81 18.31-7.42 26.62-12.7-.34-1.33.24-3.15-1.11-4-7.56-6.42-15.74-12.26-24.92-16.13-7.77-3.63-16.93-3.12-24.9-.44-2.67.86-5.49 1.01-8.23 1.25.55-6.81 3.83-12.89 6.49-19.04 2.03-4.58 4.07-9.77 8.75-12.28 10.63-5.87 22.8-7.79 34.6-9.94 7.72-1.29 15.32-3.66 23.23-3.66 10.58.23 21.21-.81 31.77.52 15.4 2.61 31.36 5.49 44.61 14.3 4.6 3.06 8.93 6.54 12.91 10.37-2.12 7.66-6.11 14.64-10.11 21.44-2.57 4.48-7.78 5.91-12.21 7.77-8.54 3.41-17.42 6.09-25.48 10.59-1.49.83-1.47 2.84-2.06 4.24 9.32 6.3 20.24 10.25 31.48 11.11 12.59 1.39 25.56-2.65 35.28-10.74 4.68-4.37 4.76-11.36 4.78-17.31.03-12 .09-24.01-.71-35.99-.6-12.02-2.72-23.94-2.24-36.01-.62-12.34-2.84-24.61-2.71-37 .09-4.36-.91-8.63-1.28-12.94-.84-25.74-4.09-51.31-4.52-77.07-3.03-18.34.91-37.75-5.99-55.44-.72-2.31-.94-4.84-.16-7.17 2.88-8.96 5.8-18.1 11.19-25.92 6.43 12.77 10.9 26.4 16.17 39.67 3.26 8.51 6.47 17.05 9.05 25.8.97 3.25.09 6.68-1.02 9.79a82.57 82.57 0 0 1-12.3-9.22c-.32 9.38 1.42 18.65 2.15 27.98.95 6.89.15 13.89 1.11 20.78 1.22 8.5 1.12 17.11 2.02 25.63.1 7.76 1.98 15.37 1.86 23.14.57 21.36 3.49 42.58 4.06 63.95.02 7.71 1.49 15.35 1.27 23.08.29 8.35-1.16 16.61-1.32 24.95-1.42 16.17-5.64 32.24-13.27 46.62-4.7 8.75-11 16.95-19.5 22.28-8.66 5.1-19.15 5.46-28.87 4.25-6.6-1.03-13.34-1.78-19.53-4.43-13.49-5.49-24.31-15.52-35.62-24.39-1.87-1.78-4.89-1.97-7.05-.69-15.17 9.29-29.05 21.3-46.24 26.81-5.54 1.84-11.15 3.47-16.71 5.24-6.7 2.07-13.71-.14-19.97-2.61-10.12-4.11-18.18-12.54-22.69-22.4a46.719 46.719 0 0 0-5.39-8.89c-3.23 10.05-6.6 20.72-14.49 28.17-5.31 4.68-12.16 9.15-19.57 7.71-8.97-1.63-18.26-4.11-25.27-10.25-6.67-5.2-9.47-13.47-12.15-21.14-6.84 6.17-12.39 13.64-19.44 19.61-13.28 11.66-31.49 17.37-49.05 15.91-10.95-.67-22.33-3.64-30.56-11.25-12.99-10.68-17.04-28.15-28.7-39.92-6.53-.46-14.02-1.67-19.64 2.53-8.81 5.63-15.32 14.03-21.31 22.43-13.41 21.53-18.23 47.34-32.86 68.21-5.39 7.56-13.87 14.4-23.67 13.63-11.5-1.65-19.84-11.09-24.8-20.96-12.62-23.21-16.85-50.42-14.15-76.55.97-7.95 1.24-15.97 1.28-23.97-9.75.08-18.68 4.29-27.33 8.28-25.46 11.08-48.99 26.32-75.26 35.55-12.57 5.17-27.75-.44-35.6-11.1-4.13-5.73-6.47-12.47-10.02-18.53-4.99 8.1-8.19 17.38-14.79 24.4-5.19 5.55-11.83 9.96-19.32 11.59-8.79 1.71-18.64.29-25.53-5.79-7.72-6.36-10.59-16.48-12.39-25.91-3.86-.12-4.92 4.29-7.28 6.53-11.19 13.24-24.99 25.96-42.42 29.77-10.57 2.5-22.34 1.51-31.61-4.44-5.1-3.34-8.69-8.6-10.49-14.36-2.04-5.85-2.32-12.11-3.99-18.05-7.14 4.26-11.6 11.48-17.3 17.3-6.86 7.2-14.19 14.28-23.19 18.73-7.97 3.7-16.23 6.73-24.51 9.62-7.58 2.56-15.88.63-22.78-2.97-6.35-3.41-12.52-7.72-16.49-13.86-3.53-5.34-6.19-11.2-9.72-16.55-3.18 9.29-6.82 18.74-13.48 26.16-4.84 5.57-11.75 8.96-18.87 10.51-8.2 1.15-16.07-2.74-22.51-7.44-6.73-5.01-10.46-12.75-15.83-18.99-5.92 9.26-12.13 18.62-20.72 25.65-4.94 4.46-11.36 7.14-18.04 7.16-11.16-.28-23.26-2.42-31.36-10.79-6.01-5.25-8.6-12.91-11.77-19.95-6.6 7.21-13.17 14.51-20.86 20.6-9.12 7.45-20.21 12.78-31.99 14.04-6.65.45-13.32.12-19.97-.06-10.96-.08-21.16-5.79-28.65-13.5-8.2-8.29-12.75-19.22-18.92-28.93-2.3-3.25-4.64-6.79-8.18-8.79-5.23-.93-11.02-.97-15.73 1.83-8.41 4.66-14.29 12.5-20.17 19.87-4.64 5.69-7.97 12.3-10.9 19-4.67 11.6-9.45 23.16-14.44 34.63-4.14 9.21-9.22 18.24-16.64 25.23-5.71 5.7-14.58 7.91-22.31 5.65-6.55-2.03-11.41-7.38-15.45-12.66-9.88-14.33-15.03-31.39-17.76-48.43-1.23-9.25-2.16-18.68-.86-27.96.81-6.7.09-13.53 1.47-20.17 1.73-8.92 3.36-17.94 6.72-26.43 1.23.01 2.48.03 3.74.05-1.18 21.52-5.08 43.16-1.75 64.67 1.11 11.5 3.04 23.35 9.27 33.32 4.15 7.16 12.29 11.84 20.59 11.65 5.44-.01 10.12-3.41 13.85-7.06 8.19-8.39 11.92-19.75 16.86-30.11 7.25-15.51 13.45-31.67 23.22-45.84 4.6-6.93 9.95-13.35 15.8-19.25 6.64-6.66 15.32-12.85 25.23-11.77 6.51-.08 11.39 5.01 14.83 9.98 7.17 10.46 12.49 22.41 21.93 31.16 6.94 6.8 16.5 10.36 26.14 10.54 9.15-.01 18.55.54 27.39-2.26 10.25-2.85 20.23-7.66 27.64-15.47 8.72-8.15 15.05-18.95 25.54-25.12 1.66 8.92-3.75 18.08-.12 26.79 2.67 7.62 11.2 11.01 18.67 11.53 7.09.29 14.61 1.14 21.3-1.81 5.2-2.44 9.78-6.12 13.45-10.53 7.32-8.59 12.11-19.01 19.5-27.53 1.69-2.15 4.84-2.24 6.7-.24-1.46 7.49-3.91 16.2.84 23.02 4.88 6.02 12.11 11.07 20.19 10.67 8.24-.06 17.63-.63 23.74-6.91 5.71-6.13 5.62-15.26 4.32-23.02-3.75-19.44-8.3-38.75-14.3-57.63-1.94-12.26-.39-25.24 5.16-36.42l4.3-.06c8.36 15.69 12.19 33.19 16.2 50.35 3.79 15.26 5.12 31.09 10.13 46.05 2.59 7.64 6.05 15.44 12.52 20.59 2.56 1.92 5.37 4.12 8.76 4.04 6.51.23 12.73-2.17 19.21-2.37 11.99-.58 23.53-5.2 33.26-12.11 11.5-8.36 20.36-19.68 31.02-29 2.57-2.04 5.74-5.03 9.23-3.18.85 7.74-2.98 15.44-.69 23.08 2.59 8.39 10.78 13.89 19.2 15.14 16.81 4.02 34.73-1.69 47.93-12.36 10.34-8.91 18.16-20.53 29.48-28.34.42 5.87-.39 11.7-1.06 17.52 1.84 8.39 7.86 16.71 16.58 18.81 13.59 2.14 26.61-5.79 35.12-15.83 7.41-8.05 11.32-18.51 18.16-26.97 4.06 6.28.32 14.05 2.94 20.73 1.66 4.74 3.94 9.65 8.19 12.61 4.44 3.11 9.85 4.84 15.26 5.04 17.7-2.02 34.21-9.21 50.23-16.61 8.99-4.39 17.96-8.92 26.36-14.38-13.51-3.63-27.59-4.12-41.35-6.36-10.73-1.77-21.66-1.95-32.36-3.86-10.6-2.26-21.59.09-32.15-2.54 0-6.3 3.83-11.58 6.44-17.05 2.64-5.25 5.9-11.06 11.86-12.99 20.19-7.16 41.26-11.71 61.12-19.84 3.69-1.71 7.8-3.66 9.59-7.58 2.4-5.06 1.31-10.84 1.56-16.24-.25-13.2.72-26.46-.71-39.62-1.07-8.78.05-17.67-1.31-26.44-1.06-14.35-1.75-28.73-3.2-43.05-.13-14.07-1.91-28.03-2.91-42.03-.66-9.56 1.28-19.48-2.06-28.7-1.54-4.84-3.34-10.04-1.94-15.13 2.17-7.47 6.05-14.29 8.49-21.66m153.74 38.58c-.76 6.77 6.75 10.81 12.67 10.49.08-4.93-.03-9.96-1.71-14.66-3.85.23-8.97.16-10.96 4.17m139.93 18.16c-2.31 5.86-2.73 12.22-2.5 18.46 4.8 2.46 10.45 3.28 15.67 1.68.44-7.34-2.84-14.14-6.83-20.07-2.13-.04-4.25-.06-6.34-.07m-18.67 1.05c-4.2 2.22-4.8 7.41-4.88 11.66 4.15 3.02 9.35 3.14 14.29 2.89-.45-4.36 1.56-9.94-2.46-13.09-1.72-1.8-4.77-3.39-6.95-1.46m214.78 237.07c6.41 7.07 14.12 12.76 21.93 18.19 7.79-2.97 15.19-6.83 22.5-10.81.74-.65 2.32-.76 2.39-2-14.61-6.79-31.15-5.73-46.82-5.38Z"/><path d="M975.83 70.73c4.77-1.77 9.95 2.43 10.81 7.09 1.27 8.8-.22 17.76-2.72 26.22 3.43 4.81 8.96 10.03 6.5 16.54-4.56 14.09-10.6 28.33-9.24 43.49-.47 4.61 3.13 7.94 6.16 10.82 4.39-2.47 7.74-6.29 10.96-10.08-.45 8.11-1.5 17.02-7.28 23.23-2.19 1.86-4.84 4.55-7.97 3.4-6.13-2.52-8.98-9.42-9.76-15.58-1.35-17.43 9.2-33.16 8.41-50.52-2.42-.01-4.83-.01-7.23.01-6.3 8.3-12.87 16.6-21.21 22.95-20.47 15.55-42.29 29.17-63.95 42.95.53 11.21-.21 22.45.89 33.63 1 6.67.77 13.45 1.81 20.11 1.04 7.16-.12 14.45 1.23 21.58.88 5.42.34 10.96 1.34 16.37 1.23 6.68.08 13.53 1.23 20.22 1.19 6.06.53 12.29 1.44 18.39 1.33 8.41.03 17.02 1.68 25.41 1.05 11.29.61 22.66.3 33.98-1.89 18.99-5.47 38.14-13.75 55.48-.99 2.33-3.4 3.46-5.78 3.8 1.01-8.08 1.62-16.19 1.96-24.31 2.32-15.94-.75-31.95-.63-47.93-1.15-8.31-1.25-16.71-1.39-25.09-1.15-9.58-1.25-19.26-2.5-28.83.11-13.04-1.37-26.02-2.65-38.98-.14-10.76-1.83-21.43-1.93-32.2-2.17-13.25.46-27.07-3.95-39.98-9.66 2.85-17.95 9.43-28.06 10.88 7.85-8.73 19.24-12.8 28.25-20.06-.23-7.25.33-14.55-.81-21.74-1.07-6.18-.5-12.5-1.38-18.7-1.37-8.52.58-17.35-1.95-25.72-1.08-4.61-3.83-9.32-2.14-14.14 2.84-8.57 4.9-17.79 10.97-24.79 4.33 6.15 6.93 13.26 9.4 20.31 5.69 16.06 12.6 31.71 17.34 48.09.93 2.36-.46 4.69-1.03 6.95-4.42-3.05-8.6-6.54-13.63-8.57-.42 8.48.39 17.01 2.76 25.17 16.81-10.67 32.43-23.07 48.83-34.35 11.61-8.75 24.41-16.53 33.38-28.22-5.25-3.78-11.3-7.83-13.11-14.42-1.06-7.17-.28-14.96 3.94-21.05 3.42-5.33 8.59-9.46 14.46-11.81m-6.52 16.44c-1.57 1.47-2.89 3.17-4.3 4.78 2.64 3.79 6.16 6.84 10.05 9.32 1.25-1.41 2.83-2.63 3.67-4.36-.33-3.56-1.68-6.92-3.23-10.1-2.06.15-4.22-.23-6.19.36ZM142.43 74.44c3.6-2.59 8.27-1.75 12.41-1.8 4.08 4.94 4.96 11.67 3.85 17.83-.86 5.26-2.31 10.4-3.26 15.65 3.28 3.28 7.92 5.99 9.07 10.75-.99 4.71-3.68 9.37-7.31 12.39-3-2.18-5.85-4.56-8.8-6.82-4.65 5.95-8.89 12.32-14.61 17.33-11.22 9.86-24.25 17.28-37.01 24.93-5.87 3.76-12.09 6.97-18.64 9.38-6.84 2.52-13.47 6.99-21.09 6.03 27.31-21.94 61.65-34.56 85.45-60.96-5.05-4.02-10.59-7.89-13.79-13.65-1.21-5.67-1.43-12.02 1.52-17.22 2.98-5.43 7.15-10.26 12.21-13.84m-1.95 14.22c-2.63.91-2.2 4.17-2.8 6.34 3.27 3.27 6.93 6.36 11.46 7.7.59-4.97.29-10.05-1.3-14.81-2.45.23-5 .01-7.36.77ZM356.96 78.94c3.46-1.13 7.19-.57 10.77-.58 2.46 3 4.09 6.7 4.19 10.62.36 7.54-3.31 14.48-7.37 20.58-4.91 6.95-11.5 12.49-16.65 19.25 3.41-.75 6.8-1.64 10.03-2.99 18.16-7.6 36.3-15.27 54.77-22.11 17.5-6.26 35.19-12.02 52.76-18.08 9.81-2.48 19.53-5.32 29.34-7.83-2.61 6.64-5.92 13.86-12.53 17.34-7.5 3.34-15.62 4.9-23.38 7.51-13.28 3.87-25.85 9.73-38.92 14.18-12.62 4.78-25.43 9.06-37.87 14.32-2.38 1.13-5.44 2.11-6.22 4.96-3.76 12.48-8.4 24.82-9.86 37.85-.7 4.58 1.55 8.81 3.57 12.73 2.05.1 4.1.12 6.16.13 2.82-3.4 5.57-6.86 8.56-10.12.01 8.58-2.73 17.55-9.11 23.54-1.79 2.02-4.72 2.14-7.22 1.97-3.43-.23-5.62-3.34-7.08-6.11-2.69-5.64-2.12-12.14-1.67-18.19 1.24-9.2 3.1-18.41 6.75-26.99 2.15-5.18 5.23-10.07 6.03-15.73-32.26 13.42-64.26 27.7-94.57 45.15-9.56 5.26-19.91 8.86-29.73 13.58-18.7 9.97-35.93 22.98-56.12 29.99.6-5.68 2.89-10.96 5.19-16.12 1.05-2.24 1.72-4.72 3.36-6.62 2.85-2.93 6.97-3.88 10.48-5.73 42.9-22.6 86.26-44.47 131.17-62.81 4.58-2.19 4.28-8.11 6.92-11.84 4.47-5.9 9.93-11.24 12.85-18.16 1.21-3-.09-6.15-1.01-9.03-3.99.32-7.99.35-11.98.32.58-5.81 3.08-12 8.39-14.98ZM577.17 98.98c-1.34-7.22-.04-15.24 5.09-20.76 2.82-.23 5.94-.27 8.51 1.1 3.09 2.78 1.48 7.38 1.74 11.01-3.15-1.33-6.29-2.64-9.42-4-1.72 4.33-3.61 8.6-5.92 12.65Z"/><path d="M806.54 78.4c1.39-.14 2.79-.27 4.2-.39 7.95 19.11 14.89 38.61 22.34 57.91 1.89 4.71 1.07 9.88 1.11 14.81-4.48-2.25-8.48-5.26-12.52-8.19-.12 6.81-.29 13.66.72 20.42.91 5.6.24 11.31 1.14 16.9 1.11 6.02.59 12.16 1.22 18.22 1.37 8.59 1.08 17.32 2.24 25.93-.04 16.72 3.62 33.25 2.95 49.99.01 11.73 2.91 23.25 2.68 34.99.29 13.69.59 27.41-.22 41.08-2.23 16.33-5.67 32.87-13.8 47.39-4.51 8.69-11.07 16.37-19.25 21.79-5.2 3.67-11.94 3.65-17.4 6.8-.88 12.47.65 25-.58 37.46-.61 2.36-1.56 4.91-3.38 6.59-5.07 1.55-10.31-.8-14.43-3.66-5.23-3.7-10.6-7.32-14.95-12.06-6.48-6.7-10.65-15.43-12.45-24.53-1.37-6.91-1.78-14.01-3.83-20.78-6.06 6.71-11.28 14.14-17.53 20.69-8.45 9.33-21.08 15.39-33.82 14.32-9.01-.62-17.9-2.43-26.93-2.93-9.87-.42-19.18-4.11-28.14-7.96-2.73-1.56-5.72 0-8.04 1.52-7.96 5.24-16.37 10.14-25.73 12.36-7.24 1.84-14.78 1.1-22.17 1.09-7.61-.13-14.95-3.44-20.36-8.73-7.02-6.49-11.39-15.37-13.85-24.5-3.47-13.08-5.32-26.51-7.18-39.89.05-1.67-1.99-.76-2.94-.84-1.59 5.88-3.3 11.82-6.22 17.21-4.95 9.28-12.17 17.05-19.19 24.79-13.63 13.84-28.68 26.32-44.87 37.05-15.76 10.6-33.32 18.51-51.72 23.24-6.38 1.85-13.05 2.23-19.66 2.17-4.19-.15-8.54.32-12.53-1.21-8.73-3.18-15.75-10.49-18.79-19.24-5.42-12.4-3.33-26.19-3.29-39.29.83-9.83 3.29-19.43 5.71-28.96 1.46-6.06 3.79-11.92 4.29-18.17-6.47 2.47-13.49 3.07-20.36 2.65-9.83.11-19.99-4.61-25.4-12.97-4.15-7.66-5.08-16.5-6.66-24.93-2.63 1.86-5.26 3.76-7.46 6.13-9.24 9.99-17.77 21.12-29.64 28.19-8.76 5.06-18.46 9.62-28.84 9.07-10.33-.44-21.32 1.54-31.01-3.01-9.89-4.41-17.82-12.5-23.21-21.78-4.79-7.86-9.26-15.98-15.12-23.11-2.37-2.81-5.76-5.82-9.75-4.61-12.81 2.67-22.39 12.52-30.15 22.43-3.65 4.83-6.91 9.97-9.48 15.47-7.28 16.16-12.94 33.06-21.28 48.75-4.67 8.24-10.65 16.46-19.46 20.58-6.96 2.2-15.2 1.51-21.05-3.15-8.57-6.46-13.64-16.32-17.82-25.97-5.19-12.52-9.4-25.85-9.01-39.55-.56-10.66.1-21.31.1-31.97.02-7.47 1.96-14.73 3.84-21.9.64-2.84 1.56-6.45-.88-8.72-6.75-7.32-13.65-15.9-13.94-26.32.08-7.03-.28-14.08.28-21.09 2.78-21.8 9.7-42.75 15.25-63.94 9.11-35.59 18.88-71.03 26.83-106.91 1.5 0 2.99.01 4.48.02-2.58 10.66-6.72 20.99-7.86 31.98-.32 3.57-1.38 7.02-2.25 10.48-5.13 19.74-10.84 39.34-15.12 59.29-4.36 20.31-10.33 40.33-12.82 61-.27 8.65-1.39 17.67 1.47 26.04 1.87 5.74 7.13 9.21 11.72 12.66 2.85-1.7 5.97-3.13 8.31-5.53 3.94-6.18 3.89-13.97 7.57-20.3 1.43 1.52 2.84 3.06 4.2 4.64 2.13 16.72-7.23 33.03-20.6 42.52-.31 13.09-3.6 25.96-3.01 39.09.41 10.35 1.92 20.63 4.01 30.76 2.12 9.48 5.31 19.49 12.92 26.03 6.76 5.32 17.17 7.17 24.49 1.93 9.08-6.16 13.43-16.68 17.83-26.29 10.17-22.25 19.03-45.85 35.67-64.27 5.42-6.29 11.67-11.98 18.93-16.08 5.26-2.7 11.34-1.62 17.01-1.67 2.55-.22 4.91 1.04 6.61 2.86 10.6 10.58 15.1 25.72 26 36.06 4.42 4.47 10.04 7.93 16.37 8.7 7.26.94 14.54 3.61 21.9 2.03 7.53-1.33 15.26-1.92 22.54-4.42 6.13-2.04 11.38-5.93 16.43-9.85 8.84-7.02 16.42-15.42 24.47-23.31 3.79-3.82 8.28-7.45 13.87-7.91.4 8.12-3.1 16.18-1.17 24.27 3.19 8.21 11.47 13.21 19.69 15.26 16.85 4.18 35.9-3.5 44.91-18.39 5.63-8.3 10.58-17.04 16.59-25.08 1.99.01 3.98.01 5.98.03.41 7.77-4.1 15.07-2.63 22.85 1.95 4.09 5.63 7.01 9.34 9.43 5.03 3.28 11.34 2.9 17.07 2.54 3.36-.11 5.87-2.68 8.49-4.47-2.09-2.89-4.2-5.76-6.35-8.6 2.48-8.32 4.72-16.8 8.46-24.66.48-1.9 2.87-1.49 4.24-1.01 5.49 7.51 7.8 17.17 6.93 26.39-1.58 10.8-4.09 21.97-10.95 30.75-3.39 4.25-7.56 7.95-12.4 10.46-5.11 2.47-10.95 2.45-16.49 2.11-2.37-.23-4.89-.22-6.98-1.5-7.08-4-11.82-10.85-16.63-17.18-4.28 5.77-8.21 11.89-13.6 16.73-3.15 2.97-6.98 5.75-8.22 10.11-3.72 12.2-5.98 24.78-8.33 37.31-.83 6.69-.86 13.5-.11 20.21 1.6 7.89 7.86 15.03 15.84 16.83 22.45 2.66 44.79-4.27 64.65-14.3 14.35-7.51 27.66-16.89 40.39-26.87 11.83-9.66 23.05-20.23 32.28-32.45 2.73-3.57 5.96-7.01 7.23-11.42 1.66-14.07-.92-28.2-4.27-41.83-6.13-31.18-20.38-59.81-32.58-88.88-1.79-11.89.25-24.39 5.41-35.25 2.9 2.39 5.65 5.03 7.68 8.23 11.76 17.52 20.49 36.93 26.97 56.98 7.24 21.89 11.25 44.64 15.66 67.22 2.4 12.9 4.73 25.82 7.09 38.73 2.03 12.33 3.29 25.14 9.04 36.45 2.25 4.77 6.14 8.92 11.1 10.87 3.92 1.59 8.23.79 12.34.97 8.63.1 17.78.32 25.6-3.93-1.54-8.1-3.97-16.18-3.39-24.51-.9-15.16 5.58-29.63 13.84-41.97 6.59-8.92 13.66-18.12 23.63-23.44 5.05-1.36 11.37-1.6 15.53 2.13 5.47 5.38 8.35 12.79 10.07 20.14 1.72 8.57 3.25 17.39 1.82 26.12-1.23 7.48-2 15.17-4.96 22.22-2.18 5.46-4.97 10.63-7.54 15.91 14.56 3.25 29.63 3.73 44.48 2.87 9.42-1.72 18.89-5.28 25.91-12 6.25-5.82 10.42-13.6 17.18-18.9 3.72-2.56 7.99.42 10.96 2.75 6.05 4.4 12.15 9.87 19.99 10.36 14.06.86 28.65-2.82 39.96-11.39 3.74-2.66 4.61-7.45 5.22-11.69 1.07-9.48 1.04-19.12.06-28.61-1.34-7.76-.47-15.66-1.13-23.46-1.4-9.28-.66-18.72-2.08-28-.27-8.71-1.94-17.33-1.68-26.06-.02-7.02-1.55-13.94-1.66-20.97-2.02-22.31-2.57-44.7-4.69-67.01-1.27-9.14-.03-18.41-1.33-27.54-1.52-9.46.37-19.16-1.64-28.57-1.33-5.87-4.4-11.67-3.13-17.85 1.84-7.89 5.76-15.07 8.56-22.63M625.23 357.23c-6.35 7.27-13.17 14.37-17.37 23.18 3.89 7.21 9.84 13.36 17.08 17.22 3.56.81 7.04-.77 9.89-2.78 4.08-2.89 8.17-5.82 11.82-9.26 2.47-2.45 4.61-5.88 3.87-9.51-2.02-9.82-6.31-19.17-12.49-27.07-4.8 1.76-9.35 4.41-12.8 8.22m126.11 63.03c4.43 8.94 10.9 17.54 20.47 21.35.62-9.76-8.45-15.34-14.26-21.64-2.08.06-4.16.13-6.21.29Z"/><path d="M279.12 86.18c4.07-5.54 13.73-.62 13.02 5.74-.23 1.94-.65 3.86-1.03 5.79-3.19-1.71-6.26-3.61-9.24-5.65-5.66 10.05-5.51 21.89-5.97 33.05-.02 4.11-1.88 7.84-3.16 11.65-1.18.15-2.36.31-3.54.47-4.06-8.36-8.41-16.58-13.32-24.47-4.19 1.8-8.82 4.52-13.48 2.73-4.35-1.61-9.41-5.12-8.64-10.44-.08-5.3 5.19-9.39 10.26-9.05 3.41.02 5.95 2.58 8.35 4.66 8.15 7.45 13.24 17.49 17.63 27.45 4.27-4.81 2.19-11.45 3.08-17.2 1.11-8.38 1.65-17.28 6.04-24.73ZM661.27 100.88c.27-8.37 6.67-17.47 15.76-16.97 6.21 1.53 9.81 9.02 8.16 15.02-1.99 9.73-8.77 17.36-13.24 25.97 7.41-1.61 14.17-5.14 21.21-7.84 13.04-5.19 26.37-9.65 39.66-14.18 7.73-2.51 15.35-5.4 23.22-7.45 7.24-2.04 14.47-4.46 22.06-4.79-3.07 4.65-5.47 10.03-10.07 13.42-4.56 2.79-9.96 3.67-14.99 5.3-16.46 4.53-32.02 11.68-48.15 17.19-22.9 8.28-45.39 17.7-67.52 27.88-14.84 6.94-29.75 13.8-43.9 22.09-4.01 2.4-8.4 4.12-12.33 6.67-2.51 1.46-3.14 4.47-4.07 6.99-3.79 10.78-6.89 22.31-5.09 33.8.73 3.37 4.9 5.78 8.08 4.17 3.6-2.7 6.32-6.38 9.62-9.42-.23 8.79-3.17 18.16-10.11 23.95-6.07 4.01-14.82-1.67-15.07-8.56-.13-9.02-.83-18.27 1.73-27.05 1.69-6.58 4.87-12.72 5.83-19.49-7.53.95-13.66 5.73-19.98 9.52-11.34 6.74-22.54 14.03-35.16 18.18 1.42-5.91 3.13-11.84 6.03-17.22 2.74-4.59 7.94-6.57 12.53-8.77 16.99-9.1 34.24-17.72 51.59-26.12 18.01-9.1 36.73-16.69 55.18-24.86 5.61-2.69 11.94-4.23 16.68-8.46 4.66-4.04 8.18-9.16 11.83-14.09 3.23-4.28 6.01-9.64 4.2-15.13-4.57-.16-9.13.15-13.69.25ZM1093.72 88.75c2.13-3.33 7.28-4.97 10.31-1.86 3.4 2.37 2.35 6.91 2.3 10.43-3.28-.89-6.45-2.06-9.61-3.28a80.584 80.584 0 0 1-5.55 9.45c-.6-4.97-1.1-10.73 2.55-14.74ZM1161.14 87.21c3.51-3.34 8.79-1.69 13.14-2.16 4.13 4.85 5.7 11.85 3.32 17.85-4.79 12.51-13.01 24.09-24.57 31.13-.66-5.8 4.47-9.42 7.68-13.44 3.88-4.82 8.55-10.07 8.28-16.67.14-2.26-2.03-3.91-4.05-4.24-3.15-.34-6.3-.05-9.43-.09.37-4.6 1.99-9.34 5.63-12.38ZM1294 91.04c7.33-1.44 14.14-4.73 21.49-6.15-3.25 7.06-7.18 14.39-13.81 18.79-7.45 3.61-15.73 4.96-23.52 7.62-14.44 4.23-28.21 10.37-42.32 15.54-17.91 6.7-35.95 13.08-53.6 20.46-32.61 14.05-65.4 27.97-96.19 45.75-8.03 4.77-16.98 7.58-25.39 11.55-19.02 9.11-36.19 21.59-55.1 30.9-2.68 1.24-5.6 1.77-8.49 2.12.92-7.27 3.88-14.06 7.03-20.6 3.07-5.31 9.56-6.58 14.52-9.46 22.95-12.88 46.87-23.86 70.32-35.77 38.36-18.39 77.83-34.36 117.14-50.58 20.77-8.5 42.05-15.64 63.35-22.69 8.08-2.84 16.15-5.77 24.57-7.48ZM1489.64 94.4c1.64-4.36 4.92-9.62 10.25-9.27 3.23-.38 6.75 1.53 7.75 4.72.52 2.31.22 4.72.25 7.08-4.17-.04-8.16-1.26-12.18-2.13-6.04 15.76-2.47 33.27-7.99 49.17-1.84.02-3.67.03-5.48.05-5.99-8.43-7.79-19.58-15.85-26.55-2.22-2.26-5.88-3.96-8.77-1.88-2.88 2.66-3.33 6.88-4.77 10.35-1.77 5.82-6.39 10.07-10.65 14.14-15.47 14.12-34.9 22.55-53.46 31.73-11.04 5.59-23.01 9.09-33.8 15.16-5.32 2.7-11.32 5.03-17.38 3.84 6.19-5.52 14.2-8.08 21.5-11.73 18.6-8.9 37.38-17.5 55.39-27.57 9.98-5.4 20.23-10.65 28.79-18.22 3.4-3.09 6.96-7.4 5.71-12.34-2.45-6.4-8.59-10.98-9.61-18.01-.91-3.97 2.29-7.1 4.67-9.8 6.15-.21 11.6 2.86 16.22 6.65 7.39 5.76 13.13 13.46 17.28 21.83 2.17 4.36 4.38 8.75 7.51 12.53.69-13.31.84-26.86 4.62-39.75ZM2201.72 88.64c4.09-1.5 8.18-3.07 12.45-4.04-1.82 7.36-6.27 13.76-11.12 19.44-6.32 5.19-14.89 5.88-22.38 8.5-21.46 5.76-41.81 14.74-62.63 22.34-19.11 7.16-38.29 14.14-57.13 21.98-35.4 15.31-71.22 30.03-104.55 49.58-8.47 4.84-17.15 9.34-26.28 12.8-20.38 7.49-37.65 21.04-56.76 31.05-8.44 4.1-16.45 10.1-26.09 10.78 2.04-8.47 6.25-16.17 9.77-24.08 1.6-3.92 5.41-6.23 9.13-7.84 7.1-2.97 13.69-6.97 20.55-10.42 20.24-10.57 40.73-20.64 61.13-30.89 40.36-19.62 81.88-36.71 123.32-53.91 18.87-7.59 37.59-15.62 56.91-22.02 9.44-3.19 18.9-6.32 28.36-9.46 6.96-2.3 13.68-5.31 20.75-7.34 8.09-2.53 16.58-3.57 24.57-6.47ZM1554.19 105.07c5.49-7.45 11.33-15.45 20.07-19.28 5.23-2.38 10.39 2.53 12.42 7.02.57 5.01.63 10.26-1.09 15.07-1.1 3.38-2.76 6.55-3.75 9.96-2.61 6.59 6.32 10.13 5.87 16.63-2.24 1.81-4.17 4.1-6.77 5.39-3.72.71-7.27-1.02-10.92-1.28-2.33.95-4.11 2.78-6.04 4.32-8.18 6.86-18.33 10.58-27.54 15.77-14.76 8.5-29.79 16.57-45.48 23.24-13.75 6.11-27.56 12.15-40.82 19.27-7.4 4-15.33 7.27-23.72 8.31.21-6.03 6.6-7.93 11.15-9.97 17.94-7.14 35.17-15.89 52.38-24.59 8.56-4.39 17.29-8.44 25.67-13.18 8.6-4.8 17.09-9.84 25.99-14.09 7.5-3.85 15.69-7.51 20.6-14.72-3.84-3.53-8.13-6.72-11.15-11-2.41-5.66-.05-12.02 3.13-16.87m6.35 2.08c3.26 5.66 8.64 9.88 14.81 11.97.06-4.4.78-8.8.31-13.2-.44-2.62-1.94-5.43-4.55-6.36-4.75.06-8.12 3.97-10.57 7.59ZM1365.68 88.71c4.47-3.58 12.02-2.38 14.55 2.96 2.51 5.8 1.45 12.67-1.32 18.19-5.08 11.14-13.05 21.71-24.49 26.81 4.02-8.61 11.69-14.76 16.2-23.06 1.84-3.18.82-6.93.41-10.33-4.24.05-8.48.32-12.71.31.19-5.68 2.3-11.76 7.36-14.88ZM535.08 99.02c-.27-3.57 2.64-6.07 4.69-8.58 3.74.23 8-.68 11.29 1.6 9.33 7.14 15.07 17.75 19.67 28.33 1.13-.5 2.27-1.01 3.42-1.51.07-5.43-.78-11.49 2.43-16.24 1.02 2.61 2.41 5.38 1.69 8.25-1.17 6.42-1.39 13.12-3.99 19.2-1.37-.04-2.74-.07-4.1-.09-3.62-7.76-7.17-15.65-12.51-22.42-5.22-.5-10.66 3.4-15.59.45-3.33-1.87-7.26-4.69-7-8.99ZM2027.03 93.97c3.89-1.21 8.09-.58 12.1-.18 3.74 4.46 4.39 10.8 2.4 16.17-3.45 9.25-8.66 17.89-15.46 25.05-3.07 3.27-7.11 5.4-11.29 6.86 5.42-10.37 15.36-17.84 19.22-29.13-1.03-1.79-2.1-3.72-4.01-4.66-3.51-.84-7.12-.09-10.66-.09.36-5.41 2.4-11.59 7.7-14.02ZM2301.41 96.75c4.52 4.36 6.4 10.51 8.64 16.2 4.65 12.01 9.12 24.08 13.52 36.18 2.48 7.59 6.85 15.1 4.97 23.37-5.36-3.02-9.66-7.48-13.93-11.81-.84 10.86 1.76 21.54 1.46 32.38.47 11.61 2.11 23.16 2.7 34.77.25 10.97 1.45 21.89 2.36 32.82.62 5.94.18 11.94 1.23 17.83 1.11 6.8.68 13.69 1.19 20.53.73 13.67 2.24 27.29 3.1 40.95.61 7 .26 14.07 1.39 21.03 1.9 18.1-.48 36.33-4.09 54.08-2.23 10.31-5.74 20.3-9.82 30.01-.9 2.37-3.12 3.75-5.07 5.15-1.27-8.47 1.68-16.8 1.42-25.27-.02-7.56-.07-15.13.1-22.69-.39-8.81.38-17.68-.91-26.42-.86-6.41-.65-12.9-1.42-19.31-1.07-7.83.01-15.78-1.08-23.62-1.41-9.61-1.68-19.34-2.32-29.02-.36-6.97-1.66-13.88-1.48-20.88-1.03-12.35-1.14-24.74-2.73-37.03-.06-17.09-2.55-34.04-3.18-51.1-.93-8-.71-16.08-1.77-24.06-1.16-9.62-.04-19.34-.93-28.97-.47-5.83-3.76-11.02-4.03-16.88-.21-3.83 1.47-7.4 2.7-10.93 2.14-6 4.98-11.7 7.98-17.31ZM1048.89 106.03c-.36-5.01 4.41-8.77 9.14-8.64 4.15-.23 7.38 2.74 10.2 5.38 7.14 6.69 11.74 15.51 15.72 24.33 1.39-.02 2.79-.05 4.21-.07.08-5.75-1.57-12.34 2.56-17.15.17 7.39 1.66 15.07-.82 22.23-.9 2.9-2.95 5.21-5.17 7.19-4.25-8.64-8.79-17.15-14.04-25.22-3.89 1.19-7.64 3.2-11.77 3.2-5.09-1.19-10.9-5.35-10.03-11.25ZM492.03 127.25c1.16-1.85 3.58-1.74 5.45-2.31-.22 11.65 8.67 21.32 7.76 33.03-.26 7.3-3.88 14.1-8.84 19.31-2.55-.04-5.09.04-7.62-.11-3.51-2.57-6.44-5.86-9.62-8.82-2.38 4-4.58 8.54-8.7 11.03-3.56 1.51-7.51.63-11.25.84-2.48-2.79-4.89-5.74-6.3-9.23-2.87-7.4 1.33-15.99-2.83-23.04-1.09-2.22-2.44-4.52-2.33-7.08 1.1-3.3 3.6-5.84 5.63-8.57 1.94.05 3.88.13 5.82.22.12 7.49-.16 14.98-.64 22.46-.16 4.78 2.1 10.99 7.31 12.03 4.73-1.11 8.84-4.59 10.79-9.03 1.25-4.74-.52-9.56-1.56-14.17-1.32-4.99-.98-10.2-.95-15.31 1.85-.25 3.72-.47 5.6-.7 2.41 6.82 4.13 13.92 4.47 21.16.3 4.17.61 8.93 3.83 12 2.24 2.09 5.47 2 8.33 2.31 1.01-1.04 2.03-2.08 3.06-3.11-2.44-6.8-6.58-12.95-8.2-20.05-1.04-4.23-.88-8.82.79-12.86ZM764.98 138.92c2.51-1.52 5.79-.86 8.04.86 3.23 2.37 4.6 6.44 5.22 10.25.87 7.21-2.37 14.01-2.82 21.11-.64 1.65 1.2 2.45 2.08 3.46 2.51 2.16 4.83 4.56 6.72 7.3-2.49 3.6-5.52 6.76-8.8 9.62-3.2-1.6-6.56-4.29-10.33-3.35-5.3 4-8.63 10.01-13.55 14.44-12.07 11.09-24.82 21.59-39.03 29.84-6.16 3.7-12.15 8.28-19.5 9.19 6.04-7.08 14.25-11.64 21.54-17.24 9.12-7.12 18.17-14.34 26.86-21.98 6.13-5.16 12.52-10.13 17.56-16.42-4.51-3.8-9.93-6.7-13.48-11.52-1.89-4.72-.13-10.01 1.93-14.39 4.2-8.19 9.48-16.36 17.56-21.17m-9.01 17.89c.26 2.23-.09 4.61.72 6.74 2.73 3.89 7.88 3.99 12.16 4.27-.07-2.63-.04-5.26-.06-7.89.48-3.59-4.04-4.61-5.96-6.88-2.33 1.19-4.6 2.47-6.86 3.76ZM2194.05 149.22c5.72-1.72 12.11-4.6 17.92-1.54-5.27 8.14-15.58 9.1-23.98 11.94-28.84 11.01-58.1 21.28-85.48 35.69-7.83 3.81-15.04 8.84-23.2 11.96-11.05 4.29-20.5 11.7-31.22 16.65-1.58 1.01-4.36.94-4.73-1.29.78-5.24 4.46-9.81 9.04-12.34 18.98-9.29 37.49-19.57 56.88-28.02 28.03-11.56 55.78-24 84.77-33.05Z"/><path d="M661.79 150.77c1.11-.24 2.23-.48 3.36-.71-3.95 12.11-7.84 24.29-10.04 36.85-.74 4.38.75 8.98 3.59 12.35 1.02 1.68 3.26 1.79 4.94 1.13 4.51-1.65 6.44-6.47 9.54-9.77.49 8.22-2.54 16.47-7.81 22.74-2.55 3.01-7.27 3.64-10.72 1.94-3.27-2.19-5.1-5.98-6.07-9.69-1.79-7.32-.34-14.85 1.09-22.1 2.4-11.43 6.45-22.52 12.12-32.74ZM1223.03 176.89c11.01-3 22.61-3.27 33.89-1.92 11.66.84 24.5.35 34.42 7.6-.21 3.34.07 6.98-1.9 9.89-5.17 8.62-11.22 16.68-17.67 24.37-5.14 5.83-10.59 11.75-17.65 15.24-8.68 3.93-17.94 6.33-27.08 8.92-6.91 1.83-13.72 4.97-21.04 4.2 7.52-7.76 17.75-11.79 26.83-17.32 9.98-6.25 21.57-10.04 30.23-18.28-6.72-3.69-14.56-3.51-21.95-4.48-10.33-.27-20.74-.66-31.02.72-2.53.29-4.99-.4-7.41-.94 1.6-6.95 5.83-12.8 9.45-18.81 2.59-4.02 6.04-8.04 10.9-9.19ZM1145.13 201.88c2.55-6.76 5.29-13.64 10.1-19.15.25 6.58-2.82 12.55-4.62 18.71-2.24 7.96-4.77 16.09-4.19 24.46.14 4.08 2.07 8.25 5.54 10.52l1.9-.08c4.15-2.95 6.94-7.39 10.91-10.57-.32 9.14-3.45 18.99-11.09 24.59-6.11 2.62-12.83-2.9-13.92-8.89-1.56-13.39.74-27 5.37-39.59ZM1360.12 215.94c2.8-8.01 5.3-16.74 11.86-22.59-1.69 11.45-7.32 21.93-8.59 33.46-.07 4.67-.87 9.59.81 14.08.89 1.96 2.23 4.61 4.83 4.21 5.31-.78 7.8-6.2 11.32-9.58.31 9.43-3.1 20.31-12.11 24.74-5.71 1.73-11-3.8-11.76-9.12-1.13-11.79-.46-23.99 3.64-35.2ZM1560.3 205.23c12.98-4.99 26.9-6.93 39.82-12.12-1.47 7.47-6.38 14.21-12.42 18.69-11.45 4.82-23.82 7.06-35.41 11.56-20.2 7.91-40.65 15.19-60.91 22.96-19.81 7.39-38.97 16.32-58.32 24.79-14.45 6.82-29.25 12.98-43.02 21.12-8.78 5.01-17.51 10.26-27.01 13.82-24.99 9.79-45.83 27.75-71.05 37.04.04-3.98 1.01-7.87 2.66-11.48 2.03-4.44 3.55-9.34 7.09-12.87 2.24-2.36 5.47-3.25 8.29-4.7 9.73-4.85 19.05-10.5 28.97-14.96 17.43-9.06 34.93-18.01 52.76-26.25 33.93-15.7 68.65-29.54 103.12-43.96 21.27-9.32 43.64-15.7 65.43-23.64ZM412.16 203.39c10.57-3.93 21.48-6.98 32.62-8.81-2.83 5.2-5.54 11.63-11.77 13.4-22.28 6.03-43.57 15.07-65.28 22.79-4.1 1.15-5.61 5.53-6.9 9.13-3.75 11.98-8.35 24.22-7.36 37 .01 3.3 1.59 6.47 3.78 8.87 6.24.11 9.41-5.99 13.04-10.02.73 8.04-2.16 16.14-7.27 22.3-2.91 3.49-8.45 3.43-11.95.88-2.97-1.94-4.19-5.48-4.94-8.77-1.65-6.93-.34-14.07.6-21 1.94-11.5 7.33-21.97 11.49-32.75-6.98.41-13.2 3.8-19.55 6.36-15.23 6.94-30.48 13.87-45.22 21.82-7.15 3.93-14.05 8.42-21.76 11.22-17.54 6.44-31.77 19.45-49.43 25.64.65-6.32 2.42-13.46 7.57-17.61 43.46-24.03 88.86-44.4 134.8-63.18 15.51-6.64 31.53-11.96 47.53-17.27ZM146.81 204.36c3.15.02 6.59-.31 9.35 1.51 6.28 4.13 12.61 8.28 18.07 13.48 2 9.8-5.18 17.77-10.11 25.38-10.15-2.61-16.9-11.44-26.48-15.2-2.82 6.49-6.04 12.9-10.67 18.32-8.76-6.19-17.82-11.95-26.3-18.53 2.37-8.59 6.51-16.56 11.29-24.04 10.82 1.03 18.06 9.93 26.92 15.13 2.67-5.34 5.41-10.64 7.93-16.05ZM2187.13 209.04c1.35-2.7 4.29-3.87 6.86-5.12.26 6.5-2.74 12.4-4.72 18.42 4.19 5.3 9.82 9.49 12.97 15.58 2.36 4.33 1.52 9.39 1.65 14.11.04 5.62-1.31 11.45-5.04 15.8-5.02 6.25-13.96 9.9-21.75 7.1-5.37-2.55-7.28-9.31-6.59-14.82 2.9-17.73 8.35-35.1 16.62-51.07m-4.82 30.22c-2.74 6.6-7.32 14.42-2.85 21.33 4.39-.18 8.8-1.03 12.7-3.18 3.24-1.35 6.01-3.97 6.45-7.61-4.87-4.3-10.25-8.13-16.3-10.54ZM273.87 205.78c5.6-3.46 13.9.71 14.44 7.26 1.25 8.13-2.19 16.07-6.57 22.72-5.37 8.07-11.89 15.85-20.76 20.17.9-5.49 5.15-9.33 8.63-13.32 5.05-5.82 10.44-12.8 9.09-21.03-4.87-.36-9.76-.03-14.61.4 1.77-6.05 3.78-13.03 9.78-16.2ZM1593.36 220.41c1.53-2.26 4.12-3.31 6.72-3.82-.42 6.16-4.2 11.49-4.88 17.51 3.72 7.06 12.65 11.34 13.9 19.89.33 7.52 1.24 15.67-2.35 22.6-4.2 6.6-11.72 11.54-19.78 10.66-5.52.46-10.17-4.88-9.94-10.19-.24-12.29 3.47-24.19 7.43-35.68 2.59-7.12 4.51-14.67 8.9-20.97m-6.06 32.7c-2.03 5.93-4.55 12.43-2.1 18.64 6.59.87 12.85-2.12 17.84-6.21-1.29-7.28-8.38-12.83-15.74-12.43ZM2005.3 216.64c8.91 4.81 17.58 10.22 25.1 17.04 1.82 1.52 1.01 4.25.43 6.19-2.82 6.98-6.34 13.69-10.62 19.89-10.05-2.43-16.56-11.27-25.82-15.29-3.4 6.12-6.72 12.31-10.79 18.02-9.29-5.24-17.39-12.29-26.51-17.77 1.25-9.23 6.96-16.83 10.53-25.2 6.18-.29 10.89 3.9 15.59 7.25 3.47 2.52 6.88 5.13 10.31 7.72 4.98-5.22 7.36-12.21 11.78-17.85ZM2116.05 249.98c.52-6 3-11.76 7.05-16.24 1.97.02 3.97-.05 5.99.13 1.46.74 2.59 2.02 3.87 3.06-.05 2.93-.07 5.85-.07 8.78-3.57-1.12-7.23-2.04-10.96-2.27-1.88 8.04-5.1 15.99-4.44 24.4-.14 5.41.85 11.43-2.33 16.19-.84 1.41-1.72 2.78-2.55 4.17-5.4-8.15-9.5-17.05-14.53-25.4-5.38 1.43-11.35 3.27-16.7.83-3.21-1.67-6.35-4.74-6.01-8.65.08-5.78 6.07-11.86 12.03-9.48 11.53 6.48 18.42 18.44 23.52 30.21 1.15-.01 2.33-.01 3.55-.01-.39-8.61.89-17.15 1.58-25.72ZM1903.66 256.72c2.85-7.64 5.21-15.89 11.24-21.73-1.05 12.41-7.96 23.52-8.59 36-.13 3.63-.21 7.27.13 10.88.75 3.63 4.72 5 7.5 6.82 3.44-4.07 6.82-8.22 10.63-11.96-1.1 7.76-3 15.66-7.4 22.27-2.64 4.08-8.98 6.19-12.96 2.85-5.07-4.77-6.34-12.2-6.11-18.86.86-8.92 2.76-17.76 5.56-26.27ZM957.36 239.92c7.53 2.76 13.99 7.66 20.43 12.32 2.45 2.23 5.37 4.57 6.67 7.59-2.28 7.26-6.96 13.5-9.29 20.75 7.09 4.48 14.24 8.95 20.52 14.55-.23 10.01-6.36 18.35-12.09 26.05-9.53-5.04-18.36-11.31-26.61-18.2 2.65-7.65 5.86-15.09 9.17-22.47-6.4-5.4-13.23-10.26-20.2-14.88 1.31-9.5 6.76-17.57 11.4-25.71ZM1790.24 265.25c1.38-9.14 6.72-16.85 10.71-24.97 3.31.44 6.66 1.32 9.35 3.42 5.98 4.37 12.82 7.77 17.77 13.4 2.14 8.9-6.44 15.35-8.33 23.49 7.87 4.57 15.84 9.33 21.86 16.3-3.18 8.55-7.12 16.95-12.96 24.03-6.31-1.91-11.1-6.58-16.47-10.12-3.64-2.48-7.27-4.96-10.8-7.56 2.18-8.04 6.85-15.06 9.66-22.86-6.71-5.35-13.86-10.09-20.79-15.13ZM637.44 256.94c9.88 2.84 17.59 9.93 25.56 16.05 3.28 2.87 1.74 7.71.05 11.04-2.62 5.68-6.04 10.94-9.59 16.07-9.62-3.3-16.28-11.69-25.68-15.41-3.29 6.15-6.44 12.43-10.79 17.92-9.14-5.88-18.05-12.14-26.72-18.7 2.18-8.57 7.11-16.01 10.83-23.94 2.74.27 5.69.28 8.12 1.79 6.72 3.91 12.55 9.13 18.97 13.48 3.42-5.93 6.06-12.25 9.25-18.3ZM1097.72 271.86c1.33-1.57 2.71-3.08 4.13-4.58 3.14 8.27 5.88 16.68 8.89 25 3.41 9.35-.75 19.56-7.02 26.65-3.26.09-6.51.07-9.76.07-2.67-2.61-5.36-5.21-7.77-8.07-2.87 4.32-5.73 8.97-10.2 11.81-2.97.6-6.11.85-9.06.12-3.21-.69-4.95-3.8-6.36-6.47-3.2-6.7-.93-14.27-1.97-21.33-1.18-4.36-4.81-8.3-3.74-13.07.89-2.2 2.27-4.96 4.97-5.17 1.66-.26 3.35-.34 5.06-.48.13 6.9-.02 13.79-.24 20.68-.26 5.16 2.07 10.46 6.6 13.16 4.7-1.21 9.53-3.77 11.52-8.47 1.98-3.7.67-7.98-.3-11.77-1.83-6.02-1.78-12.37-1.42-18.58 1.8-.14 3.62-.26 5.46-.34 1.39 4.53 3.17 9.04 3.3 13.84.15 6.01.32 12.4 3.34 17.77 2.46 3.17 6.85 3.47 10.56 3.54.73-1.36 1.46-2.71 2.21-4.06-2.02-5.96-5.89-11.13-7.6-17.21-.95-4.28-.47-8.7-.6-13.04ZM734.19 291.09c3.08-7.74 6.05-15.85 12.08-21.86 4.24 6.2-1.28 12.72-2.88 18.78 5.49 6.3 12.88 11.64 15.25 20.04 1.32 6.49.57 13.46-2.01 19.56-2.42 5.86-7.54 10.34-13.4 12.55-3.7 1.15-7.63 1.04-11.45 1.1-2.11-2.25-4.52-4.36-5.88-7.17-.84-5.01-.69-10.18.28-15.16 1.96-9.47 4.62-18.79 8.01-27.84m2.81 13.84c-3.63 5.79-4.94 12.67-4.47 19.44 7.73 3.62 15.51-1.89 20.48-7.5-4.21-5.26-9.66-9.6-16.01-11.94ZM1170.16 274.9c4.22.96 8.19 2.78 11.71 5.3 5.06 3.55 10.75 6.37 14.99 10.98 2.2 2.41 1.17 5.94-.02 8.58-2.63 5.65-5.75 11.06-8.97 16.38-3.75 1.07-7.65-1.24-10.72-3.29-6.26-4.62-13.08-8.53-18.72-13.93 3.58-8.16 7.69-16.08 11.73-24.02ZM1495.19 276.2c2.38-1.29 5.58-.89 7.36 1.25 2.94 3.29 2.77 8.12 1.24 12.01-2.91-1.46-5.72-3.06-8.59-4.56-2.63 4.27-4.53 9.02-5.24 14.01-1.02 5.94.22 11.99-.63 17.95-.56 4.34-1.92 8.52-3.53 12.58-4.38-.64-6.23-4.88-7.76-8.45-2.48-5.35-5.52-10.4-8.85-15.25-5.53 1.24-11.97 3.85-17.15.24-3.71-2.05-5.24-6.18-6.16-10.07 3.13-3.24 5.87-8.65 11.19-7.94 4.42.05 7.35 3.92 10.33 6.68 7.43 6.99 11.09 16.73 16.3 25.28 3.69-11.57 2.31-24.02 5.57-35.69.86-3.29 2.9-6.37 5.92-8.04ZM1953.91 306.9c10.13-3.98 20-8.97 30.72-11.23-.23 2.36-.24 4.76-.78 7.08-3.8 4.95-9.69 7.44-15.21 9.9-23.14 10.61-46.66 20.4-69.52 31.61-7.88 3.41-14.51 9.23-22.69 11.95.32-8.64 6.52-15.9 13.98-19.67 20.93-10.36 41.98-20.52 63.5-29.64ZM135.66 412.45c3.25-5.12 10.46-6.49 15.73-3.87 11.22 5.33 21.68 13.32 27.8 24.33 1.64 4.44 1.18 9.39.55 14-1.25 4.27-4.34 7.63-7.07 11.02-5.65-.06-11.21-1.08-16.81-1.63-2.96.31-4.61 3.11-6.46 5.1-8.79 10.73-20.26 18.88-32.14 25.88-10.86 6.65-23.14 10.34-34.85 15.15-3.43 1.46-7.05 2.43-10.76 2.8 3.79-5.97 10.56-8.71 16.45-12.07 19.48-11.69 39.86-22.31 56.93-37.53-4.44-2.29-8.74-4.89-12.61-8.06-.1-6.55-.94-13.36 1.59-19.6 2.05-4.96.39-10.43 1.65-15.52m1.74 23.7c3.62 3.9 10.18 7.19 14.88 3.13-.36-3.61-1.12-7.16-1.95-10.68-2.14-.18-4.27-.34-6.41-.46a58.337 58.337 0 0 0-6.52 8.01m21.87-5.68c-.25 4.24-.32 8.49-.27 12.75 4.3.63 8.92 3.05 13.07.57-1.43-6.32-6.34-11.94-12.8-13.32ZM314.51 441.14c-.79-6.59 1.06-14.78 7.97-17.37.59 5.39 1.05 10.84.58 16.26-.58 5.46-3.49 10.25-6.06 14.97-5.96.67-11.94-.15-17.78-1.33-4.88 3.03-9.22 7.63-15.2 8.31-6.46 1.02-12.67-1.59-18.99-2.36-13.69.87-24.98 9.8-34.29 19.12-9.95 9.37-18.71 20.73-31.41 26.52-4.25 1.96-8.98 2.97-13.66 2.48 10.27-8.13 22.58-13.77 31.36-23.73 10.87-12.69 21.03-26.77 35.82-35.2 6.65-3.55 14.63-6.43 22.1-3.83 5.36 1.93 11.14 1.83 16.74 1.46 3.9-4.82 7.48-9.88 10.8-15.11 1.04-.13 2.09-.25 3.14-.36-.39 3.26-.7 6.53-.93 9.8 3.27.01 6.54.23 9.81.37ZM1503.74 442.19c1.88-1.82 3.43-4.49 6.44-4.33 1.12 2.68 2.74 5.27 2.95 8.24-.98 7.6-3.31 15.2-7.84 21.46-5.98.18-11.99-.32-17.77-1.85-4.72 3.58-9.46 7.88-15.58 8.63-7.87 1.34-15.26-4.48-23.07-2.13-14.39 3.4-25.45 13.97-35.5 24.19-5.83 5.46-10.85 11.84-17.42 16.47-5.93 4.04-12.87 6.53-19.97 7.52 1.61-2.17 3.45-4.22 5.78-5.64 8.41-5.35 17.06-10.73 23.55-18.44 12.02-13.23 23.01-28.36 39.19-36.81 9.06-4.01 19.33-2.42 28.59.07 3.63 1.03 7.35-.9 9.61-3.71 3.22-3.99 6.02-8.3 9.23-12.31 1 3.09 2.04 6.18 3.51 9.09 2.58.63 5.25.84 7.93.86.04-3.77.04-7.55.37-11.31ZM1806.71 468.86c3.22-9.94 5.94-20.76 13.66-28.31-2.59 14.92-10.37 28.98-9.62 44.41.55 3.37 2.29 6.37 4.01 9.28 5.07-.61 9-4.04 12.88-7.05.4 8.19-3.03 17-10.18 21.44-5.66 2.39-12.7-2.61-12.76-8.64.02-10.38-1.38-21.1 2.01-31.13ZM506.66 444.19c-1.2 13.33-8.79 25.29-8.75 38.82-.11 4.59-.31 10.6 4.18 13.32 6.26 1.03 9-5.97 13.32-9.05.99 5.51-1.55 10.66-3.61 15.59-1.85 4.06-4.94 8.4-9.74 8.91-5.47 1-9.37-4.35-10.9-8.89-2.47-16.72 2.16-33.61 8.9-48.81 1.51-3.71 4.08-6.83 6.6-9.89ZM967.77 456.7c1.58-3.95 3.89-7.62 6.87-10.67-.69 12.78-8.05 24.1-8.59 36.9-.34 4.69-.39 10.17 3.28 13.67 1.57 1.95 4.44 1.2 6.22-.03 3.34-2.48 5.22-6.3 7.73-9.52.48.51 1.43 1.53 1.91 2.04-2.42 6.51-3.32 13.76-7.47 19.5-2.99 4.19-9.64 6.23-13.84 2.67-3.52-2.56-3.86-7.19-4.47-11.12-1.12-6.09.67-12.13.95-18.2.52-8.87 4.07-17.13 7.41-25.24ZM1580.18 455.19c8.52-7.17 23.52-7.14 29.99 2.71 2.11 5.14-.22 10.91-3.35 15.12-4.16 5.43-8.61 10.64-12.88 15.98-2.21 2.74-3.28 6.21-3.12 9.72 12.48 3.5 26.39 2.27 37.76-4.09 8.16-4.53 14.66-11.4 20.93-18.18 4.13-4.02 7.88-8.71 13.01-11.49-.35 5.92-5.13 9.73-8.6 13.99-7.67 8.96-15.31 18.25-25.26 24.79-7.04 4.53-15.11 7.79-23.55 8.11-4.41.13-8.84.18-13.24-.12-3.32-.14-5.62-2.85-8.11-4.68-.64-9.23 1.79-19.17 8.53-25.82 4.22-4.15 8.1-8.66 11.41-13.57-3.03-2.53-6.33-4.81-10.12-6-4.69-1.74-9.54.54-14.3.73.2-2.42.51-4.82.9-7.2ZM1155.2 493.18c30.38-15.11 60.98-30.07 93.14-41.05-.25 3.15.78 7.02-1.66 9.56-5.77 5.37-13.57 7.44-20.54 10.71-16.06 7.79-32.61 14.48-48.72 22.14-8.66 4.15-17.37 8.32-25.34 13.71-3.67 2.43-7.61 4.48-11.82 5.79 1.27-8.85 7.11-16.68 14.94-20.86ZM2093.13 462.16c3.77-3.22 7.83-6.74 12.92-7.48 5.47-.44 9.39 5.42 8.92 10.5-1.16.97-2.47 1.72-3.69 2.54-3.8-1.51-7.88-4.24-12.08-2.83-1.92 1.73-3.11 4.06-4.48 6.19 4.38 3.1 9.76 5.2 15.2 4.37 7.23-.46 12.94-5.7 19.9-7.08.89.59 3.28.46 3 2.07-4.54 5.01-9.92 9.37-16.1 12.16-5.02 2.53-10.72 4.23-14.64 8.46-1.94 2.12-1 5.26-1.35 7.85 8.83 4.29 18.87 3.04 28.33 2.71 8.94-1.58 16.49-7.02 24.26-11.37 10.02-6.22 19.88-12.79 28.88-20.45 1.52.15 3.08.3 4.67.45-9.64 10.11-21.15 18.11-32.28 26.46-7.49 5.35-15.46 10.42-24.46 12.76-9.61 2.19-19.54 2.89-29.37 2.25-4.24-.42-7.51-3.47-10.53-6.17-1.97-1.22-1.25-3.71-.94-5.58 1.42-5.08 5.14-9.16 6.47-14.3-3.49-2.31-7.3-4.13-10.64-6.62-1.06-6.71 3.22-12.7 8.01-16.89ZM678.92 460.78c2.96-1.51 7.12-3.35 9.94-.63 4.85 3.77 3.6 10.51 3.65 15.88.01 4.77-2.87 8.75-5.28 12.63-6.84.22-12.31-4.34-17.76-7.79-4.98 1.45-7.63 6.3-11.9 8.9-12.87 8.93-28.54 12.3-43.75 14.74-6.86 1.17-13.84 2.71-20.8 1.46 8.35-4.87 18.06-6.34 26.91-10 9.35-3.91 19.11-6.76 28.52-10.53 5.32-2.12 11.19-3.47 15.57-7.39 5.6-5.21 7.76-13.63 14.9-17.27m-1.92 7.97c-.03.87-.08 2.63-.1 3.5 2.69 1.68 5.55 3.08 8.57 4.08l-.12-5.48c-1.56-1.26-3.14-2.48-4.72-3.69-1.22.52-2.43 1.05-3.63 1.59ZM1931.98 487.8c1.39-9.26 7.05-16.92 10.81-25.27 6.1.49 10.89 4.55 15.82 7.74 4.25 2.91 8.36 6.04 12.12 9.59-.4 9.86-6.59 17.96-12.14 25.61-9.21-5.37-17.5-12.15-26.61-17.67ZM1292.24 470.74c8.37.31 14.48 6.58 21.05 10.94 2.98 2.42 7.44 4.91 7.02 9.38-2.18 7.79-6.75 14.63-11.1 21.36-6.32-.57-10.95-5.18-15.83-8.69-3.21-2.37-6.57-4.53-10.07-6.4-3.53 5.99-6.88 12.08-10.76 17.85-9.36-5.02-17.66-11.7-26.59-17.38.98-9.45 6.38-17.46 10.67-25.67 10.88 1.1 17.71 10.5 26.83 15.33 3.09-5.48 5.89-11.13 8.78-16.72ZM1107.5 476.34c3.19.14 6.63-.14 9.53 1.51 6.99 4.07 13.4 9.1 19.26 14.66a65.258 65.258 0 0 1-10.82 22.72c-6.7.36-11.75-4.33-16.87-7.89-3.02-2.2-6.01-4.44-9.05-6.6-4.13 5.41-6.85 11.68-10.38 17.47-7.45-1.03-12.43-7.16-18.6-10.81-3.06-2.46-7.24-4.29-9.32-7.51 2.38-7.58 6.21-14.63 10.22-21.47 4.04-1.56 8.44-.19 11.8 2.27 5.03 3.35 9.92 6.94 14.65 10.71 4.64-3.98 6.64-9.89 9.58-15.06Z"/></svg>