<svg width="1798pt" height="313pt" viewBox="0 0 1798 313" xmlns="http://www.w3.org/2000/svg"><g fill="#2f2e2c"><path d="M75.1 22.12c4.11-2.43 8.93-4.86 13.83-3.67 2.8.85 3.11 4.25 2.74 6.7-1.26 9.81-5.45 19.11-11.7 26.74-.38 5.7-.89 11.41-2.73 16.87 2.46 2.19 7.73 3.84 6.25 8-.89 2.87-2.54 5.42-3.95 8.05-2.08-1.88-4.21-3.71-6.43-5.42-4.62 6.53-9.91 12.6-16.4 17.33-13.45 10.81-28.82 19.11-44.99 25.05-3.97 1.27-7.29 4.73-11.72 3.99v-.39c16.26-11.01 33.28-20.88 49.4-32.11 6.92-4.72 13.49-9.99 19.53-15.8-3.01-2.04-5.92-4.24-8.43-6.89-1.98 5.15-4.82 10.3-9.54 13.4-2.16 1-4.88 1.16-7.07.16-3.63-3.19-3.63-8.63-3.25-13.08 2.35-20.82 17.08-38.28 34.46-48.93m3.37 7.58c-9.6 3.27-17.48 10.22-23.82 17.95-3.63 4.7-7.28 9.63-8.93 15.42-.87 3.34-1.59 7.46.98 10.26 3.07 2.13 6.78-.52 9.27-2.39 4.24-3.7 2.07-9.99 4.69-14.48 2.67-4.87 6.72-9.62 12.27-11.15 2.51-.82 4.3 1.41 6.18 2.62 3.18-4.47 7.17-9.24 7.15-14.99-.56-3.64-4.86-4.33-7.79-3.24M65.46 60.52c1.9 2.9 5.09 4.53 7.97 6.26.29-2.99.63-6.08-.15-9.03-.46-1.86-2.62-3.05-4.32-1.89-1.87.59-5.28 2.32-3.5 4.66ZM129.32 20.45c1.19-1.56 3.36-3.52 5.4-2.17 4.13 2.24 5.11 8.26 2.03 11.8-1.72-1.54-3.11-3.39-4.77-4.98-4.38 4.06-4.17 10.45-5.53 15.83-1.23 4.9-1.09 10.56-4.7 14.49-1.28-7.65-3.39-15.35-7.24-22.12-1.27-.13-1.97 1.19-2.93 1.76-2.7-1.18-4.67-3.35-6.09-5.88 1.33-2.73 2.67-5.47 4.36-8.01 4.51.87 7.45 4.68 9.14 8.69 2.4 4.5 2.84 9.63 3.92 14.53 2.26-7.9 2.28-16.6 6.41-23.94ZM186.53 18.3c2.66-1.47 6.53-.47 7.6 2.51 2.78 6.77.16 14.07-1.23 20.85 3.94 2.21 6.2 6.91 4.38 11.26-3.12 8.06-5.61 16.42-6.57 25.04-.1 3.61.47 7.64 3.06 10.36 1.76 1.15 4.12.48 5.33-1.14 1.81-2.3 2.96-5.04 4.62-7.45-.06 5.27-1.9 10.28-3.64 15.19-1.18 3.1-4.43 6.42-8.02 5.21-3.75-1.3-5.36-5.49-5.58-9.14-1-11.04 3.39-21.46 6.11-31.93 1.26-2.95-1.98-5.35-4.47-6.02-2.56 2.8-4.87 5.85-7.79 8.3-11.61 10.21-24.98 18.16-38.46 25.62-12.3 6.65-24.93 12.68-37.71 18.33-3.82 1.64-7.47 3.74-11.54 4.74 2.18-3.77 6.39-5.44 10.05-7.4 23.65-11.5 46.57-24.63 67.85-40.13 4.9-3.7 9.74-7.56 13.79-12.2-4.93-2.94-10.51-6.99-10.69-13.31.6-7.88 5.75-15.33 12.91-18.69m-6.26 14.57c1.78 3.24 5.4 4.89 8.26 7.04.5-3.15 1.37-6.54.11-9.61-1.72-3.81-8.81-1.06-8.37 2.57Z"/><path d="M234.29 18.32c.31-.01.93-.04 1.25-.05 4.23 12.23 6.04 25.15 8.3 37.86 1.05 7.06 1.72 14.17 2.45 21.28 11.66-7.86 23.81-15.35 33.17-26.02-5.14-3.13-11.06-7.69-10.73-14.38.76-5.78 4.06-11.04 8.21-15.04 2.66-2.66 6.67-4.51 10.43-3.31 2.06.92 2.44 3.38 2.87 5.33.95 6.25-.64 12.49-2.12 18.52 2.54 1.68 4.8 3.72 6.86 5.95-1.17 3.62-2.45 7.27-4.63 10.43-2.36-1.68-4.36-3.8-6.62-5.6-9.14 13.44-22.58 23.22-36.57 31.14 1.21 19.56 3.59 39.02 4.97 58.56.53 7.05 2.01 13.98 3.44 20.89 1.62 6.02 3.55 12.16 7.4 17.17 3.34 3.96 7.49 7.12 11.64 10.18-3.52-11.55-4.3-24.11-.97-35.79 4.25-12.71 18.4-20.25 31.38-18.11 30.63 5.15 59.7 18.29 91.04 19.41 1.47.23 3.95-.19 4.57 1.58-1.27 5.39-3.79 10.41-5.69 15.6-1 2.93-4.61 2.07-6.99 2.39-10-.06-19.07 4.63-27.88 8.8-19.65 9.46-38.31 21.31-59.31 27.7-4.72 1.64-9.71 2.1-14.63 2.67-1 2.58-.72 6.96-4.09 7.61-1.01-2.64-1.43-5.46-1.53-8.28-6.67-2.78-13.32-5.89-18.97-10.46-5.15-4.27-9.16-9.78-12.09-15.77-3.98-9.05-4.59-19.06-5.35-28.78-1.94 8.24-4.39 16.59-9.74 23.33-3.85 5.4-9.36 9.24-15.18 12.23-1.18 11.15-4.43 22.42-11.38 31.4-4.61 5.74-10.24 10.55-16.02 15.06-16.68 12.54-35 22.73-53.59 32.13-6.47 3.66-13.96 4.46-21.06 6.18-12.66 3.15-25.36 6.11-38.02 9.23-9.62 1.86-19.15 5.13-29.07 4.49 29.59-14.15 60.39-25.61 89.9-39.95 17.83-8.57 35.15-18.25 51.59-29.27 6.69-4.93 14.01-9.65 18.51-16.83 2.09-3.27.82-7.16.17-10.65-9.28 1.66-18.92 2.58-28.23.64-5.02-.91-9.89-4.01-12.01-8.77-3.57-13.36 3.27-28.1 14.88-35.2 4.57-2.54 10.54-2.74 14.94.27 8.16 5.61 13.61 14.24 17.91 22.98 6.55-1.5 12.41-5.51 17-10.34 3.91-4.2 5.65-10.05 5.33-15.72-.57-20.38-1.7-40.74-3.55-61.04-5.88 2.59-11.74 5.22-17.62 7.82-1.76.84-3.71 1.1-5.62 1.32 1.48-1.55 3.1-2.98 4.94-4.1 5.88-3.7 11.67-7.53 17.61-11.12-1.03-11.02-2.03-22.05-3.94-32.96-.51-5.97-2.64-11.97-1.18-17.96.95-4.93 1.52-10.04 3.62-14.65m41.48 15.86c1.95 2.83 5.1 4.47 8.02 6.13.47-3 1.26-6.23-.03-9.14-1.32-4.25-10.09-1.16-7.99 3.01m1.83 131.37c-.68 1.29-1.65 2.86-.97 4.35 3.3 8.18 6.13 16.54 9.14 24.84 5.73.43 11.56.15 17.12-1.41 16.96-4.67 32.57-12.95 48.66-19.89 2.08-.89 4.07-1.96 6-3.12-19.3-5.54-38.47-12.25-58.51-14.53-8.31-1.33-17.04 2.61-21.44 9.76m-96.48 5.58c-3.07 1.68-2.14 6.7 1.08 7.71 5.99 2.48 12.75 1.55 18.96.47-3.31-3.76-6.63-8.21-11.75-9.47-2.8-.43-5.76.01-8.29 1.29ZM395.01 20.95c1.72-2.72 5.55-3.51 8.4-2.25 2.83 1.7 3.11 5.44 2.78 8.39-.75 5.82-3.82 11-7.09 15.76 15.18-7.46 30.87-13.82 46.76-19.57 5.78-1.84 11.41-4.26 17.42-5.3-.69 3.4-1.02 8.11-5.18 8.97-20.2 6.13-39.44 14.97-58.56 23.84-12.71 6.31-25.77 12.26-37.04 21-.89-4.1.85-8.74 4.49-10.94 7.25-4.9 14.82-9.33 22.63-13.28 1.88-.99 4-1.85 5.2-3.74 2.61-3.63 5.53-7.35 6.39-11.85.66-2.43-1.79-4.91-4.23-4.27-1.69.55-3.28 1.38-4.89 2.1.41-3.09.96-6.32 2.92-8.86ZM480.06 26.89c5.7-3.98 11.73-8.9 19.07-8.75 3.61-.24 5.43 3.92 4.59 6.97-1.83 9.55-4.9 19.55-12.11 26.46.21 5.83-.56 11.66-2.4 17.21 2.17 1.69 4.89 2.94 6.4 5.33.32 3.94-2.41 7.35-4.19 10.68-2-1.92-4.09-3.74-6.36-5.34-3.03 3.86-5.8 7.95-9.38 11.33-9.59 8.74-20.42 16.07-31.88 22.12-8.3 4.46-17.17 7.67-25.76 11.48-1.83.85-3.82 1.24-5.78 1.59 2.82-3.89 7.58-5.46 11.34-8.23 19.49-12.85 40.35-24.09 57.33-40.33-3.13-1.98-6.13-4.19-8.53-7.03-1.73 5.46-5.01 10.68-9.89 13.82-2.63.79-6.48 1.22-8.14-1.51-1.91-3.51-2.12-7.7-1.71-11.6 1.79-17.94 13.34-33.57 27.4-44.2m10.38 2.8c-8.94 3.01-16.36 9.32-22.49 16.34-4.04 4.86-7.86 10.08-10.02 16.07-1.09 3.58-2.15 8.12.66 11.21 3.14 2.15 6.89-.47 9.41-2.43 3.89-3.25 1.94-8.83 3.96-12.98 2.52-5.55 6.91-10.87 12.96-12.6 2.5-.78 4.37 1.35 6.15 2.71 2.97-4.55 7.08-9.1 7.19-14.81-.32-3.81-4.81-4.65-7.82-3.51M477.5 60.66c1.78 2.42 4.68 4.84 7.49 5.39 1.63-3.28 1.01-8.27-1.77-11.01-2.34.99-7.6 1.97-5.72 5.62ZM536.9 23.95c1.09-2.68 2.74-6.04 6.08-6.14 4.64 1.52 6.53 8.53 3 11.86-1.91-.69-3.17-3.35-5.01-4.58-6.27 8.27-4.05 19.52-8.55 28.54-.51.58-1.04 1.14-1.59 1.67-.9-7.83-3.54-15.3-6.98-22.34-1.03.64-2.03 1.32-3.08 1.9-2.56-.91-5.24-3.02-5.58-5.87.8-2.79 2-6.03 4.58-7.57 4.09.65 6.45 4.34 8.21 7.72 2.34 4.73 3.23 9.99 4.49 15.08 1.07-6.83 2.39-13.65 4.43-20.27ZM568.08 21.09c1.75-2.72 5.58-3.68 8.5-2.42 2.71 1.71 3.3 5.26 2.91 8.22-1.18 8.1-5.98 15.06-11.43 20.94 15.66-8.56 31.57-16.68 47.84-24.01 4.75-2.04 9.49-4.15 14.46-5.61-.51 2.4-1.15 4.76-1.9 7.09-8.46 2.86-16.43 6.98-24.51 10.74-21.1 10.24-42.01 20.92-62.3 32.71-9.02 5.2-17.83 10.8-26.1 17.14.27-3.69.35-8.26 3.91-10.44 13.24-8.31 26.96-15.86 40.67-23.39 3.84-2.03 6.03-5.96 8.68-9.23 2.69-3.9 6.34-8.19 5.47-13.27-2-3.58-6.28-1.09-8.88.24.66-2.95.92-6.15 2.68-8.71ZM678.96 18.95c1.51-.55 3.11-.69 4.71-.87-.21 3.97-1.71 8.13-5.28 10.24-6.32 3.46-13.36 5.31-19.92 8.26-3.02 9.61-5.66 19.41-6.81 29.44-.25 3.44-.02 7.28 2.08 10.16 1.24 1.89 4.39 2.23 5.89.47 2.35-2.29 3.62-5.39 5.58-7.99-.91 6.18-1.99 12.73-5.48 18.04-2.02 3.57-7.68 4.13-10.11.76-3.69-6.57-3.41-14.5-1.87-21.65 1.1-10.08 5.05-19.52 9.11-28.71C619.61 52.26 583.07 69.28 548 89c-9.77 5.84-20 11.24-28.37 19.08 4.87 4.96 12.39 4.27 18.74 5.26.4 3.79-1.27 7.25-3.06 10.47-6.79-.73-15.7-1.03-19.41-7.8-2.2-7.54.57-16.44 7.18-20.91 13.98-10.2 29.25-18.44 44.49-26.57 36.04-18.86 73.42-35.04 111.39-49.58ZM722.99 36.99c1.09-6.78 3.2-13.5 6.73-19.42-1.52 7.14-4.2 14.12-4.47 21.48-.09 2.31.98 5.92 3.87 5.64 2.1-1.39 3.05-3.85 4.56-5.79-.56 3.42-1.34 6.83-2.69 10.03-.95 2.4-4.12 4.42-6.34 2.29-3.07-4.03-2.44-9.55-1.66-14.23ZM749.4 18.41l1.33-.36c4.08 7.03 5.69 15.11 7.42 22.96 1.61 10.6 3.55 21.22 3.6 31.98 1.06 14.01.87 28.08 1.67 42.11 1 18.95.98 37.98 3.32 56.83 1.53 9.21 2.91 18.64 7.13 27.08 3.19 6.21 9.05 10.42 14.65 14.31-4-6.19-7.58-12.84-8.81-20.19-1.09-9.47.31-19.31 4.6-27.87 5.02-9.76 14.62-16.85 25.26-19.3 14.8-2.95 30.7-.12 43.41 8.09 3.9 2.69 8.18 5.25 10.72 9.39-4.47-.01-8.43-2.22-12.65-3.31-14.49-3.94-29.9-1.62-44.03 2.69-6.35 1.86-12.42 4.7-17.74 8.66-.34 12.01 5.33 23.34 12.85 32.39 8.28 9.95 22.31 15.69 35.07 12.28 13.11-3.65 24.68-11.3 35.49-19.36 3.74-2.61 6.7-6.4 11.12-7.95-1.1 5.59-3.61 10.74-6.02 15.86-1.69 3.93-5.65 6.04-8.75 8.71-12.22 9.83-25.56 18.98-40.94 22.96-8.12 2.55-16.72 2.57-25.14 2.17-6.82-.14-12.9-3.61-18.87-6.53-9.59-4.65-17.41-12.76-21.75-22.48-3.38-8.07-3.88-16.88-4.99-25.44-2.42-21.3-2.36-42.75-3.32-64.14-.9-16.32-1.52-32.65-2.56-48.96-.52-6.72-1.99-13.31-3.09-19.94-.82-5.21-3.09-10.03-4.36-15.12.26-6.17 3.04-11.9 5.38-17.52Z"/><path d="M770.48 17.5c12.11 10.5 16.03 28.07 12.92 43.38 7.52-5.22 15.51-9.71 23.65-13.88 3.12-1.39 4.71-4.62 6.7-7.21 2.34-3.45 5.38-7.68 3.58-12.02-2.51-2.19-5.34.22-7.8 1.22.71-2.92.98-6.13 2.99-8.52 1.69-2.33 5.13-2.95 7.67-1.76 2.24 1.7 2.89 4.73 2.52 7.39-.92 6.57-4.5 12.36-8.52 17.48 15-7.72 30.74-13.89 46.54-19.78 6.19-2.03 12.26-4.49 18.65-5.86-.3 2.12-.54 4.26-1.17 6.31-.88 1.99-3.29 2.43-5.09 3.2-16.64 4.9-32.48 12.11-48.28 19.19-9.8 4.48-19.48 9.23-29.01 14.27-2.19 6.15-3.61 12.53-5.03 18.89-1.07 5.34-2.22 10.93-.93 16.34.74 2.53 3.01 5.58 6.02 4.58 3.36-2.06 4.61-6.04 6.94-9.03-.06 4.26-1.53 8.28-2.7 12.32-.85 3.1-2.46 6.2-5.19 8.03-2.99 1.47-7.29.41-8.43-2.97-2.55-6.02-2.39-12.81-1.24-19.14.97-9.71 4.4-18.96 8.49-27.74-5.62 2.66-10.44 6.62-15.7 9.86.65-6.02 2.83-11.99 1.76-18.11-.9-10.67-7.16-19.8-13.47-28.06-.27-3.08 2.83-5.64 4.13-8.38ZM1049.71 22.57c1.54-2.42 4.28-4.01 7.16-4.12 7.06-.55 14.2-.52 21.25.2 3.12.56 6.63.91 9.03 3.21 1.37 1.97 0 4.39-.97 6.22-3.67 6.41-7.57 12.83-12.88 18.02-3.42 3.45-8.27 4.64-12.66 6.36-5.29 1.6-10.52 3.37-15.82 4.91 3.29-4.04 7.99-6.48 12.35-9.18 5.86-3.43 11.78-6.77 17.3-10.72-1.54-2.36-4.54-2.24-6.99-2.62-3.47-.29-6.94-.49-10.4-.63-4.61-.24-9.19.91-13.78.24 2.08-3.99 3.93-8.13 6.41-11.89ZM1168.91 18.85c2.88-1.77 5.72.98 7.12 3.33 2.2 3.17 1.55 7.41-.33 10.57-3.32.41-3.63-6.03-7.4-4.44-2.79 2.83-3.31 7.07-4.39 10.74-1.28 7.25-2.28 14.56-4.58 21.59 9.52-3.56 19.19-6.71 28.8-10.03 3.8-1.36 8.57-1.81 10.68-5.77 3.03-4.59 8.21-10.12 5.33-15.95-2.85-1.61-5.82.33-8.4 1.49.76-4.05 1.27-9.08 5.24-11.36 2.45-1.22 6.13-1.49 7.9 1.01 1.88 2.15 1.77 5.23 1.52 7.9-1.23 6.91-4.89 13.11-9.21 18.54 28.29-9.83 57.08-18.19 85.85-26.5 3.11-.9 6.26-1.79 9.54-1.85-.28 5.6-3.88 10.74-9.39 12.24-10.49 3.57-21.48 5.54-32.01 9.04-2.65 6.93-4.05 14.26-5.16 21.56-.11 2.83.65 7.09 4.01 7.64 2.7-1.01 3.89-4.02 5.73-6.08-.74 4.5-1.6 9.25-4.44 12.96-1.29 1.69-3.91 1.78-5.64.81-2.2-2.16-2.67-5.45-2.95-8.38-.1-9.81 3.16-19.22 6.97-28.14-32.93 9.58-65.41 20.63-97.72 32.11-2.81 8.54-4.8 17.33-6.29 26.19-.44 4.26-.72 9.4 2.71 12.6 1.15 1.26 3.3 1.42 4.62.3 2.65-2.22 3.93-5.57 5.95-8.31-.12 4.94-1.73 9.65-3.34 14.26-.73 1.97-1.88 3.8-3.44 5.21-2.8 2.39-7.9 1.58-9.34-1.96-2.66-5.94-2.36-12.72-1.42-19.02.93-9.91 4.57-19.27 8.51-28.32-22.77 7.84-45.18 16.72-67.45 25.89-13.12 5.6-26.25 11.25-38.79 18.07-3.36 1.92-6.81 3.76-9.78 6.26.57 1.01 1.36 1.94 2.43 2.48 5.22 2.97 11.35 3.25 17.15 4.21-.08 3.92-1.43 7.63-3.67 10.83-6.27-.42-12.89-1.57-17.95-5.54-3.43-2.71-3.69-7.47-3.04-11.45 1.04-4.99 3.31-10.15 7.84-12.91 12.88-8.55 27.34-14.31 41.38-20.64 3.31-2.66 5.57-6.38 8.18-9.69 3.33-4.68 7.1-9.5 7.99-15.34.59-2.57-1.38-5.61-4.18-5.42-2.89-.26-5.24 1.71-7.69 2.86.7-4.87 1.44-10.31 5.36-13.77 2.95-2.23 7.79-3.09 10.54-.04 3.4 3.16 2.58 8.3 2.15 12.43-2.46 10.33-8.74 19.27-16.24 26.62 22.38-9.67 45.42-17.73 68.26-26.22-1.89-8.41-4.24-16.95-8.61-24.43-1.6.56-2.97 2.38-4.78 1.76-2.82-1.37-4.59-4.09-6.08-6.73 1.69-3.37 3.04-6.99 5.68-9.79 6.31 1.62 9.76 7.66 11.9 13.34 2.17 4.77 2.27 10.13 4.18 14.99.84-5.52 1.43-11.1 3.02-16.48 1.43-5.37 2.23-11.85 7.17-15.27Z"/><path d="M1300.63 40.03c-2.31-8.81 3.68-17.89 11.42-21.73 3.11-2.05 7.41.02 8.22 3.52 1.16 6.24.18 12.72-1.98 18.64 2.78 2.29 6.22 5.43 4.96 9.47-3.14 9.08-6.85 18.28-6.72 28.06.21 2.98.66 6.67 3.56 8.29 1.46.94 3.01-.16 4.04-1.22 2.04-2.25 3.17-5.14 4.9-7.62-.43 4.35-1.35 8.67-2.8 12.8-1.06 2.77-2.44 5.81-5.36 7.02-3.15 1.16-6.49-1.31-7.43-4.28-2.26-5.74-1.14-12.02-.02-17.87 1.13-6.72 4.01-13.01 5.15-19.72-1.23-1.57-2.86-2.75-4.37-4-10.97 13.4-26.2 22.3-40.97 30.88-12.55 7.07-25.56 13.29-38.7 19.16-4.48 1.76-8.59 4.59-13.43 5.3 4.52-5.21 11.27-7.33 17.15-10.53 20.59-10.33 40.5-22.09 59.11-35.68 4.49-3.48 9.06-7.01 12.68-11.43-3.53-2.53-7.72-4.8-9.41-9.06m6.62-6.3c1.97 2.19 4.6 3.63 7.08 5.18.21-2.94.72-5.94.08-8.85-1.33-4.82-11-.28-7.16 3.67Z"/><path d="M1347.57 20.82c.58-1.08.76-2.72 2.27-2.9 4.4 9.04 7.45 18.7 11.16 28.04 1.87 6.11 5.37 11.9 4.9 18.51-4-1.4-6.28-5.18-9.32-7.88 1.44 23.42 4.18 46.92 2.19 70.4-.47 14.29-3.84 29.3-13.66 40.2 20.06 3 40.17 5.8 60.41 7.31-2.73-39.17-5.58-78.33-7.93-117.52-.22-5.94-.11-12.01-1.98-17.73-.36-1.38-1.09-2.69-1.05-4.14.93-4.97 2.98-9.62 4.87-14.28.55-1.18.81-2.87 2.43-2.99 4.35 9.12 7.44 18.78 11.15 28.16 1.86 6.12 5.55 12.08 4.64 18.68-3.48-2.13-6.13-5.27-9.08-8.03 1.4 26.15 3.99 52.23 5.42 78.38 1.01 13.39 2.35 26.76 2.73 40.18 6.55.68 13.27-.38 19.71 1.3-3.06 6.01-5.98 12.09-9.31 17.95-3.26.2-6.52.23-9.76.28-.62 11.7-2.48 23.43-6.81 34.36-.99 2.82-2.31 5.51-4.07 7.92-1.22-4.63.39-9.37.29-14.07.89-9.13.43-18.3-.11-27.43-7.32 1.19-14.96 1.41-21.94 3.96-2.67 6.58-4.6 13.51-5.78 20.51-.89 6.41-1.04 13.63 3.04 19.06 3.04 4.43 8.91 6.1 14.04 5.18 8.44-1.47 15.63-6.69 21.74-12.44 9.69-9.35 18.22-19.8 27.69-29.35-1.51-10.44-1.87-21.01-2.43-31.54-1.87-31.94-2.06-63.95-3.49-95.9-1.25-12.9-2.84-25.95-7.64-38.09-.78-1.61-.05-3.37.33-4.99 1.36-4.64 2.79-9.33 5.14-13.6.31-.01.93-.02 1.24-.03 4.83 8.5 6.3 18.36 8.21 27.81 4.17 27.45 3.02 55.32 4.42 82.96.25 21.44.75 42.96 4.3 64.15 16.73-13.6 35.18-25.51 55.68-32.55-2.42-5.13-6-9.92-6.57-15.72-.62-6.12.71-12.73 4.91-17.43 4.89-5.69 13.69-6.68 20.26-3.51 7.75 3.46 14.85 8.34 21.29 13.83 3.02 3.07 7.46 6.73 6.12 11.59-1.28 4.8-2.76 9.57-4.65 14.17-9.11 3.46-18.67 5.74-27.84 9.05.12 3.37.26 6.91-1.6 9.88-2.4-1.94-3.45-4.79-4.14-7.68-11.57 4.34-22.79 9.61-33.74 15.31-9.32 4.74-17.67 11.08-25.46 17.99 3.14 8.79 11.14 14.44 18.78 19.13 7.06 4.28 15.47 4.82 23.49 5.48 24.95 2.03 50.51.32 74.35-7.68 12.17-3.96 23.85-9.42 34.8-16.04 9.64-5.5 15.16-15.38 22.14-23.59 4.98-7.38 11.04-14.99 19.76-17.98 5.51-2.13 11.87.56 15.16 5.24 4.59 6.45 6.28 14.49 6.57 22.29.27 8.38-.66 17.19-5.18 24.46-1.09 1.54-2.67 3.14-4.68 3.08-15.46.23-29.56-7.62-41.41-16.88-7.55 15.75-22.2 26.76-37.69 34-25.44 12.19-54.22 15.84-82.14 13.42-1.63 5.57-2.62 11.29-3.82 16.96-.8 4.18-1.06 9.04 1.75 12.56 1.14 1.58 3.76 1.61 5.11.25 2.09-2.1 3.13-4.98 5.06-7.23-.44 4.27-1.68 8.4-2.96 12.47-1.14 2.91-3.11 6.72-6.85 6.16-4.19.66-5.89-4.01-6.4-7.31-1.34-11.68 1.62-23.45 6.25-34.11-10.34-.35-20.56-3.01-29.62-8.02-10.98-5.12-19.69-14.65-23.82-26.03-7.41 7.52-14.42 15.41-21.53 23.21-5.1 5.3-9.86 11.19-16.4 14.79-5.66 3.53-12.96 4.22-19.22 2.02-7.77-3.27-13.47-10.48-16.08-18.35-4.17-13.23-.54-27.33 4.15-39.9-18.49 5.55-34.72 16.37-52.26 24.13-11.63 5.04-24.79 5.55-37.18 3.62-7.03-1.47-13.99-5.03-18.19-11.02-2.03-2.72-3.07-5.98-4.42-9.04-3.25 7.03-6.33 14.59-12.58 19.55-5.95 5.15-15.12 6.08-22.06 2.52-7.15-4.1-9.24-12.68-10.46-20.22-5.79 9.37-13.9 17.55-23.75 22.6-5.87 3.21-12.82 3.47-19.3 2.53-4.95-.87-9.74-3.68-12.19-8.16-2.44-4.76-2.72-10.19-3.5-15.37-4.52 1.81-6.87 6.41-10.15 9.72-7.3 8.78-17.22 16.14-28.82 17.57-7.57.89-16.11-.15-21.88-5.58-4.74-4.56-6.2-11.28-7.6-17.44-1.12-6.92-1.67-13.92-2.71-20.85-1.1-6.88-1.35-13.96-3.64-20.6-.61-1.59-1.08-3.4-2.55-4.41-2.04.62-1.85 3.08-2.37 4.75-1.81 8.32-3.55 17.65-10.25 23.54-3.45 3.31-8.47 2.27-12.72 1.86-.02 13.62.06 27.66-5 40.53-1.66 3.75-3.87 7.3-6.9 10.09-9.4 8.79-19.78 16.53-30.89 23.04-15.29 9.12-32.01 16.14-49.61 19.21-13.98 1.8-29.04 2.09-41.83-4.72-13.69-7.04-22.65-20.88-27-35.29-3.18-16.79-.91-34.44 5.04-50.38-3.38-2.07-5.41-5.64-5.91-9.51-1.99-11.4 1.51-22.71 5.08-33.41 3.26-8.91 6.48-17.87 10.75-26.36 1.74-3.4 3.6-6.81 6.35-9.52-1.38 4.71-3.78 9.02-5.55 13.58-5.08 12.37-9.94 25.06-11.36 38.46-.35 4.47.34 9.31 3.06 13 1.08 1.59 3.31 2.08 4.91.94 3.94-2.35 5.55-6.86 8.4-10.23-.35 7.06-2.65 14.13-6.89 19.82-1.58 2.24-4.25 3.15-6.7 4.03-1.24 8.18-4.37 16.06-4.37 24.42-.58 11.83 4.74 23.38 12.76 31.86 8.67 9.2 21.37 13.83 33.85 14.06 27.99 1.24 54.99-9.87 78.11-24.83 8.27-5.51 16.29-11.51 23.36-18.53 1.69-1.95 3.91-3.9 4.35-6.54.03-12.12-3.73-23.93-9.04-34.71-1.14-2.57-2.9-5.32-1.86-8.22 1.51-5.12 2.58-10.4 4.8-15.27 4.22 3.3 4.23 9.8 9.01 12.52 3.67 2.13 8.11 2.62 12.26 2.01 5.79-1.34 9.12-7.04 10.52-12.41 1.52-5.35.93-11.01 2.22-16.39.5-1.93 1.7-4.53 4.13-4.2 3.33.6 4.85 3.98 6.05 6.77 5.36 14.39 6.35 29.84 8.83 44.88 1.16 6.22 2.48 13.44 8.1 17.27 4.05 3.04 9.39 2.76 14.19 2.59 9.57-.38 18.85-4.49 25.88-10.94 5.23-4.75 10.19-9.79 15.23-14.75 1.57-1.5 3.53-3.33 5.9-2.33.51 3.82-1.83 7.49-1.32 11.38.24 5.8 5.08 10.23 10.35 11.89 8.83 2.67 18.7 1.34 26.66-3.27 10.11-5.28 15.72-15.88 24.69-22.57 1.05 3.77-1.68 7.16-1.73 10.86.79 4.42 3.18 8.67 6.84 11.34 4.37 2.7 9.86 1.79 14.46.2 8.26-3.49 13.93-10.99 18.13-18.64 1.46-2.57 2.47-6.25 6.11-6.15-.16 5.69-1.47 11.96 2.06 17 3.68 5.61 11.22 5.41 17.15 6.05 19.59 1.69 38.78-4.64 56.01-13.44 3.83-1.92 7.59-3.96 11.43-5.88-11.85-2.19-23.86-3.34-35.78-5.04-10.91-1.62-22.19-1-32.87-3.91 2.36-4.5 4.43-9.15 6.97-13.56.89-1.83 3.08-2.24 4.8-2.97 13.39-4.18 27.16-7.42 40.02-13.13 3.98-1.62 4.15-6.28 4.24-9.95.78-26.9-1.14-53.78-3.36-80.57-.75-8.22.27-16.93-3.56-24.55 1.33-5.15 3.07-10.2 5.26-15.05m163.9 120.82c1.74 5.4 4.52 10.38 6.9 15.52 6.3-1.32 12.25-3.9 18.2-6.32-1.72-1.89-3.73-3.55-6.08-4.57-5.93-2.74-12.32-5.65-19.02-4.63m127.55 50.58c7.2 4.58 15.02 9.55 23.81 9.66-.15-7.93-7.14-16.55-15.66-15.08-3.45.29-6.78 2.14-8.15 5.42Z"/><path d="M1472.62 24.85c-.86-2.5 1.36-4.56 2.37-6.66 2.04 4.59 2.85 10.63 7.88 13.03 4.4-4.27 7.57-10.05 13.26-12.85 1.96-1.17 4.2-.36 6.26.11 2.56 5.41.65 12.25-3.9 15.99-4.43 3.6-10.27 4.86-15.85 5.04-.92 1.68-1.93 3.31-3.08 4.82.07-1.79.23-3.58.48-5.37-.94-.92-1.88-1.84-2.77-2.78-1.81 3.22-3.89 7.53-8.2 7.46-2.61.3-4.48-2.06-6.93-2.29-3.34.31-5.36 3.06-7.35 5.39-.66-5.17 1.53-11.08 6.6-13.18 2.38-1.24 4.41 1.15 6.64 1.68 2.14.35 4.68.31 6.38-1.29.69-3.14-1.25-6.07-1.79-9.1m12.85 7.2c4.91-.13 10-1.62 13.81-4.81 1.58-2-1.74-3.22-3.3-3.01-4.42 1.01-7.79 4.39-10.51 7.82ZM1522.37 26.61c.79-3.15 1.19-7.35 4.74-8.64 2.77-1.69 6.46.86 6.39 3.96.48 5.91-2.87 11.19-6.14 15.8 8.88-3.99 17.95-7.54 27.01-11.12 8.78-3.2 17.44-6.85 26.57-8.99-.54 3-.33 7.31-3.83 8.55-4.84 1.97-9.98 3.06-14.81 5.06-26.81 10.48-53.11 22.33-78.77 35.38-3.69 12.14-6.59 24.5-8.54 37.04-.58 4.68-.02 9.78 2.64 13.79 1.39 2.24 4.63 3.88 7.02 2.11 4.12-2.73 5.75-7.68 8.56-11.54-.22 6.25-1.97 12.32-4.02 18.19-1.16 3.24-2.87 6.4-5.51 8.66-3.78 2.45-10 1.79-11.96-2.67-4.53-9.04-3.67-19.6-1.81-29.22 1.6-12.27 5.98-23.97 11.1-35.16-7.34 3.81-14.51 7.93-21.23 12.76.06-3.84.57-8.41 4.22-10.59 15.4-10.4 32.34-18.26 49.16-26.07 3.46-1.72 7.33-2.8 10.48-5.11 3.13-3.74 6.66-8.11 5.84-13.33-2.5-.54-4.86.15-7.11 1.14ZM1667.37 22.13c1.32-2.58 4.44-5.85 7.54-4.1 5 2.98 6.6 10.3 2.56 14.76-2.41-1.04-3.12-4.16-5.45-5.39-1.61-.35-2.37 1.3-3.16 2.3-5.43 11.2-3.21 24.9-10.17 35.48-1.47-4.44-1.56-9.21-3.2-13.61-1.96-5.15-3.28-10.66-6.67-15.12-1.35.94-2.44 3.27-4.32 2.28-2.78-1.41-5.09-3.85-6.19-6.77 1.01-3.41 2.64-6.68 4.82-9.5 3.39-.85 6.36 1.61 8.29 4.13 5.32 6.91 6.97 15.71 8.79 24.02 2.1-9.54 3.01-19.53 7.16-28.48ZM1714.78 18.33c1.48-.37 1.83 1.69 2.64 2.55 5 9.45 9.56 19.12 13.79 28.94 1.62 4.35 3.89 8.66 3.62 13.45-3.84-1.71-6.4-5.12-9.48-7.81-.35 13.3 2.59 26.39 3.43 39.62 1.49 11.56 2.99 23.12 4.09 34.73 1.88 13.32 2.74 26.74 3.4 40.16.38 18.99-3.04 38.64-13.5 54.81-6.67 10.08-15.16 19.24-25.81 25.15-6.94 3.93-14.77 5.79-22.36 7.99-2.03 7.62-4.81 15.22-4.77 23.2.24 2.39 1.17 5.8 4.25 5.5 2.51-1.37 3.33-4.33 4.9-6.55-.32 4.07-1.31 8.15-3.12 11.82-1.27 2.63-5.04 3.14-7.2 1.43-1.79-2.33-2.06-5.45-2.1-8.28 0-9.39 3.13-18.49 7.24-26.82-8.66 1.67-17.15 5.06-26.11 4.45 4.01-4.23 9.63-6.26 14.42-9.43 10.45-6.21 20.83-12.56 31.2-18.92 8.64-5.36 16.15-12.37 22.82-20.01 4.32-5.11 8.56-10.65 10.3-17.23 1.01-3.6.62-7.38.45-11.06-2.11-38.17-7.73-76.01-11.81-113.99-1.64-10.99-.46-22.52-4.62-33.02-.47-1.59-1.27-3.24-.62-4.9 1.37-5.33 2.52-10.8 4.95-15.78ZM1757.7 17.69c2.3 2.69 3.32 6.15 4.63 9.39 3.47 8.98 6.86 18 10.19 27.04 1.11 3.48 2.38 7.04 2.16 10.76-3.94-1.61-6.55-5.04-9.38-8.03 1.13 23.4 3.67 46.73 4.99 70.12 1.14 17.33 2.84 34.63 3.41 51.99.77 11.38.43 22.91-1.69 34.14-2.04 8.24-3.85 16.91-8.84 23.97-1.06-4.02.05-8.09.32-12.11 1.07-14.64.14-29.33-.87-43.94-.56-13.68-1.82-27.32-2.83-40.98-1.14-23.73-3.65-47.36-4.69-71.1-1.29-10.98 0-22.36-3.87-32.92.93-6.46 3.95-12.38 6.47-18.33ZM357.74 23.04c.69-2.35 2.44-5.44 5.36-4.64 2.92 1.83 5.85 4.91 5.4 8.64-.04 1.55-.04 3.49-1.67 4.27-1.25-1.33-2.43-2.74-3.93-3.78-2.05-.94-2.68 1.61-3.11 3.01-1.66 7.02-.8 14.29-.95 21.43-.14 3.35.09 6.97-1.7 9.97-1.34-.45-1.11-2.44-1.73-3.53-2.31-6.92-6.03-13.33-10.13-19.33-1.35 2.95-1.9 6.48-4.68 8.51-6.94 5.65-15.71 8.23-23.71 11.97-6.48 2.58-12.79 6.22-19.87 6.68 3.2-2.72 7.03-4.51 10.7-6.5 11.09-6.02 22.44-11.63 33.04-18.52-2.06-1.51-4.5-2.88-5.62-5.29.49-3.29 1.7-6.4 2.7-9.56 5.99.21 9.84 5.39 12.6 10.1 2.48 4.13 3.86 8.75 5.7 13.16.25-8.85-.8-17.94 1.6-26.59ZM693.28 24.1c.96-2.16 1.43-4.93 3.59-6.23 5 11.6 9.46 23.42 13.75 35.3 1.23 3.79 2.68 7.59 2.78 11.63-4.15-1.32-6.73-4.97-9.73-7.86-.4 12.36.83 24.67 1.07 37.02 2 30.08 3.13 60.27 7.6 90.13 1.24 6.05 2.06 12.21 3.92 18.12 7.36-2.01 15.08-4.26 22.76-2.87 7.37 1.51 12.14 8.55 13.62 15.53 2.2 9.16 1.96 19.83-3.82 27.68-3.36 4.85-9.9 6.33-15.37 4.68-10.85-2.97-18.63-12.39-23.23-22.23-10.88 6.4-22.38 12.77-35.13 14.17-6.58.36-13.32-1.78-18.47-5.89-4.55-3.84-6.98-9.67-7.68-15.48-7.18 11.33-18.34 21.06-31.82 23.59-9.16.5-19.35 1.37-27.32-4.13-8.69-5.7-12.25-15.92-17.92-24.14-1.93-2.84-5.2-5.58-8.87-4.38-9.94 2.54-16.31 11.47-21.65 19.6-6.88 12.83-10.3 27.38-18.52 39.51-3.28 4.43-7.95 9.13-13.92 8.69-6.05-.14-10.82-4.79-13.95-9.56-5.2-8.23-8.27-17.65-10.08-27.16-1.19-9.58-.79-19.28-.2-28.89.32-5.82 2.34-11.32 3.35-17.02-6.69-.29-11.01-6.21-12.8-12.09-3.2-11.01-2.34-22.76-.08-33.87 4.17-18.2 10.79-35.71 17.69-53.03 3.97-9.42 8.04-18.89 13.65-27.48 1.27-2 2.77-3.88 4.64-5.36-1.33 4.67-3.45 9.05-5.4 13.48-8.29 19.28-16.11 38.9-20.69 59.43-1.75 10.06-3.41 20.78.18 30.64 1.74 3.63 4.84 8.73 9.67 6.92 7.55-3.23 10.56-11.48 14.95-17.79.39 9.69-2.9 19.23-7.4 27.69-2.47 4.78-6.1 9.17-11.2 11.23-2.03 14.04-3.14 28.38-.79 42.45 1 7.04 2.83 14.43 7.82 19.76 4.64 4.94 13.56 5.85 18.44.79 6.3-5.75 8.7-14.21 12.36-21.65 3.78-7.87 6.92-16.08 11.49-23.55 4.95-7.77 10.87-15.26 18.78-20.17 4.5-2.82 10.94-3.8 15 .33 7.11 7.45 10.01 18.26 18.43 24.62 7.27 5.8 17.17 5.74 25.98 4.93 7.94-1.2 16.01-3.95 21.98-9.52 5.72-5.75 10.85-12.07 16.72-17.67 2.23 2.7.02 6-.29 8.96-1.36 5.27 1.25 11.22 6.06 13.77 5.11 2.78 11.27 2.37 16.83 1.52 9.32-1.98 17.87-6.46 26.07-11.19-4.41-18.42-5.97-37.34-8.24-56.1-1-12.01-1.88-24.04-3.07-36.04-.25-5.53-1.21-11.13-.22-16.65-.36.43-.7.86-1.02 1.3.11-11.84-.91-23.65-.97-35.49-.28-8.36.69-17-2.22-25.03-2.11-5.1 1.33-10.19 2.89-14.95m30.89 196.05c3.35 4.19 8.26 7.37 13.77 7.46 2.01.12 5.37.28 5.37-2.6-.92-3-4-4.5-6.75-5.4-4.08-1.05-8.37-.49-12.39.54ZM957.22 30.24c1.21-4.16 3.73-9.89 8.77-10.02 3.58 1.44 7.02 3.43 9.96 5.96.04 1.95-.94 3.71-1.54 5.51-4.45.67-9 1.01-13.24 2.57-2.19.89-4.71 3.35-3.08 5.81 3.4 9.53 7.06 20.79 1.8 30.32l-1.68 1.18c.08-3.52 1.19-6.95 1.03-10.48-.53-6.58-3.03-12.76-4.52-19.14-1.21-4.46 1.16-8.98 4.27-12.05 2.45-1.1 5.07-1.86 7.35-3.33-1.44-.21-2.86-.26-4.27-.14-1.63 1.27-2.76 3.23-4.85 3.81ZM922.56 20.58c7.25 4.78 10.3 16.32 3.46 22.73.21-3.41 1.47-6.91.42-10.29-1.48-3.15-3.98-5.66-6.4-8.09.81-1.46 1.65-2.91 2.52-4.35ZM1008.67 32.98c-.83-3.61.83-7.13 3.42-9.58 2.55 14.19 4.49 28.47 6.93 42.68.61 2.72.27 5.5-.77 8.07-.61-.18-1.82-.55-2.43-.73-2.24-13.5-5.15-26.9-7.15-40.44Z"/><path d="M988.16 28.25c2.08 1.62 1.35 4.39 1.67 6.66 1.07 1.01 2.92 1.51 3.29 3.09-.28 2.62-1.33 5.25-.5 7.88 1.85 7.62 5.01 15.94 2.03 23.65-1.4 3.69-5.44 3.48-8.43 2.1-2.22 3.41-6.47 5.47-10.22 3.1-4.86 3.41-11.19 5-17.01 3.54-5.45 3.18-13.73 3.26-17.26-2.74-2.58-6.15-2.22-13.07-3.37-19.58-1.91 6.75-4.54 13.69-10.02 18.37-8.69 8.6-21.28 11.07-33.03 11.79 1.58-2.2 4.19-3.15 6.59-4.18 7.92-3.1 15.92-6.27 23.04-11.01 4.78-3.18 8.71-8.15 9.48-13.96.78-6.63.25-13.33-.62-19.92-.49-2.93.88-5.65 2.15-8.18 2.23 3.66 3.69 7.76 4.39 11.98 1.42 8.72 2.31 17.51 3.39 26.27.41 3.15 2.72 6.67 6.21 6.65 2.72.08 5.55.13 8.19-.69 2.57-1.07 4.36-3.34 6.52-5.02-.03 1.84-.14 3.68-.16 5.52 3.11-.73 6.29-1.46 9.12-3.01 2.21-1.04 1.27-5.75 4.13-5.4.39 1.42.56 2.89.85 4.34 1.48-.01 2.96-.03 4.46-.07.46-1.87 1-3.72 1.6-5.56 2.62 1.4 5.3 3.13 8.43 2.62-.49-5.6-2.17-10.99-3.67-16.37-1.09-3.72-1.11-7.68-2.58-11.29-1.43-3.5.34-7.2 1.33-10.58Z"/><path d="M906.84 44.12c-5.68-2.05-5.21-9.61-3.17-14.15 9.8 4.16 19.59 10.12 25 19.61 2.84 4.92 2.37 10.9 1.08 16.21-.65.26-1.97.76-2.63 1.01 2.3-7.46-2.09-14.53-7.23-19.53-3.33-3.79-8.91-1.09-13.05-3.15ZM144.69 34.71c2.45-3.5 9.08-3.51 10.64.84 1.28 5.18 0 10.62-2.49 15.23-3.6 7.01-8.81 13.69-15.86 17.46 4.6-6.77 11.1-12.56 13.49-20.62.72-1.83-.21-3.62-.89-5.29-2.92-.42-5.66.52-8.18 1.91.61-3.3 1.01-6.88 3.29-9.53ZM882 42.7c.76-3.38 2.11-7.8 5.97-8.65 3.36 1.01 5.65 4.11 7.17 7.12.6 2.52.23 5.19-.34 7.68-3.01.23-4.52-3.3-6.94-4.61-.99 1.08-2.36 2.02-2.48 3.6-2.16 9.91-.45 20.1-1.25 30.12-.18 2.6-1.02 5.09-2.21 7.39-3.25-9.5-7.57-18.74-13.55-26.84-1.72 3.15-2.07 7.15-5.11 9.46-7.03 6.03-16.05 8.88-24.36 12.66-8.66 3.38-16.96 8.48-26.4 9.25 1.15-1.02 2.37-1.98 3.69-2.79 15.51-8.9 31.88-16.32 46.8-26.24-1.89-1.37-3.93-2.62-5.4-4.46-1.82-2.14.03-5.03.34-7.43.74-1.78.66-4.74 3-5.23 5.13.55 8.85 4.65 11.58 8.67 3.93 5.5 6.04 11.96 8.33 18.24.83-9.27-.39-18.71 1.16-27.94ZM1596.28 46.97c.4-4.58-1.04-9.58 1.33-13.78 8.51 5.75 16.39 12.4 24.65 18.52 2.76 2.42 6.6 4.08 7.89 7.79-4.54.44-9-.52-13.37-1.53 6.06 9.75 14.15 18.01 21.92 26.39 11.95 12.35 24.34 24.26 36.48 36.42 13.28 12.94 26.18 26.74 34.91 43.25 5.06 9.79 8.53 21.02 6.64 32.11-.94 5.48-1.31 11.05-2.67 16.45-2.95-6.84-2.17-14.55-4.52-21.56-5.24-17.25-17.04-31.51-29.32-44.31-12.68-12.63-25.96-24.66-38.69-37.25-11.75-11.74-23.27-23.99-31.61-38.47-3.63-5.88-6.43-12.58-12.1-16.87-2.4-1.55-1.28-4.79-1.54-7.16ZM1567.19 45.96c.41-4.19 2.46-8.42 6.87-9.54 5.73 1.91 4.57 8.96 2.61 13.28-2.81 5.78-6.86 11.6-12.79 14.45 4.06-5.78 10.33-10.88 10.73-18.44-2.34-1.92-4.99-.65-7.42.25ZM980.17 45.01c3.2.07 1.93 4.36 1.09 6.26-1.17 2.96-4.68 2.82-7.3 3.16-2.06.15-4.48 1.29-6.2-.39-1.37-3.62 1.03-7.32 4.27-8.88-.19 2.01-.32 4.02-.37 6.04 1.97-1.88 2.98-4.63 5.46-5.99.15 1.68.31 3.37.47 5.05.87-1.74 1.46-3.63 2.58-5.25ZM104.61 48.52c.14.13.4.38.53.51-1.87 5.86-3.91 11.71-4.78 17.83-.88 5.02-2.74 10.67.25 15.37.8 2 3.85 2.22 5.12.61 1.73-1.95 2.89-4.3 4.45-6.37-.55 4.53-1.74 9.02-3.5 13.23-1.35 3.1-5.3 5.37-8.33 3.03-2.83-3.1-3.3-7.69-3.31-11.73.79-11.35 4.09-22.5 9.57-32.48ZM1684.22 59.1c1.76-4.01 2.96-8.42 5.9-11.79-2.32 8.91-5.36 17.67-6.65 26.82-.93 5.03-2.08 10.42.08 15.32.68 2 2.42 3.49 4.52 3.89 4.36-1.5 5.66-6.42 8.26-9.74-.8 6.53-2.03 13.41-5.73 18.99-1.93 3.27-6.79 3.77-9.6 1.42-3.58-4.83-3.88-11.16-3.55-16.94.91-9.58 3.07-19.06 6.77-27.97ZM1000.89 65.03c-.36-2.82 1.01-5.61 3.4-7.12 1.1 6.36 1.27 12.84 2.71 19.14 1.64 7.2 1.7 14.94 5.57 21.46 1.02 2 3.07 3.06 4.9 4.22-1.27-2.96-2.7-6.18-1.64-9.45 2.02-5.56 6.89-10.95 13.2-11.03 4.44.2 7.61 4.42 7.56 8.72-3.39-1.37-6.73-4.17-10.6-3.11-2.75.51-4.84 2.44-6.87 4.18 1.19 4.56 4.91 9.04 9.88 9.25 4.47-.79 7.18-4.84 10.61-7.43-.11 1.58.49 3.46-.65 4.78-5.23 6.95-14.39 10.61-22.98 9.79-4.05-.35-6.37-4.06-8.17-7.24-1.5 2.99-2.4 6.8-5.77 8.26-3.07.98-5.7-1.6-8.29-2.82-7.6 6.53-18.19 7.36-27.74 8.35-9.32.66-19.57 1.09-27.75-4.17-5.12-3.22-6.89-9.34-8.09-14.89-2.18 1.63-4.22 3.93-7.12 4.07-3.31-.24-6.49-1.42-9.51-2.7-.98-2.35.85-4.66 2.45-6.21 4.03-2.37 8.74-3.36 12.72-5.91-.32-2.73.4-5.44 1.56-7.91l1.48-.04c3.33 6.61.31 14.63 3.95 21.17 3.49 7.05 11.91 9.69 19.25 10.09 11.58.28 23.68.4 34.54-4.21 2.15-.88 3.84-3.87 6.42-2.68 2.71 1.13 5.23 2.84 8.27 3.03 1.19-6.58-.65-13.13-1.26-19.66-.58-6.66-1.31-13.29-2.03-19.93m-82.38 28.65c2.84.96 5.98 1.62 8.93.71 2.31-1.26 1.9-4.18 2.13-6.38-3.53 2.2-7.39 3.75-11.06 5.67ZM1530.59 67.54c.99-1.54 2.31-3.41 4.38-3.39 2.38-.19 3.87 2.14 4.94 3.94 1.65 2.99.25 6.39-.99 9.23-1.63-1.62-2.75-3.88-4.86-4.92-1.64-.39-2.14 1.6-2.86 2.6-3.71 8.95-2.69 19.38-7.4 27.94-.26-.07-.78-.21-1.05-.29-1.07-7.48-3.34-14.9-6.89-21.58-1.06-2.2-3.2 1.67-4.87.42-2.1-1.27-4.25-3.21-4.76-5.68.93-3.07 2.75-5.79 4.51-8.45 5.46 1.47 8.51 6.59 10.36 11.56 1.77 4.09 2.25 8.55 3.14 12.88 2.25-8.03 2.47-16.71 6.35-24.26ZM1582.32 71.38c1.55-2.81 4.17-5.71 7.68-5.51 3.58.63 5.91 3.94 6.94 7.2.07 2.55-1.14 5.09-2.86 6.93-2.32-1.42-3.45-4.27-6.01-5.34-3.3.34-4.19 4.24-5.4 6.76-3.32 9.88-4.26 20.36-6.86 30.44 6.32 2.13 12.44 6.07 15.73 12.04-1.29 2.54-2.29 5.27-3.99 7.57-6.81 2.34-14.51 2.8-20.36 7.39 2.85 10.25 4.3 20.81 6.03 31.28.67 12.45 3.6 25.63-1.1 37.61-.96-5.21-.46-10.52-.71-15.77-.87-11.36-3.09-22.54-4.55-33.83-1.28-7.89-4.05-16.12-1.66-24.08 1.96-5.54 7.89-7.75 13.1-9.09-1.74-1.4-3.8-3.24-6.18-2.28-1.95 1.66-3.52 3.69-5.34 5.46.25-5.76 1.18-12.38 6.36-15.87-2.17-8.08-4.63-16.08-7.61-23.9-.73-1.96-1.82-3.74-3.12-5.35-1.13.86-2.24 1.71-3.33 2.57-3.08-1.49-6.6-3.23-8.01-6.52.63-3.37 3.1-6.18 5.22-8.8 3.36-.43 6.69 1.07 8.93 3.56 5.73 6.01 8.41 14.24 9.73 22.29 2.38-8.27 3.55-16.96 7.37-24.76ZM403.54 74.64c1.12-2.77 2.78-6.52 6.31-6.48 2.71 1.16 4.29 4.04 4.85 6.81-.07 2.07-1.16 3.91-1.84 5.82-1.82-1.5-2.89-4.73-5.61-4.55-6.36 8.72-3.09 21.03-9.49 29.78-1.35-7.93-3.43-15.89-7.57-22.86-.61.58-1.83 1.74-2.43 2.33-2.58-1.14-4.86-2.98-6.09-5.56.77-3.11 2.62-5.77 4.28-8.46 5.07 1.23 8.12 5.87 9.79 10.49 1.59 4.02 2.46 8.25 3.39 12.45 1.2-6.64 2.46-13.3 4.41-19.77ZM330.34 118.93c-1.44-16.18 3.69-32.35 11.49-46.36-.98 6.95-4.08 13.39-5.06 20.35-1 6.61-4.04 13.73-.83 20.2.83 2.2 3.61 4.26 5.86 2.67 2.99-2 4.22-5.65 6.41-8.39-.42 5.43-1.92 10.75-4.12 15.73-1.38 3.08-4.53 6.04-8.18 5.04-3.8-1.24-5.25-5.64-5.57-9.24ZM616.53 92.87c-.6-4.08 1.12-8.1 3.63-11.24.75 3.19 1 6.48 1.71 9.68 2.04 6.1 5.18 12.15 4.96 18.73-.71 4.8-1.87 9.88-5.06 13.69-1.88 2.49-5.83 2.48-8.15.63-2.86-2.08-4.07-5.57-5.32-8.73-1.49 4.48-3.27 9.71-8.03 11.64-3.6 1.87-8.13-.26-9.71-3.79-3.24-6.66-1.91-14.27-2.25-21.41-1.95-1.42-4.29-3.3-3.04-6.03 1.34-3.07 3.26-7.04 6.73-7.82 4.43 7.28-2.15 15.93 1.25 23.5.84 2.41 2.57 5.63 5.62 5.15 4.3-1.18 7.4-5.43 7.82-9.79-.48-5.46-1.76-10.82-2.92-16.17.56-2.55 1.17-5.11 2.45-7.42 1.19.41 1.89 1.25 2.12 2.5 2.13 6.8 2.97 13.94 3.3 21.04.13 3.84 3.14 7.88 7.32 7.51 2.12.26 3.13-1.78 4.26-3.17-2.79-5.93-5.77-11.94-6.69-18.5ZM1195.35 86.32c3.07-3.21 9.38-3.86 12.08.16 2.74 4.73 1.62 10.49.14 15.44-2.72 7.99-7.53 15.2-13.57 21.07-2.75 2.72-5.61 5.44-9.14 7.11 5.3-8.12 12.71-14.93 16.51-23.99 1.18-2.79 1.31-5.86.2-8.68-3.82-2.07-7.6.22-11.1 1.75.74-4.52 1.69-9.36 4.88-12.86Z"/><path d="M964.05 94.78c.15-6.75 8.35-9.38 13.92-8.11-1.21 4.17-2.6 9.38-7.06 11.16-2.59 1.12-5.4 2.42-8.25 1.4 2.8-3.1 7.24-3.92 9.99-7.07-2.93.67-5.73 1.79-8.6 2.62ZM287.21 103.45c2.76-5.06 4.7-10.58 7.83-15.42 6.3 2.65 11.66 7.18 17.04 11.33-1.63 5.72-4.68 10.85-7.9 15.79-5.56-4.04-11.16-8.02-16.97-11.7ZM735.59 89.67c2-2.34 4.62.02 5.73 2.01 1.09 2.37.39 5.04-.72 7.26-1.42-1.55-2.83-3.1-4.47-4.4-3.87 6.51-3.75 14.29-5.78 21.39-.31 1.38-1.4 2.32-2.37 3.25-.4-6.32-2.78-12.3-5.5-17.94-3.1 3.03-5.89-.69-7.55-3.14 1.23-2.32 2.49-4.64 3.9-6.87 7.68 3.01 9.02 12.1 10.6 19.16 1.73-6.92 1.47-14.92 6.16-20.72ZM1612.75 90.02c-1.3 8.45-5.28 16.55-4.73 25.26.3 2.07 1.38 4.84 3.93 4.71 2.7-.9 3.47-4.01 4.96-6.12-.33 4.52-1.07 9.47-4.15 12.99-1.45 1.75-4.19 1.84-5.72.2-1.92-2.19-2.23-5.27-2.35-8.06-.03-10.17 3.44-20.02 8.06-28.98ZM262.06 113.93c1.87-7.05 4.31-14.06 7.94-20.42-1.7 9.88-6.07 19.42-5.53 29.62.14 2.83 1.92 6.81 5.43 5.62 2.67-1.53 3.62-4.9 5.66-7.09-.91 5.09-1.81 10.54-4.79 14.89-1.9 3.16-7.37 2.93-8.63-.68-2.99-7.01-1.22-14.73-.08-21.94ZM830.98 99.03c1.96-1.04 4.47-1.16 6.57-.42 3.7 2.45 3.49 7.53 2.54 11.34-2.87 10.02-9.61 19.03-18.53 24.42 4.16-6.41 10.06-11.74 13.02-18.92 1.02-2.31.7-4.79-.08-7.11-3-.5-5.86.32-8.42 1.86.72-4 1.35-8.6 4.9-11.17ZM369.41 104.38c1.4-1.76 3.72-2.14 5.7-2.92 3.61 1.18 5.84 4.7 5.38 8.49-1.1 11.53-8.95 21.14-17.83 27.98-.32-.07-.95-.22-1.26-.3 4.71-5.17 9.12-10.69 12.46-16.86 1.1-2.41 2.52-5.75.34-8-2.77-2.41-5.87.54-8.43 1.71.81-3.46 1.26-7.28 3.64-10.1ZM56.29 119.12c-.12-5.65-.26-11.33.21-16.97 7.73 3.19 15.11 7.17 22.71 10.66 2.97 1.6 6.76 2.78 7.91 6.33-3.99 1.25-8.18 1.21-12.31 1.12 5.08 4.68 10.49 9.02 16.4 12.62 9.86 6.19 20.74 10.47 31.04 15.87 5.72 2.97 12.1 5.78 15.53 11.57 4.76 7.61 4.46 17 3.57 25.59-1.18 5.66-2.09 11.93-6.36 16.21-5.77 6.27-12.83 11.11-19.63 16.16-13.42 9.43-26.94 18.75-40.95 27.29-7.59 4.53-15.31 9-23.69 11.92-7.03 2.65-15.76 1.3-21.1-4.19-5.21-5.71-6.25-13.87-6.61-21.28.04-16.13 3.61-32.22 10.1-46.97.42-1.12 1.52-1.68 2.4-2.36-2.17 11.78-6.63 23.19-7.13 35.27-.13 4.09-.42 8.45 1.44 12.23 2.31 4.57 7 8.09 12.2 8.3 6.06.48 11.71-2.13 17.19-4.33 16.23-7.33 31.05-17.33 45.9-27.06 8.77-5.85 17.59-11.64 26.04-17.94 2.45-1.97 5.44-3.87 6.29-7.09-1.02-3.74-4.43-6.07-7.39-8.24-13.87-9.35-30.16-14.37-43.84-24.05-8.74-6.14-16.1-14.01-22.63-22.41-2.16-3.01-7.6-3.81-7.29-8.25ZM889.4 105.5c3.03-1.37 5.33 1.94 6.34 4.33 1.38 2.73-.27 5.55-1.49 7.97-1.37-1.69-2.6-3.51-4.27-4.91-2.04.39-2.83 2.52-3.48 4.23-1.76 5.51-2.25 11.32-3.59 16.94-.79 3.05-1.05 6.72-3.89 8.66-.6-7.78-3.36-15.28-6.9-22.18-1.49.62-3.05 1.99-4.71 1.05-1.8-1.08-3.05-2.88-4.04-4.68.61-3.21 2.48-6.02 4.37-8.63 9.45 3.48 11.08 14.82 12.83 23.43 1.39-4.79 1.51-9.88 3-14.67 1.25-4.08 1.92-9.05 5.83-11.54ZM1112.44 115.14c1.28-3.9 3.21-8.45 7.61-9.57 3.56 1.23 5.95 4.76 6.41 8.41.15 2.7-1.29 5.08-2.44 7.39-1.64-1.92-2.72-4.43-4.93-5.77-1.63-.71-2.69 1.14-3.34 2.28-4.21 9.25-3.72 19.72-7.08 29.22-.44 1.94-1.7 3.48-2.92 4.97-1.49-9.57-4.05-19.21-9.08-27.58-1.45.69-2.83 2.8-4.63 1.86-2.64-1.32-4.83-3.7-5.76-6.52 1.19-3.39 2.44-7.33 5.46-9.5 5.47.59 8.56 5.76 10.71 10.25 2.86 5.55 3.39 11.85 5.24 17.74.94-7.85 2.7-15.56 4.75-23.18ZM164.47 107.59c2.75-1.39 5.13 1.46 6.1 3.72 1.49 2.47.44 5.33-.75 7.67-2.64-.08-3.39-5.07-6.25-3.41-5.86 8.69-2.82 20.77-9.16 29.32-1.25-7.91-3.53-15.67-7.32-22.74-1.03.81-2.06 1.62-3.09 2.42-2.07-1.55-4.35-3.07-5.52-5.47-.06-2.02 1.29-3.72 2.13-5.47.47-.87 1.01-1.69 1.61-2.46 3.43-.7 6.11 2.09 7.7 4.78 3.32 5.23 4.63 11.41 5.83 17.4 1.11-6.02 2.39-12.02 3.87-17.97.89-2.92 2.14-6.12 4.85-7.79ZM673.89 111.03c1.03-1.55 2.67-2.51 4.14-3.6 2.05 1.45 4.18 3.06 5.04 5.54 1.1 2.58-.48 5.21-1.37 7.58-1.38-1.38-2.55-2.97-4.01-4.27-1.94-1.07-3.06 1.37-3.67 2.78-2.93 8.33-2.8 17.5-6.33 25.66-.43 0-1.3.01-1.74.01-.45-7.59-3.33-14.89-6.83-21.58-1.28.95-3 2.61-4.6 1.28-1.67-1.41-3.8-3.08-3.92-5.4 1.03-2.76 2.45-5.36 4.11-7.79 5.05 1.19 7.94 5.8 9.7 10.31 1.96 4.08 2.25 8.63 3.3 12.96 2.14-7.79 2.3-16.22 6.18-23.48ZM918.03 111.92c3.69-1.24 6.76-3.73 10.25-5.41-1.05 4.12-4.54 7-8.34 8.53-4.28 1.66-8.97 2.79-13.55 1.8 3.36-2.67 7.75-3.32 11.64-4.92ZM1307.4 110.55c3.09-1.14 6.32 1.57 7.18 4.48 1.87 4.15.75 8.76-.75 12.82-1.6 4.25-4.8 8.13-9.22 9.58-2.26.89-5.07.65-6.74-1.21-1.99-1.84-1.58-4.84-1.25-7.24.96-4.07 2.87-7.85 4.8-11.53 1.6-2.56 3.1-5.57 5.98-6.9m-2.95 8.02c-2.33 2.66-5.18 6.03-4.91 9.73 3.33 2.13 8.01 1.92 11.29-.25 3.88-4.12-.98-11.55-6.38-9.48ZM214.17 112.01c2.68-1.55 6.74-1.69 8.63 1.15 1.95 3.12 1.54 6.99.5 10.34-3.03 9.72-9.61 18.38-18.29 23.73 4-6.33 9.71-11.56 12.76-18.5.81-2.09 1.56-4.65.33-6.73-2.58-2.37-5.93-.4-8.28 1.24 0-4.09 1.03-8.55 4.35-11.23ZM1267.97 125.89c.88-3.58 1.75-8.64 6.02-9.54 2.85.58 4.9 3.11 6.39 5.47 1.87 3.18.88 7.01-.15 10.29-1.79-1.62-3.34-3.51-5.34-4.87-2.4-.96-3.12 1.9-3.61 3.59-2.01 9.59-.33 19.45-1.14 29.14-.35 2.61-.42 5.57-2.49 7.49-2.54-9.64-7.51-18.44-13.03-26.67-2.18 2.74-1.84 6.83-4.8 9.05-7.36 6.43-16.91 9.41-25.66 13.39-8.37 3.29-16.42 8.21-25.56 8.86 5.96-4.83 13.2-7.72 19.81-11.52 10.26-5.57 20.8-10.75 30.44-17.38-2.15-1.94-4.74-3.51-6.26-6.05.57-3.84 2.03-7.46 3.25-11.12 4.48-.05 8.31 2.72 10.94 6.14 4.97 6.11 7.61 13.63 10.34 20.91-.23-9.06-.48-18.19.85-27.18ZM1372.9 138.03c1.44-7.51 3.58-15.14 7.78-21.61-1.85 7.82-4.81 15.5-5.11 23.6-.3 2.79 1.57 4.97 3.43 6.76 2.74-1.63 4.29-4.43 6.03-7-.57 3.99-1.52 8.01-3.29 11.64-1.18 2.57-4.67 3.5-6.92 1.79-3.33-4.27-2.57-10.16-1.92-15.18ZM965.36 125.88c1.04-1.49 2.14-2.95 3.28-4.37 2.59 1.05 5.14 2.22 7.59 3.58-1.23 2.04-2.58 4-3.97 5.93-2.42-1.24-4.83-2.48-7.18-3.84-1.1 1.62-2.24 3.22-3.39 4.8-2.26-1.23-4.83-2.1-6.71-3.91.06-2.19 1.81-3.82 2.85-5.63 2.56 1.02 5.08 2.16 7.53 3.44Z"/><path d="M23.29 157.94c1.08-12.41 4.59-24.69 10.81-35.51-1.24 7.26-4.17 14.13-5.23 21.44-.65 4.63-2.04 9.43-.53 14.06.5 2.15 2.27 4.4 4.67 4.32 3.4-1.7 4.7-5.55 6.85-8.44-.58 5.61-1.88 11.34-4.84 16.2-1.8 3.34-7.33 3.9-9.3.49-1.98-3.85-2.66-8.27-2.43-12.56ZM938.35 130.43c3.02-3.72 9.32-5.55 13.1-1.86 4.02 3.94 3.2 10.32 2.11 15.33-4.08 13.93-13.52 26.36-25.83 34.03 1.85-4.02 5.23-6.97 7.8-10.5 4.09-5.52 8.52-11.01 10.91-17.54 1.05-2.82 1.43-6.97-1.79-8.54-3.72-1.92-7.35.95-10.48 2.69.07-4.8 1.42-9.65 4.18-13.61ZM563.68 134.92c6.37 2.55 11.68 7.13 17.13 11.21-1.3 5.85-4.71 10.89-7.83 15.89-5.29-3.64-10.44-7.48-15.89-10.88-1.91 4-3.68 8.12-6.25 11.75-2.21-.75-3.89-2.47-5.79-3.75-3.49-2.7-7.33-4.89-10.9-7.46 1.5-5.51 4.97-10.58 7.25-15.91 5.91 2.89 11.23 6.84 16.36 10.94 2.04-3.9 3.79-7.94 5.92-11.79ZM996 145.96c.92-3.23 2.9-6.21 6.01-7.7 2.91 1.5 5.2 4.34 5.41 7.7-.23 1.89-1.24 3.55-2.03 5.24-1.5-1.73-2.96-3.48-4.51-5.15-2.82 2.19-3.55 5.82-4.45 9.08-1.78 7.18-1.39 15.29-5.99 21.48-1.16-7.67-3.29-15.27-6.98-22.11-1.6-.85-2.85 2.19-4.42.96-2.01-1.29-3.84-3.06-4.59-5.38.98-2.82 2.29-5.64 4.37-7.83 4.13.45 6.68 4.1 8.45 7.48 2.33 4.88 3.58 10.18 4.55 15.47 1.13-6.46 2.42-12.91 4.18-19.24ZM1177.35 144.15c1.31-2.35 3.6-5.2 6.64-4.57 5.38 2.7 7.64 10.85 2.62 15.04-1.83-1.78-2.92-5.97-6.15-5.14-2.94 2.67-3.45 6.85-4.36 10.5-1.36 5.64-2.01 11.41-3.29 17.06-.86 3.01-1.57 6.46-4.27 8.4-1.36-9.43-3.83-19.04-8.96-27.15-1.12.86-2.32 1.57-3.59 2.13-3.06-1.18-6.24-3.88-6.65-7.26.86-3.45 3.05-6.39 4.8-9.44 6.73 1.06 10.28 7.58 12.46 13.38 1.91 4.81 2.83 9.9 3.67 14.99 2.28-9.32 2.98-19.15 7.08-27.94ZM1616.35 149.42c1.32-2.44 3.47-5.25 6.56-5.08 3.02.9 4.88 3.85 5.88 6.68 1.21 3.19-.58 6.52-2.43 9.05-1.69-2.04-2.95-4.66-5.4-5.89-2.59.41-3.31 3.53-4.24 5.59-2.76 8.81-3.17 18.2-5.95 27.01-.56 1.9-1.66 3.54-3.21 4.74-1.49-9.79-4.14-19.71-9.38-28.17-1.3.85-2.29 2.85-4.09 2.32-2.98-1.14-5.2-3.8-6.53-6.62.69-3.87 3.14-7.16 5.2-10.43 7.23 1.15 10.83 8.44 13.04 14.66 1.91 4.6 2.47 9.56 3.52 14.4 2.29-9.43 3.09-19.31 7.03-28.26ZM734.02 145.98c2.15-1.55 5.24-2.07 7.47-.33 2.24 2.48 2.12 6.19 1.38 9.25-2.04 8.93-8.32 16.16-15.36 21.69-.31 0-.91.01-1.22.01 4.21-5.28 8.86-10.37 11.74-16.54.71-2.08 1.33-5.21-1-6.47-2.49-.75-4.68.88-6.8 1.86.8-3.28 1.08-7.09 3.79-9.47ZM615.57 152.86c.79-1.89 1.92-3.62 3.17-5.23-2.75 10.7-6.39 21.29-7.35 32.36-.18 3.77.01 8.58 3.62 10.79 1.82 1.55 3.95-.13 5.22-1.53 1.73-2.15 2.92-4.68 4.66-6.84-.19 4.93-1.9 9.61-3.44 14.24-1.14 2.86-3.12 5.96-6.38 6.55-2.7.47-5.43-1.25-6.48-3.71-2.56-6.19-2.32-13.11-1.14-19.59.87-9.46 4.46-18.36 8.12-27.04ZM1126.84 157.73c1.56-3.47 2.67-7.24 5.18-10.19-2.79 11.08-6.59 22.03-7.41 33.52-.14 4.18 1.07 9.09 5.42 10.72 4.15-1.8 5.58-6.26 8.26-9.51-.97 6.26-2.08 12.98-5.79 18.26-2.27 3.52-8.03 3.62-10.1-.13-4.49-8.51-2.07-18.33-.59-27.27 1.13-5.29 3.07-10.37 5.03-15.4ZM422.25 154.15c4.03-3.15 9.51-5.53 14.63-3.71 6.02 1.83 10.3 6.9 13.6 12 5.98 9.72 10.07 21.03 9.4 32.58-.44 10.29-2.47 20.9-8.24 29.62-4.6 6.6-10.89 11.82-17.16 16.77-16.73 12.51-35.12 22.6-53.6 32.25-7.95 4.6-17.29 5.11-25.96 7.57-10.65 2.68-21.35 5.13-32 7.79-10.03 2.03-19.95 5.11-30.28 5.14 2.03-1.51 4.24-2.76 6.55-3.79 24.27-11.03 49.06-20.86 73.29-31.96 21.38-9.8 42.12-21.1 61.6-34.29 6.69-4.88 13.78-9.59 18.92-16.19 2.33-2.9-.93-6.02-3.17-7.73-6.48-4.27-14.63-2.26-21.89-3.26-5.93-.69-12.7-2.26-16.21-7.58-2.82-3.83-2.45-8.86-2.06-13.34 1.24-8.52 5.93-16.43 12.58-21.87m-1.74 16.21c-2.19 2.25-.24 5.98 2.46 6.75 5.94 2.06 12.36 1.33 18.44.36-3.05-4.26-6.93-8.68-12.37-9.57-2.93-.07-6.36.27-8.53 2.46ZM673.4 169.82c.92-4.36 1.75-10.24 6.65-11.91 3.16-1.69 7.34.79 7.68 4.27 1.26 8.5-3.34 16.51-8.51 22.86-2.94 3.41-6.24 6.6-10.15 8.89 4.28-6.79 10.61-12.35 13.41-20.04.5-2.06.92-5.26-1.58-6.19-2.73-1.01-5.13 1.16-7.5 2.12ZM1010.95 182.05c1.87-5.2 3.49-10.66 6.79-15.18-2.51 9.25-5.67 18.45-6.2 28.09-.1 3.23.9 7.28 4.47 8.22 3.33-1.32 4.49-5.02 6.69-7.56-.56 4.82-1.86 9.63-4.07 13.96-1.6 3.12-6.3 4.15-8.64 1.28-2.04-3.18-2.2-7.19-2.28-10.86.51-6.05 1.06-12.22 3.24-17.95ZM78.05 174.15c1.22-1.64 3.65-3.79 5.68-2.08 4.13 2.65 4.63 8.38 1.6 12.08-1.45-2.04-2.85-4.44-5.52-4.98-5.67 9.11-3.44 20.96-9.05 30.07-1.88-7.73-3.6-15.68-7.68-22.63l-3.09 2.16c-2.37-1.42-4.3-3.42-5.75-5.78 1.25-2.73 2.55-5.44 4.1-8.02 4.61.49 7.59 4.45 9.3 8.41 2.4 4.53 2.96 9.68 4.02 14.62 2.18-7.91 2.29-16.54 6.39-23.85ZM957.05 192.95c2.22-5.33 4.79-10.56 7.72-15.54 5.88 3.5 11.58 7.31 16.89 11.63-1.71 5.73-4.65 11.05-8.21 15.83-5.14-4.41-11.28-7.58-16.4-11.92ZM1534.89 198.84c1.66-6.03 3.44-12.22 6.96-17.47-1.85 7.82-4.78 15.51-5.16 23.6 0 2.54 1.32 6.86 4.6 6.19 2.17-1.65 3.3-4.28 5.09-6.3-.84 4.03-1.77 8.13-3.63 11.83-1.35 2.99-6.26 3.41-7.65.3-2.8-5.65-1.4-12.26-.21-18.15ZM519.59 202.42c.94-3.69 2.94-7.2 6.43-9 4.38 2.27 7.16 8.08 3.74 12.37-2.62.4-3.53-5.83-6.29-3.29-5.61 8.88-2.87 20.73-9.02 29.39-1.31-7.9-3.45-15.77-7.42-22.77-1.04.8-2.06 1.6-3.08 2.41-2.07-1.58-4.17-3.22-5.49-5.49.32-3.31 2.65-6.04 4.32-8.8 9.46 3.21 11.12 14.67 12.99 23.15 1.1-6.03 2.35-12.03 3.82-17.97Z"/><path d="M343.92 223.57c2.12-7.59 4.66-15.26 8.91-21.95-2.6 10.38-6.23 20.64-6.72 31.41.06 2.59.64 5.33 2.35 7.36 1 1.26 3.12 1.63 4.34.5 2.33-2.04 3.52-5.02 5.57-7.31-.61 5.07-1.89 10.11-4.15 14.7-1.28 2.63-4.32 4.87-7.32 3.73-2.59-.67-3.41-3.52-4.18-5.75-2.34-7.47-.09-15.25 1.2-22.69ZM929.58 218.89c.93-2.71 3.14-6.12 6.48-5.44 4.68 2.43 5.78 8.8 2.28 12.73-1.65-1.72-2.51-5.01-5.41-4.78-3.29 3.66-3.38 8.88-4.53 13.43-1.48 5.73-1.12 12.41-5.31 17.08a65.737 65.737 0 0 0-7.24-22.81c-1.26.47-2.39 1.23-3.68 1.6-2.5-1.14-4.09-3.51-5.68-5.62 1.34-2.55 2.43-5.26 4.08-7.62 3.25-1.04 6.06 1.85 7.72 4.33 3.59 5.53 5.25 12.06 5.98 18.55 2.28-7.02 2.35-14.61 5.31-21.45ZM972.8 222.74c2.32-2.17 6.65-3.08 8.93-.31 3.05 3.63 1.84 8.78.47 12.85-3.14 8.93-9.54 16.77-17.55 21.77 4.14-6.51 10.05-11.92 13.05-19.14.7-2 1.28-4.62-.3-6.37-2.87-1.85-5.86.31-8.48 1.48.84-3.54 1.3-7.49 3.88-10.28ZM1443.79 246.25c1.76-3.07 3.99-7.64 8.28-6.72 2.66 1.38 4.31 4.19 5.24 6.96 1.07 5.51.72 11.77-3.05 16.25-5.47-.65-9.59-4.65-13.15-8.5-2.6 9.18-8.38 17.25-16.11 22.82-7 5-14.24 10.35-22.88 11.97-7.81 1.49-15.24 5.21-23.33 4.89 10.62-5 21.19-10.11 31.55-15.63 7.59-3.69 14.46-8.69 20.88-14.14 4.74-4.05 6.76-10.12 9.63-15.45.48-1.31 1.83-1.77 2.94-2.45m2.25 3.66c2.65 2.14 5.59 3.91 8.75 5.21 0-3.37-1.93-6.14-4.79-7.76-1.36.82-2.67 1.67-3.96 2.55ZM1611.33 246.24c1.77-2.87 3.62-7.03 7.63-6.85 3.13.75 4.6 4.04 5.8 6.72 1.61 5.36.87 11.71-2.68 16.17-5.59.61-9.73-4.41-13.31-8a44.582 44.582 0 0 1-16.45 22.99c-6.9 4.8-13.92 10.07-22.35 11.7-7.86 1.57-15.36 5.06-23.46 5.18 17.95-9.63 37.67-16.75 52.99-30.62 4.37-4.12 6.19-10.02 9.09-15.12.52-1.11 1.78-1.49 2.74-2.17m2.28 3.15c2.22 2.89 5.67 4.33 8.88 5.83-.34-2.64-1.13-5.72-3.76-6.96-1.75-1.23-3.51.62-5.12 1.13ZM1715.23 248.46c2.62-3.52 5.65-7.12 9.83-8.81 2.43-1.09 5.47.6 5.75 3.28.32 3.18-1.26 6.08-2.34 8.97-1.41-1.27-2.83-2.46-4.34-3.56-2.63 1.11-4.91 2.81-6.88 4.85 1.8 2.74 4.81 4.12 7.77 5.3 4.98-2.21 8.89-6.14 13.82-8.46-.01 3.42-.46 7.45-3.7 9.37-8.01 5.59-15.54 11.83-23.5 17.49.32-2.05.54-4.13 1.16-6.11 1.19-2.32 3.44-3.83 5.26-5.63-2.26-1.5-4.99-2.71-6.24-5.26-1.35-4.13 1.21-8.13 3.41-11.43ZM247.01 243.05c4.61-2.01 10.01-1.56 14.6.24 3 1.16 4.61 4.82 3.1 7.74-3.96 9.83-12.79 16.45-18.7 25-1.26 1.99-2.23 4.68-1.12 6.93 2.49 3.47 7.27 3.45 11.12 3.45 8.41.12 16.37-2.89 24.39-4.97-5.36 7.43-14.39 11.71-23.37 12.66-4.75.23-10.44.73-14-3.11-3.92-4.38-2.47-10.91-.6-15.87 3.85-8.58 11.21-14.8 16.61-22.33-3.1-1.63-6.51-2.78-10.05-2.72-3.02-.23-5.44 1.82-8.06 2.93 1.12-3.72 2.6-7.82 6.08-9.95ZM549.23 243.22c1.66-2.56 5.35-2.63 7.85-1.33 5.03 2.74 9.37 6.8 12.37 11.69 3.21 4.62 1.18 11.14-2.47 14.88-3.13.07-6.21-.54-9.28-.95-9.8 13.66-25.12 22.8-41.26 26.76 12.42-9.37 26.65-16.4 37.85-27.38-3.02-1.11-6.43-2.55-7.54-5.88-.6-3.28.66-6.46 1.71-9.49.91-2.69-1.09-5.85.77-8.3m.24 13.98c1.86 2.38 5.05 2.5 7.81 2.69-.43-2.87.66-7.9-3.11-8.77-2.36 1.11-4.61 3.35-4.7 6.08m11.06-4.63c-.19 2.79-.54 5.57-.98 8.34 2.82.41 5.65.85 8.51 1a15.99 15.99 0 0 0-7.53-9.34ZM1294.05 243.11c4.36-2.07 9.47-1.56 13.95-.15 2.85.89 5.12 4.06 4.03 7.07-1.81 6.42-6.69 11.29-10.82 16.29-3.51 4.34-8.38 8.08-9.67 13.76-.7 3.23 2.66 5.4 5.44 5.86 10.55 1.95 20.85-1.95 30.92-4.54-6.71 8.26-17.27 13.18-27.92 12.84-3.95.17-8.61-.79-10.74-4.48-3.04-4.54-1.36-10.27.46-14.94 3.77-8.5 11.26-14.49 16.41-22.08-3.75-1.93-8.03-3.19-12.26-2.48-2.12.67-4.01 1.94-5.98 2.88 1.43-3.61 2.54-7.96 6.18-10.03ZM864.88 265.65c2.15-7.48 4.71-14.99 8.82-21.64-2.52 10.58-6.45 21.01-6.63 32 .08 3.05 1.13 7.75 4.96 7.83 3.81-.84 4.9-5.32 7.04-8.08-.34 5.51-1.77 11-4.45 15.84-1.9 3.54-8.25 3.89-9.91-.02-3.92-8.22-1.36-17.46.17-25.93ZM203.97 253.07c1.18-2.97 2.38-6 4.42-8.51-1.46 6.86-4.22 13.4-5.12 20.38-.87 5.31-2.9 11.07-.19 16.2.69 2.21 3.36 3.43 5.41 2.18 2.42-1.98 3.58-5.04 5.33-7.56-.07 4.97-1.65 9.77-3.57 14.31-1.04 2.46-3.37 4.72-6.27 4.17-4.45.41-5.59-5.02-6.27-8.35-1.03-11.23 2.1-22.47 6.26-32.82ZM451.36 245.23h1.13c-3.18 9.68-5.94 19.62-6.71 29.82.09 3.32.86 8.94 5.29 8.75 3.62-1.06 4.68-5.38 6.88-8.04-.53 5.7-1.89 11.51-4.97 16.4-1.49 2.3-4.49 2.34-6.91 1.9-2.38-.74-3.06-3.46-3.72-5.56-1.79-6.1-.54-12.43.47-18.53 1.33-8.7 5.07-16.74 8.54-24.74ZM764.48 251.38c1.12-2.39 1.78-5.19 3.95-6.9-3.05 9.96-6.09 20.07-6.89 30.5.03 3.34.86 8.97 5.29 8.84 3.75-1.17 4.93-5.56 6.88-8.58-.5 5.76-1.61 11.72-4.77 16.66-1.63 2.84-5.83 2.98-8.39 1.48-2.61-2.76-2.83-6.89-3.22-10.48-.02-10.88 2.76-21.6 7.15-31.52ZM1124.66 253.69c1.27-3.13 2.32-6.49 4.74-8.98-2.75 9.3-5.34 18.68-6.73 28.3-.32 3.21.01 6.7 2.02 9.36 1.21 1.86 4.24 1.93 5.59.18 1.83-2.14 2.98-4.74 4.68-6.98-.65 5.42-1.86 11.03-4.57 15.81-1.57 3.22-5.95 3.66-8.77 1.98-3.31-3.96-3.35-9.45-3.17-14.34.58-8.72 2.82-17.29 6.21-25.33ZM1241.55 255.72c-1.28-3.48-.73-7.28 2.25-9.7 2.44 5.25 1.03 11.28-1.79 16.06-2.51 2.82-6.45.5-9.48-.03-2.59 2.7-5.65 5.35-9.51 5.83-3.31-.71-6.34-3.16-9.88-2.22-8.99 1.89-14.67 9.7-20.38 16.2-4.76 5.88-10.69 12.04-18.81 12.23 3.02-2.01 6.04-4.06 8.86-6.37 9.38-7.02 14.17-18.35 23.19-25.74 2.81-2.39 6.22-4.09 9.85-4.82 4.15-.88 7.69 3.54 11.87 1.9 4.1-2.1 4.74-7.29 8.04-10.24-.13 2.17-.4 4.33-.62 6.5 2.12.18 4.26.31 6.41.4ZM698.54 257.52c5.02-2.37 10.07-4.78 15.43-6.31-.39 2.14-.51 4.39-1.41 6.39-17.16 7.7-33.82 16.76-49 27.92-3.98 2.8-7.44 6.24-11.39 9.07.2-3.28-.36-7.36 2.78-9.5 13.49-10.69 28.18-19.89 43.59-27.57ZM816.48 252.57c1.89-1.06 3.42.59 3.86 2.36-.06 1.93-1.36 3.52-2.36 5.07-1.19-.94-2.97-2.96-4.44-1.32-1.12 1.28-3.34 3.56-1.34 5.03 1.53 1.92 4.64 2.76 6.71 1.23 2.19-1.74 4.04-3.85 6.08-5.76-.29 3.09-.36 6.72-2.97 8.88-5.14 4.45-10.12 9.55-12.58 16.01-.85 2.11.52 4.23 2.61 4.8 6.91 1.88 13.69-1.26 20.33-2.8-4.9 6.37-13.46 9.41-21.3 7.8-2.65-.51-4.4-3.24-4.3-5.84-.09-5.72 2.62-11 5.55-15.74-2.57-1.53-5.72-3.78-4.75-7.25 1.29-4.99 4.52-9.7 8.9-12.47ZM1712.33 285.37c12.35-9.37 25.08-18.34 38.55-26.04-.35 2.03-.82 4.03-1.26 6.03-14.26 8.87-27.86 18.78-40.93 29.3.17-3.37.39-7.34 3.64-9.29ZM609.9 278.3c1.85-4.14 3.85-8.22 6.01-12.21 5.84 3.54 11.88 7 16.79 11.8-1.14 5.79-4.69 10.73-7.75 15.65-5.29-3.62-10.32-7.67-15.98-10.72-1.79 4.1-3.67 8.21-6.41 11.77-5.47-4-10.99-7.92-16.69-11.57 2.48-5.28 4.75-10.69 7.84-15.66 5.78 3.03 11.11 6.85 16.19 10.94ZM1075.34 278.11c2.18-3.86 3.15-8.8 6.48-11.78 5.17 2.88 10.08 6.28 14.72 9.96 1.9.99 1.24 3.33.63 4.93-1.86 4.35-4.27 8.45-6.99 12.31-5.04-3.87-10.24-7.54-15.67-10.83-1.96 4.04-3.91 8.09-6.38 11.84-5.63-3.92-11.17-7.95-16.96-11.63 2.55-5.23 4.94-10.54 7.76-15.63 5.92 2.88 11.13 6.94 16.41 10.83Z"/></g></svg>