<svg width="2280" height="323pt" viewBox="0 0 1710 323" xmlns="http://www.w3.org/2000/svg"><path fill="#fff" d="M1254.8 254.79c7.43 2.32 14.04 8.56 14.1 16.8-4.39-5.87-9.34-11.25-14.1-16.8Z"/><g fill="#2f2e2c"><path d="M360.72 45.25c31.9-10.75 64.15-20.48 96.56-29.56 1.11-.35 2.14.41 3.18.7-.98 4.94-3.73 9.79-8.68 11.62-10.83 4.08-22.38 5.83-33.33 9.6-34.29 9.69-68.01 21.35-101.62 33.19-1.84.65-3.46 1.75-5.15 2.69-2.57-.33-4.86.97-7.17 1.83-28.15 10.4-56.19 21.18-83.54 33.55-10.67 5.07-21.66 9.84-31.13 17.02 5.46 5.46 13.63 5.45 20.73 6.75-.12 4.17-1.2 8.65-4.45 11.5-5.91-.59-12.02-1.86-17.06-5.16-4-2.42-4.83-7.66-4.15-11.92.7-5.49 3.08-11.17 7.91-14.23 10.88-7.4 23.04-12.62 34.97-18.05 4.22-1.95 9.22-3.12 11.93-7.25 5.04-6.67 10.95-13.2 13.17-21.44.89-2.39-.32-4.66-1.5-6.66-3.96-.9-7.51.77-10.79 2.76.65-4.6 1.57-9.38 4.47-13.16 2.83-3.52 8.88-4.8 12.34-1.47 2.64 3.13 3.26 7.56 2.44 11.48-2.09 11.31-8.69 21.3-16.94 29.11 23.44-9.31 46.94-18.48 70.75-26.8-.61-3.82-1.23-7.67-2.6-11.3-1.95-5.16-3.16-10.79-6.83-15.08l-2.33 2.97c-3.91-.99-6.69-4.13-8.27-7.69 1.59-3.4 3.17-6.82 5.31-9.93 4.85.5 8.38 4.12 10.49 8.28 3.66 6.41 5.09 13.76 6.52 20.92 1.73-8.14 2.96-16.42 5.43-24.38 1.24-3.91 3.24-8.41 7.6-9.55 3.53.76 5.6 4.16 6.7 7.33.97 3.24-.79 6.33-2.5 8.95-1.49-1.85-2.75-3.9-4.46-5.56-2.16-1.1-3.66 1.13-4.41 2.82-3.96 9.94-3.84 20.92-7.31 30.99 12.61-4.51 25.34-8.69 37.97-13.14 3.74-2.92 6.03-7.43 8.41-11.49 1.21-2.62 2.45-6.69-.18-8.8-2.95-1.55-5.87.84-8.43 2.07.74-3.59 1.35-7.44 3.64-10.42 2.19-2.74 6.87-4.05 9.59-1.35 2.53 2.23 2.68 5.86 2.27 8.97-1.32 7.17-5.02 13.66-9.55 19.29ZM470.46 20.2c2.65-2.43 5.66-5.37 9.57-5.02 2.7-.15 4.37 2.45 4.9 4.79 1.65 6.46-.46 13.04-1.85 19.35 3.55 2.3 6.4 6.53 4.62 10.86-3.23 8.97-6.44 18.19-6.83 27.81.36 3.67 1.25 9.87 6.19 9.37 3.47-1.91 4.66-5.96 6.56-9.17.17.36.52 1.08.69 1.44-1.8 5.85-2.25 12.56-6.34 17.39-2.89 3.2-8.32 1.64-9.88-2.11-2.87-6.91-1.31-14.62.13-21.68 1.76-6.18 3.38-12.41 5.34-18.53-1.62-1.5-3.35-2.88-5.12-4.19-2.13 2.81-4.39 5.53-7 7.92-9.46 8.59-20.25 15.55-31.24 22.01-15.56 9.08-31.84 16.86-48.31 24.13-3.35 1.5-6.58 3.38-10.26 3.98 2.61-3.56 6.65-5.51 10.47-7.46 18.26-8.91 36.09-18.73 53.06-29.92 9.51-6.32 19.02-12.77 27.27-20.72.7-.7 1.29-1.5 1.76-2.38-4.4-2.99-9.5-6.33-10.46-12-.41-5.92 2.66-11.74 6.73-15.87m-.11 10.34c1.89 3.2 5.41 5 8.48 6.91.52-4.14 1.66-9.51-2.58-12.14-2.08 1.4-6.41 1.94-5.9 5.23Z"/><path d="M502.2 32.88c1.63-6.35 4.14-12.44 6.94-18.36 1.95 2.98 3.14 6.36 4.48 9.64 3.93 10.27 7.79 20.57 11.55 30.91 1.15 3.05 1.74 6.26 1.9 9.51-4.45-1.11-7-5.17-10.04-8.24.91 19.23 3.22 38.42 2.7 57.7-.4 14.21-1.28 28.73-6.58 42.08-2.17 5.4-5.35 10.34-9.11 14.76 9.3 1.61 18.72 2.43 28.02 4.06 10.16 1.36 20.39 2.05 30.55 3.36-.74-14.45-2.2-28.86-3.01-43.3-.76-16.77-2.7-33.46-3.39-50.24-.91-8.54-.95-17.15-1.74-25.71-.46-8.41-.04-17.17-3.57-25.04 1.33-6.55 4.13-12.65 6.61-18.82.42.07 1.24.21 1.65.29 3.72 8.52 6.82 17.29 10.16 25.97 2.37 6.82 5.37 13.49 6.81 20.6.83 2.23-1.62 2.18-2.83 1.2-2.71-2.07-4.84-4.76-7.22-7.17.36 18.36 3.08 36.56 3.73 54.89 1.87 22.74 3.31 45.51 4.77 68.28 8.7.74 17.57-.43 26.15 1.33-2.47 5.14-5.19 10.15-7.68 15.28-.97 1.63-1.69 3.92-3.86 4.24-4.68.62-9.82-.56-14.24.79-1.51 14.36-3.59 29.37-11.33 41.86-.27-1.22-.54-2.44-.79-3.66 1.45-12.46 2.04-25.05 1.03-37.57-5.61.93-11.23 1.79-16.8 2.94-4.24 12.18-9.36 24.48-9.24 37.61.17 5.86 2.16 12.23 7.29 15.6 5.63 3.37 12.67 2.26 18.47-.11 5.29-2.38 10.05-5.82 14.34-9.69 12.56-11.78 23.07-25.54 35.68-37.26 1.69-1.04.97-3.1.89-4.69-3.12-22.86-3.8-45.94-4.3-68.97-.9-17.64-1.39-35.3-2.45-52.93-.25-16.95-2.96-33.93-8.6-49.92.76-6.65 3.4-12.96 6.21-18.97 1.93.52 2.24 2.93 3.17 4.44 5.27 12.84 6.77 26.77 8.72 40.4 1.77 27.63 2.57 55.33 3.37 83.02.26 19.13 1.38 38.41 5.82 57.08 15.73-12.18 33.05-22.66 51.98-29.03-2.61-4.98-5.89-9.82-6.91-15.44-.92-6.71.19-14.11 4.74-19.38 4.87-6.23 14.08-7.23 21.08-4.41 7.79 3.29 14.77 8.24 21.41 13.43 3.61 3.19 7.86 6.78 8.6 11.8-1.14 5.99-3.28 11.79-5.43 17.48-9.83 2.82-19.53 6.09-29.3 9.1.06 3.58.43 7.39-1.53 10.58-2.64-1.99-3.75-5.14-4.8-8.13-9.04 3.47-17.83 7.54-26.57 11.7-9.66 4.73-19.25 9.84-27.58 16.72 5.33 6.55 12.24 11.78 19.78 15.56 11.14 4.4 23.32 4.53 35.14 4.89 29.53 1.43 59.48-4.11 86.17-16.99 11.12-5.43 22.73-11.25 30.14-21.58 4.01-5.94 9.09-11.07 12.89-17.16 5.47-6.82 12.34-14.31 21.72-14.67 6.5-.31 11.73 4.67 14.23 10.26 4.66 9.97 5.69 21.47 3.82 32.25-1.44 5.84-2.78 12.63-7.99 16.32-5.72.91-11.49-.48-16.98-2.02-10.54-2.93-19.82-9.02-28.48-15.52-8.42 16.41-23.55 28.31-40.07 35.9-26.09 12.47-55.53 16.66-84.21 14.44-2.86 10.08-6.29 20.34-5.98 30.93-.18 3.33 1.96 6.03 4.74 7.6 4.07-1.73 5.53-6.04 7.91-9.38-.82 5.93-1.89 12.21-5.23 17.3-1.83 3.28-6.82 3.95-9.21.93-2.2-3.02-2.45-6.97-2.84-10.57-.04-12.91 3.94-25.38 9.21-37.05-9.01-.52-18.18-1.47-26.58-5.01-6.54-2.88-13.12-5.97-18.65-10.57-4.97-4.15-9.02-9.37-11.95-15.13-13.54 12.32-25.11 26.54-37.78 39.7-6.26 6.4-14.48 12.2-23.86 11.61-8.65-.27-15.84-6.4-20.23-13.44-5.43-8.59-6.29-19.23-4.81-29.08 1.73-9.64 4.65-19.07 8.65-28.01-19.55 5.2-36.47 16.84-54.85 24.9-11.62 4.79-24.42 6.9-36.96 5.65-7.52-.89-15.33-3.15-20.69-8.81-3.67-3.65-5.56-8.56-7.59-13.21-3.41 7.5-6.73 15.56-13.41 20.8-7.05 5.7-17.89 6.66-25.26 1.03-5.91-4.84-7.91-12.76-8.87-20.01-6.46 10.22-15.36 19.27-26.37 24.5-8.57 3.9-19.18 3.94-27.3-1.1-6.51-4.48-7.85-12.97-8.11-20.3-.16-2.09-2.73-.62-3.52.25-6.13 6.2-11.06 13.67-18.23 18.79-7.83 5.89-17.65 9.62-27.54 8.85-7.35-.51-15.11-3.75-18.84-10.44-4.09-7.36-4.94-15.94-6.24-24.12-.86-10.63-2.33-21.22-4.45-31.68-.55-2.87-1.83-5.62-4.03-7.6-2.49 4.06-2.26 9-3.72 13.43-2.02 6.69-4.39 14.24-10.68 18.12-3.48 2.43-7.85 1.3-11.69.66.14 8.77-.24 17.54-1.25 26.25-1.54 9.19-3.39 19.07-10.06 26.08-11.66 11.66-25.29 21.22-39.68 29.21-11.81 6.55-24.38 11.78-37.45 15.21-14.01 3.24-28.89 5.06-42.95 1.1-13.27-3.18-24.6-12.36-31.54-23.97-3.81-6.46-7.16-13.36-8.6-20.75-1.86-16.51-.24-33.51 5.64-49.1-5.38-1.41-9.36-5.69-11.23-10.82-4.65-12.96-3.2-27.13-.31-40.32 4.89-19.86 12.14-39.03 19.9-57.92 4.87-10.74 9.3-22.13 17.45-30.89-.56 2.97-1.59 5.81-2.91 8.51-8.23 18.65-15.96 37.58-21.57 57.2-3.61 13.21-6.61 27.19-3.84 40.86 1.22 4.38 3.53 9.33 8.06 11.06 5.64.32 9.63-4.69 12.64-8.83 2.59-3.2 3.65-7.47 6.81-10.21.08 7.91-2.28 15.66-5.14 22.96-3.44 7.71-7.98 16.94-17.21 18.53-1.95 10.59-5.87 21.13-4.41 32.06 2.08 14.34 10.76 27.72 23.3 35.08 8.74 5.21 19.03 7 29.07 7.28 24.63.05 48.5-8.45 69.65-20.61 11.16-6.48 21.8-13.94 31.34-22.65 2.78-2.79 6.03-5.43 7.64-9.11.61-11.75-3.04-23.26-7.67-33.92-1.59-3.87-4.58-7.64-3.67-12.07 1.04-5.4 2.66-10.71 4.65-15.83l1.68.12c2.76 3.73 3.6 8.82 7.31 11.83 3.34 1.93 7.21 2.86 11.04 3.08 4.34-.14 8.56-2.54 10.82-6.26 4.2-6.48 4.29-14.49 5.09-21.91.37-2.55.68-5.59 3.13-7.07 3.32-.95 5.77 2.33 7.13 4.89 7.74 18.14 7.35 38.25 11.85 57.2 1.38 5.47 4.9 10.92 10.53 12.68 7.29 2.41 15.18.85 22.42-1.01 14.54-4.46 23.6-17.49 34.59-27.06 1.11-.75 2.35-1.08 3.71-1 1.57 3.99-1.5 8.16-.8 12.31.13 6.82 6.26 11.73 12.47 13.1 8.11 1.81 16.95 1.06 24.39-2.76 11.74-5.39 18.47-17.06 28-25.25 2.46 4.28-2.87 8.6-1.32 13.08 1.37 4.32 3.77 8.7 7.8 11.05 4.45 2.35 9.76 1.45 14.3-.12 7.42-2.96 12.88-9.27 17.1-15.84 2.17-3.25 3.58-6.98 5.98-10.08l2.16-.68c1.24 5.37-1.3 11.35 1.83 16.36 1.84 4.44 6.38 6.8 10.95 7.4 18.92 3.12 38.56-.05 56.01-7.82 8.09-3.49 15.87-7.64 23.6-11.84-19.23-3.03-38.54-5.42-57.93-7.23-4.88-.69-9.92-.4-14.67-1.9 2.12-4.81 4.47-9.51 7-14.12 1.31-2.96 4.94-3.28 7.61-4.41 12.8-3.75 25.69-7.26 38.1-12.21 2.96-1.18 6.05-3.3 6.34-6.78 2.37-28.3-.83-56.64-2.69-84.87-.64-8.83.49-18.06-2.79-26.48-.39-1.16-.87-2.39-.52-3.62m176.27 118.44c2.27 5.5 4.91 10.84 7.55 16.17 6.53-2.01 13.11-4.04 19.19-7.2-3.67-3.52-8.38-5.52-13.03-7.38-4.37-1.39-9.18-3.45-13.71-1.59m140.32 40.03c7.46 5.05 15.76 9.7 24.88 10.61.57-6.6-3.9-12.94-9.74-15.64-5.26-1.75-12.74-.61-15.14 5.03Z"/><path d="M668.13 16.1c2.62-1.52 7.11-1.27 7.97 2.2 1.18 5.54-1.07 11.58-5.6 14.97-4.55 3.57-10.48 4.38-16.05 4.94-.96 1.65-1.94 3.28-2.99 4.87.03-1.97.15-3.94.3-5.9-1-.75-1.99-1.51-2.96-2.28-1.82 3.44-4.35 7.77-8.82 7.6-2.88.16-4.99-3.21-7.93-2.27-2.96.71-4.6 3.47-6.68 5.42-.65-6.19 2.52-13.42 9.29-14.42 2.99 2.37 7.52 3.58 10.9 1.31 1.15-3.86-1.54-7.63-1.49-11.53.38-1.97 1.43-3.72 2.29-5.51 2.26 4.98 3.2 11.11 8.36 14.1 4.32-4.63 7.81-10.26 13.41-13.5m-1.63 6.46c-3.51 1.7-6.34 4.49-8.92 7.36 5.75.31 11.65-1.75 15.61-6.02-1.94-1.35-4.38-2.32-6.69-1.34ZM699.93 15.92c2.42-1.42 6.52-1.13 7.32 2.09 1.53 6.65-2.32 12.89-5.92 18.16 11.13-4.96 22.46-9.44 33.84-13.8 7.28-2.57 14.47-5.51 22-7.33-.54 3.45-.7 8.26-4.73 9.48-18.47 5.43-36 13.53-53.61 21.23-14.4 6.49-28.72 13.18-42.8 20.37l.77 1.04c-1.2.06-2.39.13-3.57.2-4.51 2.83-9.37 5.06-13.87 7.9-2.98 1.8-5.66 4.04-8.77 5.61.11-2.61.31-5.34 1.53-7.71 1.34-2.61 4.14-3.89 6.44-5.51 18.03-11.33 37.41-20.31 56.83-28.95 2.31-1.02 3.56-3.35 4.97-5.31 1.8-2.76 4-6 2.82-9.45-2.06-2.45-4.92-.16-7.14.73.57-3.14 1.15-6.69 3.89-8.75ZM851.43 15.51c4.11-1.74 6.99 2.56 8.38 5.78 1.72 3.51-.23 7.27-2.1 10.27-2.22-2.06-3.32-6.11-6.79-6.14-3.34 2.93-3.84 7.62-4.96 11.67-2.38 9.06-2.09 19.04-7.07 27.26l-1.19-.75c-1.31-9.97-4.38-19.89-9.46-28.6-1.04.9-2.11 1.76-3.2 2.57-3.75-.71-6.76-4.02-8-7.51 1.19-3.84 3.12-7.51 5.72-10.59 5.09 1.11 8.72 5.17 10.89 9.71 3.54 6.52 4.74 13.91 6.27 21.07 1.36-8.15 2.88-16.29 5.05-24.27 1.28-3.88 2.71-8.29 6.46-10.47ZM887.81 19.06c.53-1.44.76-3.19 2.14-4.12 1.28.75 1.83 2.23 2.59 3.43 4.47 8.4 8.48 17.04 12.39 25.72 2.5 5.98 5.44 11.96 6.02 18.52-4.42-1.22-6.99-5.29-10.33-8.08.4 19.23 3.66 38.25 5.5 57.37 2.14 14.63 3.3 29.37 4.61 44.08 1.34 16.12.76 32.58-3.59 48.23-4.32 15.86-13.51 30.24-25.68 41.24-5.9 5.21-12.66 9.49-20.07 12.2-8.3 2.88-16.81 5.12-25.35 7.21-6.19 1.13-12.32 3.22-18.69 2.7 2.54-3.06 6.2-4.76 9.56-6.73 10.27-6.03 20.43-12.24 30.59-18.45 5.29-3.32 10.78-6.36 15.68-10.25 7.02-5.52 13.36-11.88 19.02-18.78 4.23-5.42 8.29-11.44 9.24-18.4.46-16.35-1.94-32.6-3.1-48.88-2.18-18.67-4.31-37.35-6.58-56.01-.92-12.06-3.19-24-3.52-36.1-.21-4.33-.45-8.76-2.05-12.84-.86-2.65-2.12-5.29-2.05-8.13.54-4.8 2.37-9.31 3.67-13.93ZM999.69 16.4c1.87-1.3 4.44-1.5 6.54-.65 2.2 1.2 2.35 4 2.24 6.22-.08 6.06-4.47 11.48-9.98 13.68-3.8 1.69-7.97 2.11-12.05 2.57-.93 1.66-1.89 3.29-2.92 4.88.04-1.96.17-3.92.33-5.88-1.02-.76-2.01-1.54-2.99-2.31-1.76 3.16-3.86 7.15-7.89 7.55-2.65.5-4.68-1.56-7.01-2.38-3.84-.36-6.18 3.19-8.48 5.64-.78-6.22 2.47-13.43 9.21-14.49 3.26 2.64 8.61 3.8 11.78.39-.74-3.54-2.12-6.95-2.41-10.57.43-1.94 1.48-3.66 2.31-5.46 2.41 4.91 3.27 11.04 8.42 14.04 4.15-4.54 7.6-9.9 12.9-13.23m-9.9 13.69c5.2-.1 10.63-1.54 14.5-5.18 1.38-2.38-2.79-2.96-4.34-2.68-4.26 1.06-7.5 4.54-10.16 7.86ZM1026.82 15.73c2.28-.89 5.76-1.1 6.84 1.65 2.21 4.65-.63 9.58-2.35 13.91 14.74-6.08 29.59-12.13 45.01-16.22-.58 3.47-.71 8.25-4.78 9.46-13.72 3.95-26.91 9.49-39.99 15.15-13.24 5.86-26.37 11.96-39.18 18.7-2.02 7.49-4.3 14.93-5.27 22.65-1.13 5.53-2.02 11.77 1.11 16.83 1.12 1.91 4.09 2.97 5.84 1.27 3-2.41 4.28-6.16 6.37-9.28.17 3.85-1.16 7.5-2.06 11.18-.96 3.69-2.28 7.51-5.13 10.19-2.58 2.43-7.34 2.06-9.22-1.02-3.28-4.73-2.91-10.73-2.84-16.2.53-12.01 4.19-23.66 8.95-34.62-6.72 3.76-13.17 7.95-19.55 12.24-.36-4.24 1.05-8.93 4.87-11.25 14.43-9.83 30.14-17.63 46.04-24.78 2.52-1.31 5.97-1.85 7.23-4.73.97-2.19 2.38-5.11.68-7.3-2.06-1.98-4.67.55-6.76 1.21.84-3.18 1.45-6.87 4.19-9.04ZM1117.71 26.1c.92-4.6 2.83-9.53 7.27-11.77 3.49 1.83 6.53 4.86 7.58 8.75.44 3.19-.36 6.38-1.4 9.38-2.45-1.95-3.97-5.69-7.33-6.09-2.41 1.69-2.73 4.84-3.25 7.49-1.47 8.99-1.54 18.13-2.25 27.19-.4 3.2-.71 6.81-3.32 9.07-2.45-10.7-6.83-21.09-12.96-30.19-1.43 2.7-1.79 5.96-3.89 8.26-2.93 3.16-6.81 5.19-10.66 6.99-9.48 4.08-19.35 7.11-28.99 10.77-6.22 1.9-12.37 5.04-19.05 4.33 7.48-4.9 15.99-7.91 24.01-11.8 11.05-5.1 22.3-9.89 32.75-16.18-2.12-1.96-4.93-3.55-6.02-6.35-.32-4.41 2.09-8.4 3.75-12.34 6.5.14 10.79 5.6 13.71 10.77 3.61 6.17 5.52 13.1 7.59 19.88.52-9.41 1.13-18.83 2.46-28.16ZM1156.32 14.79c2.45 2.56 3.22 6.11 4.61 9.26 3.7 9.66 7.38 19.32 10.9 29.05 1.33 3.74 2.5 7.61 2.52 11.62-4.36-1.5-6.99-5.45-10.11-8.57 1.31 23.89 3.21 47.75 5 71.61.82 19.09 3.2 38.09 3.48 57.2.49 14.02-.87 28.17-5.19 41.55-1.73 4.77-3.08 9.87-6.49 13.77-.59-4.63.35-9.22.69-13.83 1.36-13.78.15-27.61-.63-41.38-1.19-14.66-1.93-29.35-2.85-44.02-2.23-25.53-3.38-51.13-5.34-76.68-.87-9.4.78-19.25-3.03-28.17-.86-1.7-.49-3.58.07-5.3 1.8-5.49 3.87-10.89 6.37-16.11ZM1176.32 26.87c.68-4.77 4.33-8.57 6.85-12.55 10.4 9.13 16.67 22.21 19.74 35.53 1.66 11.35 2.13 23.09-1.06 34.23-1.47 5.03-2.51 10.81-7.1 14.04-.7-4.47 1.44-8.6 2.12-12.91 2.67-14.56-1.62-29.48-9.05-42.01-3.21-5.87-7.71-10.88-11.5-16.33ZM1234.78 14.74c-.94 8.14-5.01 15.87-4.33 24.24.16 2 1.24 4.39 3.48 4.69 2.71-.86 3.75-3.91 5.4-5.99-1.06 4.6-1.15 10.37-5.37 13.37-2.96 1.8-5.94-1.37-6.3-4.21-1.68-11.16 2.24-22.23 7.12-32.1ZM1297.05 17.05c1.31-2.23 4.8-2.64 6.62-.81 2.6 2.49 5.21 5.84 4.69 9.68-.18 2.21-.82 4.34-1.47 6.45-2.34-2.16-4.36-4.65-6.98-6.49-1.65 1.68-3.13 3.65-3.4 6.05-2.09 11.06-1.11 22.46-3.31 33.52 19-6.43 38.25-12.12 57.42-17.99 3.57-2.75 5.66-7.03 7.96-10.85 1.53-2.93 3.38-7.7-.14-9.93-3.03-1.46-5.83.9-8.35 2.26.29-4.1 1.03-8.52 4.01-11.6 1.87-2.25 5.14-2.43 7.83-1.96 3.15.95 4.18 4.65 4.29 7.59-.05 8.57-4.68 16.17-9.55 22.89 37.84-11.27 76.08-21.13 114.43-30.49 1.91-.4 4.05-1.23 5.73.28-.99 5.98-4.88 11.75-10.96 13.4-12.6 3.9-25.96 5.05-38.45 9.21-3.2 9.73-5.22 19.78-6.9 29.87-.49 4.06-.04 8.5 2.47 11.87 1.15 1.46 3.52 2.51 5.16 1.15 3.27-2.27 4.64-6.19 6.78-9.39-.46 6.81-2.03 13.82-5.65 19.69-2.29 4.23-9.55 4.38-11.49-.23-3.93-8.16-2.16-17.53-1.03-26.14 1.79-9.29 5.06-18.25 9.05-26.81-54.26 13.18-107.8 29.35-160.34 48.24-3.35 10.67-6.19 21.51-7.86 32.57-1.52 6.92-2.42 14.61 1.24 21.04 1.34 2.28 4.5 4.48 7.09 2.83 4.7-2.74 6.2-8.34 9.39-12.42.33 4.81-1.48 9.35-2.61 13.93-1.14 4.68-2.78 9.45-6.02 13.11-3.38 4.05-10.88 3.76-13.45-1.01-2.26-3.79-2.89-8.28-3.43-12.59-.98-8.02 1.16-15.91 1.96-23.84 2.29-11.36 6.5-22.22 11.06-32.84-17.81 6.73-35.72 13.25-52.97 21.34-4.2 1.99-8.26 4.25-12.13 6.83 1.13 1.76 2.29 3.62 4.17 4.69 6.35 3.86 13.79 5.07 20.73 7.45-.54 5.27-3.15 9.93-6.6 13.83-7.83-1.66-15.82-4.22-21.96-9.55-4.03-3.63-4.5-9.47-3.41-14.47 1.64-5.84 4.37-11.73 9.14-15.65 5.79-3.91 12.36-6.46 18.73-9.27 23.34-9.86 47.4-17.86 71.32-26.17-2.88-9.19-6.67-18.24-12-26.3-2.04 3.02-2.19 7.18-5.31 9.46-7.73 6.28-17.64 8.79-26.79 12.28-8.56 2.84-16.88 6.61-25.74 8.45-1.29.26-5.6.85-3.13-1.19 18.08-9.51 37.53-16.33 55.1-26.83-2.7-2.29-7.7-4.85-6.12-9.1 1.14-3.17 1.93-6.64 4-9.36 3.48.03 6.77 1.79 9.02 4.41 6.51 7.37 9.26 17.03 12.08 26.22.49-6.81.82-13.64 1.44-20.44.09-5.89 1.38-11.9 4.64-16.87ZM1575.32 20.42c1.33-2.16 2.84-4.99 5.69-5.22 3.47-.45 5.72 3.1 6.88 5.89 1.7 3.58.01 7.56-2.09 10.56-1.58-2.02-2.8-4.37-4.79-6.01-1.76-.7-3 .39-3.67 1.9-3.84 7.57-3.98 16.23-5.92 24.35-1.17 4.41-1.42 9.67-5.23 12.76-.79-6.04-2.21-11.99-4.29-17.72-1.57-4.08-2.76-8.41-5.55-11.87-1.07.9-2.16 1.76-3.27 2.55-3.6-.99-6.72-4.05-7.72-7.63 1.05-3.83 3.16-7.27 5.43-10.5 7.4 1.4 11.18 8.72 13.46 15.19 2.07 4.98 2.69 10.36 3.72 15.61 2.47-9.91 3.13-20.42 7.35-29.86ZM1613.44 30.02c1.54-5.26 2.45-10.83 5.4-15.55 6.16 9.78 10.64 20.5 15.47 30.98 2.16 5.63 5.4 11.18 5.13 17.41-4.14-1.83-6.8-5.55-10.09-8.45-.44 8.61 1.43 17.07 2.15 25.61.82 9.6 2.4 19.11 3.46 28.68 2.31 23.08 5.98 46.2 4.86 69.45-.86 19.67-7.26 39.43-19.97 54.66-6.86 8.49-15.31 15.92-25.3 20.47-7.91 3.47-16.32 5.48-24.61 7.77-7.81 1.54-15.52 4.43-23.6 3.69 2.67-2.92 6.29-4.63 9.64-6.63 10.7-6.29 21.3-12.77 31.89-19.24 14.29-8.02 26.9-19.05 36.4-32.42 3.77-5.34 6.61-11.72 6.1-18.4-.66-14.31-1.73-28.61-3.18-42.86-1.67-12.58-2.45-25.26-4.37-37.8-1.93-19.17-4.97-38.22-6.1-57.46-.24-5.18-2.16-10.05-3.72-14.92-.76-1.65.06-3.36.44-4.99ZM203.43 19.24c3.07-3.7 8.2-3.63 12.57-3.71 8.13.01 16.69-.5 24.25 3.02 1.69.7 2.47 2.88 1.63 4.52-1.88 5.07-5.14 9.47-8.09 13.95-3.42 4.75-7.19 9.8-12.84 11.98-7.78 3.16-15.85 5.5-23.9 7.83 8.74-8.73 20.83-12.81 30.39-20.43 1.23-.83-.46-2.31-1.44-2.35-9.82-2.46-20.02-1.03-29.99-1.37 2.23-4.59 4.24-9.41 7.42-13.44ZM930.31 34.05c1.63-6.76 4.04-13.42 7.52-19.46 4.59 9.19 7.63 19.05 11.45 28.57 2.29 7.09 5.96 13.95 6.19 21.54-4.39-1.41-7-5.38-10.12-8.48.64 13.62 1.72 27.23 2.61 40.84 1.83 19.27 2.5 38.63 4.25 57.91 1.38 22.62 3.85 45.87-2.5 68-1.95 5.97-3.59 12.28-7.49 17.34-.6-9.13 1.48-18.19 1.13-27.33-.23-16.03-1.4-32.04-2.61-48.03-1.12-19.31-2.47-38.61-4.03-57.9-.7-18.36-2.67-36.66-3.21-55.03.22-6.16-.96-12.25-3.19-17.97ZM1657.34 34.05c1.56-6.71 3.93-13.35 7.44-19.3 4.59 9.42 7.79 19.43 11.61 29.17 2.26 6.9 5.81 13.62 6.08 20.98-4.41-1.35-7-5.35-10.15-8.38.63 14.8 1.68 29.59 2.96 44.36 1.06 12.34 1.47 24.72 2.52 37.06 1.44 15.65 2.24 31.34 3.09 47.02 1.75 19.96.13 40.68-7.84 59.25-.75 1.96-1.96 3.68-3.26 5.29-.46-3.84-.18-7.7.33-11.51 1.25-13.27.63-26.63-.33-39.89-.51-15.38-1.95-30.72-3.03-46.07-1.12-23.38-3.58-46.67-4.55-70.06-.83-11.29-1.65-22.59-1.9-33.91-.13-4.84-1.74-9.41-2.97-14.01ZM91.08 17.94c7.22 3.86 9.98 16.24 3.04 21.64.3-2.55 1.18-5.01 1.32-7.58-.84-4.15-4.06-7.15-6.75-10.19.74-1.32 1.49-2.64 2.39-3.87ZM124.8 27.68c-.49-4.39 2.95-9.25 7.18-10.35 4.04.64 7.26 3.61 10.69 5.67-.52 1.79-1.08 3.56-1.62 5.33-4.6.53-9.3 1.12-13.58 2.99-1.46.56-2.13 2.1-3.02 3.27 3.49 8.95 7.04 19.09 3.72 28.61-.43 1.62-1.55 2.88-2.84 3.9-.12-3.73 1.31-7.34.91-11.07-.76-6.53-3.35-12.67-4.56-19.11-.69-3.44 1.57-6.39 3.12-9.24m1.75-1.76c2.25-.46 4.44-1.17 6.58-1.99-2.5-1.67-5.22-.51-6.58 1.99ZM173.5 27.98c-.19-2.87 1.45-5.62 3.67-7.34 1.61 6.99 2.01 14.19 3.38 21.22 1.42 7.14 2.25 14.38 3.3 21.59.54 2.43-.66 4.66-1.79 6.72-.79-1.31-1.79-2.56-1.99-4.12-2.08-12.71-4.83-25.3-6.57-38.07Z"/><path d="M1492.08 24.97c-.03-1.39.76-2.55 1.48-3.66 7.68 5.27 14.82 11.27 22.29 16.83 4.13 3.44 8.95 6.15 12.28 10.48-4.73 1.71-9.67-.15-14.37-.98 9.43 14.69 22.14 26.86 34.29 39.26 13.93 14.1 28.34 27.72 41.92 42.16 11.82 13.3 23.1 27.93 28.17 45.25 1.52 6.04 2.23 12.35 1.4 18.56-.96 6.32-1.25 12.76-2.92 18.96-2.9-7.69-2.45-16.16-5.05-23.95-5.37-17.14-16.97-31.44-29.05-44.38-20.27-20.69-42.64-39.35-61.42-61.47-6.61-7.66-12.26-16.11-17.16-24.95-2.65-4.26-4.8-9.03-8.82-12.21-1.08-1.16-3.11-1.96-2.95-3.81.08-5.37-.64-10.74-.09-16.09ZM763.13 34.03c.12-3.34-.61-6.98 1.34-9.95 9.93 6.32 18.78 14.21 28.31 21.13 2.16 1.91 5.29 3.39 6.09 6.37-4.7 1.33-9.45-.72-14.1-1.35 8.74 13.56 20.36 24.89 31.55 36.4 13.02 13.01 26.15 25.9 39.11 38.97 12.66 13.46 24.87 27.96 31.82 45.29 2.75 7.67 4.78 15.94 3.53 24.13-.88 6.5-1.72 13.01-3 19.45-2.76-6.65-2.52-13.98-4.22-20.87-4.92-18.64-17.33-34.12-30.34-47.87-10.2-10.44-21-20.27-31.45-30.46-15.16-14.57-30.52-29.37-41.83-47.26-3.49-5.54-6.43-11.44-10.17-16.82-1.71-2.55-4.39-4.2-6.4-6.47-.5-3.54-.13-7.13-.24-10.69ZM153.17 36.73c-1.67-3.92-1.18-8.98 1.93-12.07.31 2.16.45 4.33.54 6.51 1.42 1.33 4.03 2.33 3.01 4.71-1.71 7.28 2.85 13.96 2.93 21.16.33 3.65-.3 7.76-3.22 10.29-1.9 1.16-4.16-.03-6.19-.21-1.17 1.12-2.23 2.4-3.63 3.24-2.07.96-4.35.11-6.47-.2-4.65 3.31-10.53 4.29-16.09 3.27-3.82 1.6-8.24 2.89-12.21.97-3.51-1.26-5.26-4.95-5.85-8.4-.74-4.49-.93-9.06-1.67-13.56-2.07 6.28-4.45 12.83-9.73 17.16-7.28 7.23-17.6 9.93-27.5 10.99-1.39.22-2.8.09-4.12-.39 1.61-1.22 3.36-2.26 5.25-3 8.72-3.51 17.65-6.89 25.27-12.53 3.42-3.15 6.3-7.08 7.07-11.76.83-6.28.29-12.62-.5-18.87-.53-2.98.71-5.84 1.98-8.45 3.83 5.67 4.3 12.75 5.49 19.3 1.3 6.8.44 14.04 3 20.55 1.84 4.18 6.93 3.76 10.66 3.2 3.57-.29 5.82-3.31 8.53-5.24-.11 1.71-.22 3.43-.35 5.15 3.39-.64 6.75-1.57 9.76-3.29.61-1.93 1.34-3.82 2.17-5.67a37.23 37.23 0 0 1 1.72 5.13c1.28 0 2.56.03 3.84-.1.75-1.74 1.3-3.56 1.97-5.34 2.4 1.45 4.94 2.7 7.76 3.08.45-5.68-2.25-10.86-3.3-16.31-.78-3.08-1-6.3-2.05-9.32Z"/><path d="M73.12 27.06c4.33 1.06 8.08 3.66 11.81 5.99 5.69 3.98 11.21 9.03 13.41 15.83 1.99 5.16.84 11.41-3.05 15.4.12-2.79.94-5.52.85-8.31-1.58-5.79-5.29-10.87-10-14.55-4.44-.05-10.13.67-13.16-3.33-1.74-3.3-2.05-7.88.14-11.03ZM745.48 37.43c1.75-2.21 5.65-2.96 7.57-.56 1.98 2.15 1.51 5.43.98 8.05-2.37 7.86-7.55 14.97-14.58 19.29 3.4-5.49 8.55-9.94 10.64-16.2.44-1.38.51-3.39-.96-4.18-2.13-1.49-4.47.7-6.39 1.41.73-2.64 1.01-5.58 2.74-7.81ZM1465.45 37.34c2.39-1.81 6.16-2.63 8.62-.44 3.2 2.65 3.18 7.26 2.48 11.01-2.82 11.91-10.87 22.2-20.98 28.89 4.52-7.88 12.05-14.02 15.01-22.82.26-2.24.97-5.66-1.73-6.69-3.03-1.49-5.8 1.26-8.4 2.39.5-4.42 1.55-9.23 5-12.34ZM136.66 51.39c-4.87-2.01-1.79-8.52 1.73-10.32.09 2.02.06 4.04.14 6.06 1.54-2.04 2.71-4.41 4.85-5.92.16 1.48.28 2.97.38 4.46.29-.14.87-.43 1.16-.57.42-1.73.66-5.28 3.38-3.42 1.34 4.54-2.69 9.9-7.62 8.26-1.34.47-2.68.96-4.02 1.45ZM408.62 71.13c-1.17-11.33 1.88-23.04 7.65-32.77-1.31 7.93-4.54 15.56-4.55 23.7.09 2.7 1.1 6.39 4.37 6.59 2.77-1.47 3.87-4.62 5.83-6.9-.59 4.26-1.73 8.48-3.55 12.37-.75 1.88-2.76 2.59-4.37 3.5-3.1-.75-5.18-3.31-5.38-6.49ZM1597.49 51.18c.88-1.78 1.47-4.09 3.48-4.94-3.8 10.25-6.31 20.95-8 31.74-.99 4.5-.96 9.42 1.25 13.57.87 1.8 2.85 3.07 4.9 2.79 4.05-2.08 5.28-6.84 8.05-10.13-.22 4.1-1.54 8-2.53 11.95-.87 3.47-2.35 6.92-4.92 9.47-2.55 2.59-7.5 2.26-9.37-.95-3.09-4.62-3.18-10.38-3.03-15.73.67-13.15 4.76-25.85 10.17-37.77ZM868.77 49.69c.62-1.24 1.52-2.29 2.4-3.36-2.59 9.44-5.68 18.79-7.1 28.51-.95 5.35-1.91 11.22.48 16.34.76 1.93 2.84 2.65 4.52 3.57 4.29-2.16 5.85-6.87 8.65-10.42-.1 4.37-1.67 8.49-2.75 12.67-.84 3.15-2.2 6.27-4.55 8.58-2.7 2.77-8.08 2.22-9.8-1.36-3.8-7.05-3.3-15.42-1.84-23.04 1.49-10.99 5.38-21.47 9.99-31.49ZM166.2 61.01c-.56-2.95.93-5.7 3.2-7.47 1.5 9.47 2.69 18.99 4.53 28.4 1.23 5.6 2.56 12.24 8.32 14.93-.91-2.56-2.6-5.13-1.93-7.97 1.14-4.85 4.62-9.13 9.16-11.21 2.83-.95 6.39-.95 8.53 1.45 2.04 1.46 1.97 4.21 2.51 6.41-3.31-1.46-6.73-3.97-10.54-2.8-2.61.4-4.43 2.38-6.16 4.18 1.53 3.61 3.93 7.55 8.19 8.15 4.49.65 7.28-3.53 10.4-5.97 2.22-.76 1.21 2.04.87 3.21-4.62 6.9-13.16 10.15-21.21 10.23-4.3-.07-7.2-3.4-9.15-6.85-1.33 2.95-2.66 6.54-5.9 7.84-2.9.61-5.2-1.79-7.62-2.95-3.6 3.59-8.64 4.98-13.42 6.25-8.55 1.66-17.32 2.26-26.02 1.86-6.13-.38-12.73-1.96-16.89-6.81-3.04-3.25-3.64-7.83-4.53-12-1.67 1.45-3.07 3.59-5.41 3.92-3.87.51-7.95-.46-11.12-2.74.53-7.63 9.63-7.52 14.61-10.96.07-2.72.61-5.42 1.69-7.92.41.01 1.23.02 1.64.03 3.01 7.01.42 15.46 4.74 22.03 4.22 6.3 12.33 7.68 19.34 8.19 8.67.32 17.39-.46 25.89-2.2 3.8-.73 6.92-3.1 10.16-5.04 2.77.94 5.28 2.55 8.17 3.19 2.13-.91 1.22-3.6 1.39-5.4-.9-10.69-2.27-21.32-3.44-31.98M87.36 88.18c2.7.56 5.77 2.01 8.41.46 2.05-1.12 1.63-3.72 1.94-5.66-3.45 1.73-6.94 3.39-10.35 5.2ZM703.89 68.19c1.26-2.26 3.25-5.03 6.2-4.67 3.82 1.93 6.33 6.9 4.56 11.02-.43 1.1-.73 2.71-2.28 2.33-1.2-1.28-2.14-2.78-3.43-3.96-1.78-1.28-3.08.93-3.77 2.26-2.44 5.35-2.77 11.32-4.06 16.99-1.11 4.76-1.21 10.25-4.97 13.85-1.31-8.83-3.78-17.72-8.42-25.4-.92.8-1.86 1.56-2.84 2.27-2.96-.69-5.2-3.24-6.46-5.88.1-3.61 2.64-6.67 4.48-9.65 6.1 1.22 9.4 7.09 11.35 12.46 1.95 4.38 2.42 9.17 3.43 13.8 2.01-8.48 2.68-17.35 6.21-25.42ZM1130.76 65.08c-1.61 8.3-4.79 16.39-5.18 24.91.01 2.66 1.31 6.51 4.51 6.51 2.28-1.73 3.56-4.37 5.27-6.62-.73 4.37-1.64 8.85-3.95 12.7-1.33 2.32-5.06 2.83-6.84.83-2.23-3.37-2.47-7.61-2.15-11.53.91-9.38 3.86-18.53 8.34-26.8ZM755.7 71.71c1.6-3.14 4.53-6.28 8.35-6.04 4 .93 6.02 4.82 7.47 8.29-.89 2.42-2.02 4.75-3.45 6.9-1.88-1.74-3.27-4.03-5.47-5.39-2.95-1.27-4.6 2.39-5.57 4.52-4.46 10.83-4.84 22.77-8.16 33.93 5.7 1.62 10.82 5.18 14.71 9.61 2.94 3.42-.3 7.74-2.21 10.79-7.05 2.66-15.1 3.03-21.26 7.78 4.22 17.7 7.19 35.76 7.69 53.97.14 6.17-.18 12.49-2.57 18.26-1.29-6.66-.16-13.48-1.02-20.18-1.44-10.08-2.76-20.18-4.35-30.23-1.49-8.69-3.93-17.58-2.07-26.41 1.9-5.99 8.33-8.43 13.86-9.89-1.84-1.47-4.05-3.19-6.56-2.27-2.08 1.64-3.62 3.85-5.53 5.66.25-5.94 1.25-12.83 6.53-16.51-1.49-7.25-3.98-14.23-6.37-21.22-1.23-3.1-2.15-6.38-4.05-9.15-2.06.49-4.01 2.8-6.17 1.35-2.44-1.36-4.93-3.09-6.22-5.65.2-3.67 3.21-6.46 5.15-9.39 3.29-.91 6.66.95 9.04 3.15 6.32 6.33 9.19 15.17 10.68 23.8 2.37-8.59 3.72-17.55 7.55-25.68ZM653.71 68.53c1.68-1.22 1.64 1.74 1.24 2.68-2.79 7.64-3.99 15.69-5.66 23.62-.99 4.98-1.25 10.69 1.84 15.02 1.28 2.29 4.72 2.81 6.65 1.06 2.83-2.55 4.25-6.21 6.48-9.23-.89 7.23-2.27 14.88-6.49 20.99-2.67 3.99-9.71 3.86-11.82-.62-3.03-6.72-3.18-14.42-1.8-21.57 1.09-11.13 4.78-21.91 9.56-31.95ZM310.96 73.58c.56.47 1.14.94 1.71 1.41-2.88 7.78-4.06 16.01-5.75 24.09-.79 4.56-.63 9.84 2.61 13.47 1.27 1.53 3.81 1.67 5.24.27 2.63-2.44 3.99-5.86 6.1-8.7-.81 6.57-2.13 13.39-5.74 19.06-2.4 3.85-9.03 3.97-11.05-.32-2.94-6.13-2.72-13.24-1.7-19.82.85-10.3 4.79-19.96 8.58-29.46Z"/><path d="M134.75 82.82c2.76-1.17 6.14-3.11 9.07-1.5.38 3.08-1.51 5.87-3.03 8.38-2.32 2.68-6.02 3.48-9.17 4.8-.52-.56-1.03-1.13-1.52-1.71 2.69-2.48 6.48-3.41 9.01-6.15-2.83.73-5.56 1.76-8.37 2.55.47-2.55 1.38-5.32 4.01-6.37ZM1027.8 84.83c2.59-3.18 8.33-4.16 10.98-.52 2.91 4.65 1.35 10.45-.29 15.27-3.89 9.5-10.68 18.03-19.51 23.35 4.8-7.44 11.71-13.62 14.91-22.06.88-2.26 1.28-5.24-.78-7-3.1-1.55-6.38.4-9.06 1.87.77-3.74 1.12-7.9 3.75-10.91ZM353.48 88.52c2.76-4.41 10.08-5.93 13.5-1.46 3.29 5.37 1.76 12.13-.11 17.74-4.52 11.43-12.57 21.81-23.16 28.17 5.49-8.84 13.8-16.04 17.47-26 .81-2.81 1.57-6.92-1.42-8.71-3.57-1.91-7.04 1.1-10.09 2.65.6-4.28 1.1-8.84 3.81-12.39ZM1304.36 86.02c6.4 3.19 12.46 7.29 17.74 12.11-.75 6.19-4.83 11.52-7.98 16.78-5.95-4.19-11.77-8.57-18.01-12.31 2.84-5.49 5.32-11.15 8.25-16.58ZM1453.09 91.96c2.98-4.01 8.37-4.23 12.93-4.31 8.43-.02 17.34-.47 25.16 3.2 3.48 2.03.94 6.12-.42 8.68-4.65 7.5-9.16 15.7-16.64 20.74-8.64 4.08-17.92 6.71-27.14 9.14 9.45-8.93 22.16-13.19 32.05-21.52-2.66-1.75-5.84-2.32-8.95-2.48-5.39-.28-10.8-1.04-16.18-.31-2.62.33-5.26.34-7.86 0 2.1-4.5 4.18-9.08 7.05-13.14ZM1380.2 101.06c1.93-4.39 3.96-8.74 6.4-12.87 6.33 3.59 12.54 7.55 17.89 12.53-1.82 5.93-4.91 11.36-8.37 16.47-5.63-3.73-10.81-8.2-16.84-11.28-2.07 4.21-4.12 8.43-6.48 12.48-6.03-4.07-11.93-8.35-17.97-12.37 2.11-5.19 4.74-10.17 7.25-15.17.71-1.79 2.61-.41 3.79.07 4.97 3.08 9.8 6.42 14.33 10.14ZM780.14 101.09c1.18-2.65 2.02-5.52 3.9-7.8-1.81 7.53-4.31 14.94-5.26 22.67-.28 2.79.14 6.13 2.51 7.97 1.13 1.34 2.99.19 3.73-.96 1.28-1.63 2.23-3.48 3.59-5.05-.28 3.79-1.52 7.45-2.94 10.95-.82 2.24-2.99 4.27-5.53 3.8-2.78-.26-3.84-3.4-4.35-5.71-1.25-8.83 1.23-17.68 4.35-25.87ZM1091.25 94.13c1.73.13 3.13 1.23 4.57 2.11 4.63 3.03 9.24 6.12 13.43 9.75-1.46 6.11-4.84 11.49-8.22 16.69-5.68-3.75-11.11-7.88-16.86-11.52-1.95 4.42-3.98 8.85-6.83 12.77-5.86-4.34-11.86-8.47-17.92-12.51 3.08-5.33 5.11-11.2 8.46-16.36 6.17 3.05 11.72 7.24 17.13 11.46 2.06-4.13 3.74-8.48 6.24-12.39ZM86.62 105.66c3.63-1.28 6.74-3.56 10.01-5.52-.68 4.44-4.71 7.22-8.57 8.79-3.88 1.85-8.3 2.12-12.49 1.46 3.02-2.85 7.42-3.03 11.05-4.73ZM266.22 124.16c1.64-5.69 2.43-12.69 7.86-16.2 3.31-1.62 6.01 1.88 7.45 4.43 2.14 3.66.79 8.09-1.44 11.36-1.81-2.42-3.55-4.97-6.17-6.6-4.95 5.24-5.44 12.95-6.65 19.72-1.48 6.47-1.87 13.57-5.89 19.11-2.41-9.81-4.29-20.18-9.9-28.78-1.1.81-2.24 1.57-3.41 2.26-3.74-.82-5.95-4.23-7.73-7.31 1.66-3.46 3.32-6.94 5.48-10.13 7.49 1.11 11.05 8.66 13.34 15.01 1.98 4.69 2.43 9.78 3.49 14.7 1.8-5.72 1.84-11.82 3.57-17.57ZM471.42 112.56c3.19-1.46 6.46 1.58 7.61 4.41 2.27 4.52.94 9.69-.96 14.07-1.91 4.75-5.84 9.09-11.01 10.16-3.22.72-7.14-1.71-6.86-5.26-.57-5.17 2.07-9.83 4.12-14.37 1.87-3.3 3.63-7.1 7.1-9.01m-8.33 18.74c3.72 1.69 8.24 2 11.82-.24 2.46-1.95 2.08-5.98.22-8.21-1.44-1.98-4.17-1.88-6.31-2.49-2.57 3.21-5.41 6.65-5.73 10.94Z"/><path d="M1322.23 111.89c6.28 3.41 12.45 7.31 17.66 12.22-.73 6.23-4.88 11.44-7.92 16.76-5.64-3.86-11.16-7.89-16.9-11.6-1.87 4.49-4.07 8.85-6.8 12.88-5.76-4.44-11.77-8.52-17.86-12.48 2.83-5.48 5.15-11.24 8.34-16.54 6.18 3.15 11.86 7.23 17.21 11.64 1.9-4.38 3.98-8.69 6.27-12.88ZM132.19 118.85c1.03-1.23 1.92-2.57 2.87-3.87 2.73.83 5.34 2.01 7.68 3.64-1.29 1.84-2.6 3.67-3.94 5.49a140.74 140.74 0 0 1-6.84-3.68c-1.06 1.56-2.15 3.09-3.27 4.61-2.44-1.15-4.8-2.47-7.1-3.88 1.04-1.75 1.89-3.66 3.35-5.1 2.54.57 4.83 1.86 7.25 2.79ZM1525.89 117.81c1.21-1.84 3.81-3.26 5.8-1.6 5.54 3.47 7.08 11.12 3.72 16.65-2.16-1.8-3.44-5.08-6.4-5.65-2.38.04-3.01 2.83-3.43 4.69-2.29 10.9-1.67 22.12-3.22 33.12-.18 2.18-1.5 4.03-2.5 5.89-2.83-10.57-7.17-20.73-12.81-30.11-2.47 2.08-2 5.81-4.33 7.98-4.25 4.54-10.24 6.75-15.82 9.14-9.29 3.41-18.61 6.69-27.91 10.04-4.91 1.63-9.94 3.34-15.17 3.04 6.64-4.52 14.3-7.21 21.5-10.72 12.01-5.51 24.2-10.73 35.63-17.43-2.44-2-5.64-3.79-6.51-7.02.43-4.11 2.34-7.87 4.04-11.58 4-.04 7.49 2.23 9.93 5.27 5.96 7.21 8.79 16.35 11.19 25.24.67-5.58.69-11.21 1.38-16.78.69-6.86.66-14.35 4.91-20.17ZM430.02 130c.99-4.11 1.74-9.34 5.94-11.44 3.2-.09 5.45 2.81 7.08 5.23 2.31 3.39 1.33 7.66.15 11.27-2.06-1.78-3.69-4.17-6.21-5.33-2.54.16-3.11 3.37-3.46 5.39-1.7 10.58-.05 21.34-1.07 31.97-.1 1.96-1.34 3.56-2.34 5.16-1.12-4.66-2.88-9.12-5.08-13.37-2.7-5.15-5.18-10.53-9.06-14.92-1.09 3.34-1.65 7.11-4.43 9.56-5.6 5.18-12.87 7.99-19.73 11.07-8.6 3.53-16.99 7.56-25.72 10.79-2.59 1.02-5.39 1.27-8.15 1.39 4.98-3.92 10.81-6.51 16.31-9.58 12.28-6.69 24.91-12.82 36.49-20.7-2.41-1.79-5.87-3.32-6.55-6.51.47-3.67 1.29-7.45 3.06-10.73 2.4-1.44 5.4.6 7.49 1.96 7.87 6.35 11.06 16.33 14.72 25.36.13-8.85-.31-17.75.56-26.57ZM987.91 134.54c.85-2.82 2.28-5.94 5.15-7.19 2.85-.52 4.77 2.32 5.53 4.69.86 2.56-.37 5.13-1.42 7.41-1.46-1.39-2.34-3.59-4.24-4.4-2.14-.21-2.48 2.19-3.19 3.65-3.28 8.08-1.72 17.86-7.15 25.08-.97-7.71-3.47-15.1-6.89-22.04-1 .72-1.98 1.46-2.95 2.21-2.18-1.49-5.03-3-5.49-5.84.8-2.52 1.95-5.18 3.87-7.03 3.85-.58 6.24 2.96 7.94 5.84 2.49 4.58 3.78 9.75 4.61 14.88.16.01.48.04.64.05.51-5.89 2.2-11.58 3.59-17.31ZM87.85 131.71c3.03-2.13 7.38-3.51 10.72-1.25 4.08 2.6 5.07 8.09 4.42 12.57-2.53 15.23-12.26 28.34-24.12 37.8-1.19.84-2.44 1.57-3.76 2.19 2.54-4.87 6.79-8.51 9.81-13.06 4.17-5.84 9.1-11.71 10.29-19.01.66-2.8-.9-6.54-4.12-6.64-3.53-.6-6.42 1.71-9.28 3.35.5-5.69 1.57-11.95 6.04-15.95ZM1063.8 134.8c1-2.04 2.73-4.35 5.24-4.32 4.82 1.69 6.23 8.53 2.59 12.06-1.51-1.6-2.39-4.93-5.18-4.21-3.96 5.33-3.55 12.36-5.18 18.53-1.07 3.4-.94 7.71-4.15 9.95-.6-7.58-3.19-14.91-6.73-21.59-2.9 3.57-7.2-.13-8.2-3.35.04-2.32 1.39-4.34 2.52-6.28 1-2.41 4.12-1.24 5.61.04 5.66 5.34 6.76 13.41 8.51 20.61 1.15-7.24 2.32-14.56 4.97-21.44Z"/><path d="M1394.06 153.95c-.37-7.94.62-16.45 5-23.29 5.91 9.47 8.39 20.61 10.97 31.34 3.33 12.63 3.89 25.98 8.88 38.16 2.17 5.82 6.27 11.49 12.63 13.01 13.11 2.12 27.26-1.51 37.27-10.39 5.1-4.52 9.91-9.36 14.75-14.16 2.5-2.44 4.98-5.84 8.96-5.15-.63 5.44-2.43 11.02-.77 16.46 2 5.09 7.25 7.84 12.27 9.17 7.82 1.68 16.52.92 23.13-3.93 5.7-3.76 8.8-10.03 12.48-15.56 2.54-3.76 4.5-8.19 8.6-10.57 2.65 4.57-.7 9.6-1.69 14.21 2.9 9.1 14.58 13.43 22.8 8.95 3.66-2.2-.91-5.03-2.18-7.22.19-3.17 1.54-6.09 2.4-9.1.99-3.13 1.59-6.47 3.51-9.21 4.09 2.64 4.72 7.97 5.74 12.34.46 9.78-1.51 20.26-7.78 28.06-4.61 5.9-12.7 8.75-19.99 7.05-6.22-2.09-9.95-7.93-13.24-13.22-4.06 6.92-9.16 13.66-16.48 17.35-6.2 3.42-13.62 3.79-20.47 2.63-5.68-.99-11.26-4.47-13.49-9.95-2.15-4.68-2.46-9.9-3.02-14.94-3.49 1.01-5.48 4.14-7.75 6.69-5.11 5.89-10.24 11.99-17.02 16.02-7.41 4.82-16.37 7.21-25.2 6.29-7.85-.77-14.94-5.65-19.23-12.16-3-4.29-4.33-9.41-6-14.3-1.01 8.98-4.72 18.03-11.65 24.04-3.35 2.94-8.09 4.11-12.4 2.96-7.11-1.18-12.99-6.25-16.52-12.35-1.78-3.12-3.08-6.47-4.64-9.69-3.33 7.58-6.79 15.61-13.53 20.82-6.15 5.02-15.18 5.81-22.35 2.67-7.88-4.14-10.4-13.51-11.7-21.64-4.7 7.36-9.76 15.04-17.55 19.46-6.05 3.87-13.8 3.58-20.51 1.94-8.94-2.44-14.12-10.73-21.65-15.44-6.67-3.96-14.78-1.82-21.7.23-18.75 6.83-33.64 21-46.59 35.73-11.11 12.32-20.55 26.09-32.26 37.88-5.85 5.85-13.44 11.21-22.1 10.76-6.21.07-12.01-3.27-16.13-7.74-7.48-7.61-10.7-18.71-9.95-29.2 1.05-11.55 4.57-22.76 9.19-33.35-17.39 15.54-36.82 29.11-58.3 38.34-14.74 6.08-30.94 9.89-46.93 7.66-8.77-1.09-17.37-3.95-24.75-8.87-9.81 5.48-19.48 11.45-30.11 15.21-28 5.53-55.3 14.58-83.66 18.28.1-.35.31-1.06.42-1.41 33.14-16.03 67.81-28.7 100.79-45.11-8.14-12.6-11.13-27.89-10.89-42.72-.07-9.85 1.93-19.57 4.38-29.07 1.36-3.45 1.73-7.78 5.16-9.94.04 5.47-1.77 10.72-2.47 16.11-.78 6.3-2.32 12.5-2.85 18.84.38 15.32 8.59 30.22 21.24 38.82 16.67-9 33.07-18.85 47.63-31.05 2.82-2.69 6.55-5.41 7.14-9.5-1.42-3.17-4.15-5.7-7.4-6.91-8.96-2.74-18.63-.33-27.53-3.32-5.68-1.34-11.05-5.8-11.74-11.85-1.06-7.85.67-16.11 5-22.76 3.95-6.12 9.47-11.87 16.79-13.59 7.02-1.41 13.63 3.05 17.81 8.34 9.08 11.79 14.69 26.84 13.12 41.85-.42 12.83-4.51 26.08-13.72 35.36-8.09 8.27-17.56 15.03-27.2 21.35 16.13 2.8 32.65-.44 47.85-5.97 24.61-9.26 46.82-24.06 66.57-41.27 3.19-3.19 7.12-6.03 8.91-10.3-.13-5.9-5.35-10.03-10.37-12.09-9.28-3.76-19.46-1.56-29.14-2.46-5.98-.54-11.19-5.05-12.96-10.72-2.25-6.71-1.02-14.05 1.39-20.54 3.14-6.96 7.29-13.97 13.83-18.22 5.7-3.69 13.01-1.78 18.59 1.17 8.94 5.3 15.4 14.06 19.68 23.4 5.43 11.95 6.2 25.43 4.65 38.31-1.42 7.6-3.89 15.23-8.7 21.4-2.02 2.75-4.82 5.04-5.75 8.45-3.28 9.31-7.04 18.52-9.05 28.21-1.41 7.75-2.58 16.54 1.79 23.58 3.51 5.88 11.3 8.1 17.6 5.8 8.81-3.12 15.88-9.61 22.3-16.18 10.37-11.98 20.55-24.11 30.89-36.12 12.95-14.16 27.38-27.89 45.41-35.25 7.68-2.66 16.41-5.19 24.25-1.64 9.06 3.17 14.81 11.68 23.64 15.29 6.55 3.11 14.36 2.58 20.99-.05 5.78-2.07 9.29-7.41 13.54-11.5 3.83-3.68 6.88-8.31 11.59-10.95.51 4.69-3.4 8.88-1.89 13.56 1.71 4.98 5.01 10.1 10.38 11.57 6.41 1.28 12.97-1.18 18.05-5.03 6.34-4.86 10.71-11.75 14.34-18.76 1.03-1.85 2.11-4.74 4.8-3.6.45 3.56-.84 7.1-.29 10.67.76 4.28 2.92 8.53 6.67 10.94 5.78 3.79 13.66 4.22 19.84 1.11 5-2.77 6.74-9.06 5.94-14.41-2.36-14.94-6.01-29.64-10.31-44.12m-301.68 5.34c-1.67 3.24 1.59 6.61 4.71 7.15 6.34 1.24 12.86 1.13 19.27 1.93-3.65-5.42-8.67-10.65-15.42-11.72-2.98-.37-6.85-.25-8.56 2.64m-82.21 13.63c-1.94.85-2.88 3.14-2.34 5.15.83 2.63 3.69 3.84 6.19 4.31 5.59.77 11.27.34 16.86-.31-2.7-3.66-5.67-7.4-9.86-9.38-3.44-1.59-7.4-.95-10.85.23Z"/><path d="M1354.59 134.65c2.3-1.5 5.44-2.83 8.02-1.13 3.01 1.57 3.72 5.36 3.59 8.45-.61 8.04-4.67 15.41-9.68 21.55-3.57 3.93-7.24 8-12.05 10.42 5.11-7.09 11.48-13.42 15.03-21.52.95-2.34 1.73-5.61-.43-7.54-3.05-1.81-6.36.23-9.02 1.76.39-4.27 1.19-8.96 4.54-11.99ZM151.37 142.41c2.95-1.19 5.02 1.81 6.24 4.03 1.65 2.78.38 6.08-1.21 8.56-2.03-1.26-2.92-4.32-5.42-4.62-3.14 2.31-3.25 6.64-4.32 10.09-1.91 7.02-1.27 15.11-5.96 21.09-1.41-7.99-3.55-15.99-7.49-23.14-1.43.2-2.63 1.28-4.1 1.27-2.2-1.17-4.5-3.08-4.96-5.66.33-2.51 1.77-4.71 3.09-6.82 1.19-2.37 4.45-.68 5.87.69 5.47 5.49 7.59 13.49 8.49 20.98l.82-.04c.92-6.23 2.07-12.47 3.81-18.53 1.08-2.91 2.15-6.44 5.14-7.9ZM648.17 142.56c2.28-1.87 6.25-1.04 7.18 1.89.81 3.55.23 7.35-1.31 10.62-2.83 6.18-7.35 11.73-13.17 15.3 3.52-6.05 10.18-10.88 10.8-18.23-.15-4.17-5.3-2.33-7.44-.85.79-3.07.98-6.83 3.94-8.73ZM339.75 152.8c1.2-2.94 3.7-6.48 7.26-6.09 5.82 2.44 8.49 11.36 3.08 15.59-1.76-1.83-2.86-4.35-5.13-5.63-2.22.29-3.25 2.64-4.02 4.45-2.55 7.72-3.5 15.84-5.03 23.79-1.1 3.5-1.62 7.7-4.85 9.97-.54-4.77-1.16-9.58-2.89-14.1-1.8-4.76-2.98-9.91-6.03-14.07-1.47-1.25-2.29 1.55-3.4 2.08-3.55-1.26-6.79-4.03-7.72-7.78 1.14-3.49 3-6.7 4.98-9.78 4.67.26 8.09 3.64 10.2 7.54 3.96 6.58 5.33 14.24 6.97 21.63 1.89-9.25 3.04-18.79 6.58-27.6ZM796.74 154.44c1.22-2.79 3.61-4.82 6.31-6.11 3.92 1.63 6.8 5.4 7.16 9.66-.1 2.7-1.36 5.18-2.6 7.52-1.58-1.84-2.86-3.94-4.63-5.6-1-1.07-2.87-.72-3.48.57-3.37 5.16-3.82 11.47-5.07 17.35-1.26 5.88-1.72 12.02-4.22 17.56-.5 1.27-1.56 2.15-2.51 3.05-.92-5.5-1.76-11.04-3.78-16.27-1.77-4.42-2.83-9.27-5.88-13.05-1.39.74-2.61 1.78-4.08 2.32-3.23-1.4-5.93-4.1-7.08-7.45 1.08-3.88 2.98-7.58 5.65-10.61 6.66 1.31 10.32 7.6 12.65 13.39 2.07 5.35 3.56 10.92 3.95 16.67 1.37-2.43 1.6-5.24 2.14-7.92 1.34-7.14 2.66-14.35 5.47-21.08ZM274.68 164.44c1.93-4.44 3.22-9.35 6.43-13.08-2.51 9.65-5.75 19.15-7.03 29.08-1.29 5.25-1.1 10.99 1.85 15.67 1.11.47 2.23.94 3.35 1.41 4.08-2.09 5.86-6.47 8.24-10.09-.83 6.59-1.97 13.61-5.84 19.2-2.04 3.46-7.65 4.19-10.12.85-3.07-4.49-3.41-10.17-3.21-15.45.75-9.43 2.78-18.8 6.33-27.59ZM1199.37 161.39c2.97-4.33 10.66-5.16 13.59-.36 2.24 4.25 1.57 9.37.43 13.85a55.5 55.5 0 0 1-13.3 22.18c-3.3 3.3-6.58 6.82-10.92 8.76 5.71-8.26 13.12-15.47 17.25-24.77.99-2.35 1.03-4.94 1.18-7.45-1.13-.88-2.02-2.29-3.53-2.47-3.25-.67-5.99 1.53-8.73 2.83.63-4.35 1.15-9.04 4.03-12.57ZM1295.07 177.23c.99-3.95 1.97-8.63 5.89-10.74 5.84.03 7.53 8.25 4.1 12.22-1.62-1.51-2.43-4.54-5-4.62-3.43 3.79-3.74 9.23-4.61 14.04-.91 5.24-1.82 10.68-4.65 15.28-1.36-7.64-3.23-15.35-7.19-22.11-3.17 3.44-6.92-.36-8.31-3.43.37-2.92 2.12-5.51 3.89-7.79 3.06-.17 5.45 2.24 6.99 4.65 3.54 5.16 4.47 11.5 5.83 17.48.88-5.02 1.62-10.08 3.06-14.98ZM158.83 202c1.41-10.57 4.61-21.08 10.04-30.29-.83 5.62-3.36 10.81-4.17 16.44-.9 5.52-3.18 11.15-1.68 16.77.75 2.09 2.38 5.13 5.06 4.42 2.93-1.76 4.15-5.13 6.02-7.82-.64 5.44-1.56 11.23-4.81 15.78-1.87 2.89-6.78 3.02-8.46-.11-2.81-4.53-2.45-10.11-2-15.19ZM710.05 201.38c1.75-5.04 3.11-10.5 6.5-14.73-2.47 7.96-4.72 16.05-5.67 24.35.03 2.81 1.32 7.81 5.14 6.7 2.14-1.52 3.16-4.15 4.83-6.13-.67 4.52-1.61 9.25-4.27 13.06-1.74 2.73-6.31 2.32-7.39-.78-3.28-7.17-.84-15.21.86-22.47ZM1063.56 209.95c1.34-8.08 3.84-16.17 8.15-23.19-1.83 7.35-4.32 14.58-5.2 22.13-.26 2.93-.29 6.38 2.13 8.51 4.08 1.7 5.28-3.85 7.55-6.02-.74 3.93-1.67 7.88-3.28 11.55-1.15 2.59-4.78 4.65-7.14 2.29-3.75-4.08-2.44-10.24-2.21-15.27ZM91.6 209.9c2.63-5.64 5.14-11.34 8.24-16.73 4.7 2.46 9.04 5.55 13.37 8.6 1.57 1.25 3.4 2.33 4.44 4.1-1.53 5.8-4.72 11.06-8.08 15.98-1.55-.35-2.74-1.47-4.01-2.34-4.48-3.45-9.22-6.54-13.96-9.61ZM80.85 220.75c6.43-2.38 10.35 9.15 5.08 12.3-1.71-1.46-2.66-4.11-5.04-4.56-4.93 5.6-4.39 13.65-6.12 20.52-1.16 3.95-1.22 8.74-4.67 11.53-.8-8.46-3.41-16.92-7.83-24.2-.59.59-1.77 1.75-2.36 2.34-2.95-1.07-5.86-3.4-6.58-6.52 1.22-2.78 2.25-5.88 4.47-8.01 4.6.02 7.35 4.32 9.21 7.97 2.78 5.11 3.49 10.95 4.83 16.52 1.25-4.69 1.39-9.61 2.79-14.26 1.37-4.78 1.94-10.42 6.22-13.63ZM122.02 230.34c1.92-2.24 5.24-2.72 7.95-1.9 3.58 2.08 4.03 6.83 3.26 10.51-2.47 11.15-9.92 20.96-19.45 27.08 4.17-6.9 10.48-12.48 13.58-20.07.45-2.36 1.4-6.02-1.35-7.32-2.89-1.03-5.36 1.2-7.8 2.32.62-3.7 1.35-7.64 3.81-10.62ZM900.16 248.13c2.35-2.09 6.36-4.09 9-1.34 2.07 3.88-.06 8.27-1.45 12.01-1.49-1.19-2.48-3.67-4.71-3.47-2.48.13-4.44 1.96-5.96 3.74-1.66 1.18.35 2.78 1.34 3.52 1.69 1.29 3.71 2.02 5.65 2.86 5.46-2.06 9.29-6.85 14.83-8.77-.23 3.58-1.02 7.7-4.26 9.8-8.26 5.87-16.14 12.26-24.31 18.25.41-2.41.59-4.9 1.42-7.21 1.46-1.9 3.47-3.3 5.08-5.08-3.09-1.89-7.3-4.17-6.76-8.45.9-6.43 5.4-11.71 10.13-15.86ZM613.87 254.76c1.61-2.6 3.05-5.67 5.99-7.02 2.91-1.04 5.21 1.59 6.62 3.78 2.82 4.62 2.59 10.49 1.16 15.54-.66 2.09-1.82 5.24-4.62 4.58-4.93-1.17-8.65-5.06-11.98-8.67-2.15 8.36-6.96 15.9-13.54 21.48-6.66 5.49-13.95 10.49-21.95 13.81-10.08 2.19-19.85 5.87-30.06 7.39 1.11-.98 2.33-1.81 3.68-2.43 12.16-5.71 24.18-11.73 35.96-18.2 5.49-3.33 10.63-7.24 15.55-11.37 5.22-4.39 7.25-11.12 10.47-16.88.48-1.13 1.75-1.43 2.72-2.01m2.47 3.4c2.37 2.84 5.77 4.4 9.1 5.83-.24-3.32-1.77-6.88-5.25-7.84-1.35.53-2.59 1.31-3.85 2.01ZM788.8 254.75c1.66-2.6 3.09-5.75 6.1-7.04 2.92-.97 5.15 1.69 6.57 3.86 2.93 4.9 2.5 11.08.84 16.34-.63 1.92-1.94 4.34-4.35 3.73-4.93-1.16-8.62-5.07-11.94-8.66-1.76 6.22-4.66 12.21-9.06 16.99-5.91 6.65-13.54 11.4-21.15 15.85-5.58 3.46-12.32 3.67-18.38 5.88-5.66 1.3-11.19 3.3-16.97 3.95 1.13-1 2.38-1.84 3.76-2.49 12.11-5.66 24.07-11.67 35.8-18.11 5.51-3.33 10.67-7.25 15.6-11.41 3.96-3.29 6.14-8.06 8.32-12.6 1.24-2.35 2-5.39 4.86-6.29m2.49 3.38c2.34 2.87 5.76 4.42 9.09 5.85-.27-3.29-1.74-6.83-5.18-7.83-1.38.52-2.64 1.29-3.91 1.98ZM1349.7 249.52c.35-.83 2.15-2.59 2.55-.77 2.59 5.9.08 12.53-2.55 17.95-3.17 3.32-8 .99-11.45-.57-2.92 3.44-6.57 6.66-11.19 7.34-3.83-.06-7.1-3.24-11.01-2.71-7.53.91-13.85 5.79-18.81 11.23-4.34 5.07-8.78 10.04-13.2 15.04-4.48 5.1-11.01 7.57-17.36 9.41 5.24-5.08 11.85-8.57 16.9-13.91 6.06-6.65 10.91-14.29 16.9-21.01 4.71-5.11 10.49-9.94 17.61-10.93 5.07-.93 9.61 4.44 14.62 1.97 4.46-2.3 5.23-7.9 8.34-11.47 2.36 1.34-.22 4.85.08 7.13 2.58.29 5.18.45 7.79.5-.52-3.07-1.69-6.64.78-9.2ZM1498.55 253c.88-1.81 1.63-4.83 4.05-4.93 3.07 5.99.47 12.9-2.18 18.53-3.06 3.45-8.05 1.14-11.46-.51-3.1 3.57-6.96 7.11-11.93 7.41-3.76-.59-7.14-3.49-11.07-2.64-7.51 1.16-13.64 6.21-18.56 11.7-4.29 4.98-8.64 9.91-13.03 14.81-4.43 4.87-10.76 7.2-16.9 9.06 3.15-3.59 7.54-5.74 11.08-8.92 9.03-6.68 14.39-16.86 21.8-25.09 4.73-5.31 10.46-10.48 17.73-11.71 5.33-1.51 10.2 4.55 15.43 1.75 4.77-2.51 4.99-8.92 9.31-11.93-.02 2.46-.65 4.85-1.39 7.18 2.65.91 5.45 1.01 8.25.97-.41-1.89-.99-3.75-1.13-5.68ZM1204.94 251.83c3.55-2.67 8.36-3.23 12.63-2.29 9.45 2.22 17.85 7.53 25.42 13.44-8.47-5.14-16.98-11.13-27.02-12.54-4.08-.55-9.16-.15-11.59 3.66-1.28 4.03 1.41 7.73 4.14 10.41 3.18 3.68 8.23 4.93 11.47 8.48 3.43 4.09-.4 10.59 3.93 14.1 4.19 3.1 10.06-.85 11.28-5.29-2.76-1.01-7.64-1.63-6.71-5.74.93-4.79 2.9-11.77 8.87-11.93.36 1.7.72 3.4 1.02 5.12-1.48-.31-2.98-.66-4.46-.76-2.5 1.55-3.76 4.4-3.58 7.29 1.63.61 3.49.85 4.95 1.92 4.4 6.89-4.15 17.66-11.74 13.72-3.93-1.99-3.3-6.77-3.37-10.43.16-3.88-3.31-6.35-6.25-8.15-4.32-2.73-9.55-5.23-11.39-10.38-1.61-3.58-.78-8.2 2.4-10.63ZM459.09 250.89c4.8-1.15 10.19-1 14.69 1.18 3.19 1.6 3.52 5.8 1.99 8.69-4.26 9.47-12.58 16.13-18.59 24.39-1.8 2.63-3.62 6.82-.66 9.32 4.15 3 9.67 2.12 14.49 2.06 7.46-.19 14.32-3.38 21.57-4.68-6.29 8.28-16.58 12.4-26.65 13.58-5.24.45-11.71-1.11-14.05-6.35-2.12-4.21-.71-9.08.75-13.25 3.58-9.56 12.1-15.92 17.48-24.33-3.79-2.19-8.28-3.3-12.65-2.64-2.25.67-4.17 2.1-6.25 3.14 1.48-4.25 3.03-9.64 7.88-11.11ZM1248.95 250.31c7.65.87 15.37 4.9 19.1 11.86 2.57 5.64 3.83 12.26 1.6 18.23-1.25 4.43-4.31 8.08-7.95 10.78 2.93-5.58 5.39-11.41 6.84-17.57-6.12-8.11-14.36-14.52-19.59-23.3m5.85 4.48c4.76 5.55 9.71 10.93 14.1 16.8-.06-8.24-6.67-14.48-14.1-16.8ZM1392.83 262.75c8.92-4.7 18.03-9.18 27.65-12.3-.39 2.67-.86 5.33-1.24 8-27.61 12.87-55.01 27.48-77.54 48.28-.1-4.55-.11-10.14 3.97-13.12 14.75-11.66 30.65-21.85 47.16-30.86ZM268.53 287.97c1.36-12.37 4.96-24.69 11.34-35.41-1.91 8.54-5.01 16.79-6.1 25.52-1.46 5.65-1.98 13.66 4.25 16.61 3.82-1.96 5.48-5.99 7.64-9.43-.18 5.65-1.96 11.16-4.32 16.25-1.6 3.43-6.45 5.58-9.45 2.58-3.73-4.41-3.68-10.65-3.36-16.12ZM1523.87 261.95c1.46-3.18 2.35-6.75 4.94-9.26-3.1 10.58-6.53 21.25-7.18 32.33-.03 3.67.98 8.87 5.46 9.31 3.69-1.63 5.01-5.76 7.3-8.78-.91 6.02-1.81 12.47-5.47 17.51-2.04 3.11-7.07 3.29-9.16.15-2.12-3.67-2.63-8.05-2.63-12.22.56-9.98 2.79-19.84 6.74-29.04ZM404.45 255.07c1.44.07 1.17 1.89 1.62 2.86.84 5.07-.71 10.4-3.49 14.67-3.14.36-6.25-.22-9.11-1.51-2.49 2.88-5.57 5.51-9.42 6.22-3.66-.04-6.88-3.27-10.64-2.21-6.45 1.16-11.68 5.61-15.88 10.39-3.5 4.16-7.12 8.22-10.75 12.27-3.87 4.3-9.42 6.47-14.91 7.84 4.6-3.99 9.9-7.14 14.24-11.46 7.34-7.7 12.35-17.57 21-24.03 2.94-2.13 6.38-3.64 9.99-4.17 3.79.22 7.05 3.46 10.99 2.38 4.65-2.04 5.04-8.02 8.87-10.96-.12 2.3-.69 4.54-1.28 6.75 2.38.32 4.77.53 7.18.57-.41-1.65-.83-3.28-1.29-4.9.89-1.62 1.74-3.26 2.88-4.71Z"/><path d="M1250.65 257.85c4.92 5.03 6.55 12.34 6.58 19.18 2.23-.52 4.48-.86 6.77-1.14-1.56 5.76-2.88 12.5-8.2 16.05-1.39.96-3.44 3.13-4.98 1.27-1.13-2.07-1.73-4.4-3.02-6.37-.9 4.5-.81 9.46-3.62 13.34-3.06 4.2-8.8 4.87-13.58 5.24 4.23-2.6 9.32-4.33 12.25-8.62 3.16-3.82 1.86-9.4 4.61-13.42.35-.1 1.05-.3 1.4-.41 1.28 2.12 1.94 4.53 3.04 6.75 2.96-.05 2.94-3.59 4.41-5.46l-.24 3.75c3.01-1.63 4.19-4.93 5.44-7.89-2.33.84-4.59 1.79-6.87 2.71 1.56-6.32 1.15-13.24-3.01-18.54-.29 5.34 0 10.69-.11 16.03-1.35-7.37-2-15.03-.87-22.47ZM1611.62 266.6c4.52-2.8 8.88-5.94 13.86-7.91-.78 3.14-.24 7.49-3.74 9.05-18.52 11.81-36.4 24.66-53.31 38.68.28-4.2 0-9.4 3.99-12.03 12.56-9.94 25.82-18.99 39.2-27.79ZM847.87 284.02c1.63-6.33 3.86-12.57 7.04-18.3-1.52 9.42-6.25 18.64-4.37 28.38.44 2.11 2.93 3.64 4.85 2.25 1.77-1.76 2.82-4.09 4.38-6.02-1.2 4.62-1.42 10.02-4.76 13.73-1.88 2.43-5.87 1.62-7.02-1.1-2.64-6.02-1.16-12.73-.12-18.94ZM1187.32 275.18c1.36-3.28 2.53-6.68 4.53-9.64-1.77 8.13-4.87 16.05-5.3 24.43-.18 2.74.81 7.03 4.29 6.91 2.73-1.06 3.68-4.33 5.63-6.36-.95 4.77-1.74 10.09-5.04 13.86-2.82 2.8-6.86.02-7.51-3.26-1.89-8.74.47-17.71 3.4-25.94Z"/><path d="M1241.74 283.78c1.83-4.54-1.37-10.37 2.61-14.09.56.9 1.14 1.8 1.73 2.71-3.81 3.47-.77 9.15-2.18 13.53-.77 4.7-5.19 7.09-9.18 8.71-.07 1.24-.13 2.48-.17 3.73-2.08.74-4.24 1.22-6.39 1.59.04-1.47.11-2.92.2-4.38 6.48-.6 11.26-6.02 13.38-11.8ZM228.23 276.11a75.869 75.869 0 0 1 17.59 12.11c-.84 6.15-4.73 11.46-7.93 16.66-5.69-3.76-11.17-7.83-16.88-11.56-2.03 4.34-3.72 9.05-6.94 12.66-5.76-4.06-11.49-8.18-17.4-12.03 1.88-5.8 5.14-11.33 8.01-16.8 6.12 3.28 11.84 7.28 17.19 11.68 2.01-4.29 3.83-8.7 6.36-12.72ZM1246.97 300.8c2.1-.49 4.2-.97 6.33-1.39-.19 1.43-.46 2.85-.8 4.25-1.89 1.41-4.33 1.54-6.55 1.94.32-1.6.67-3.2 1.02-4.8Z"/></g></svg>