<svg xmlns="http://www.w3.org/2000/svg" width="500" height="53" viewBox="0 0 501 53"><path style="stroke:none;fill-rule:nonzero;fill:#000;fill-opacity:1" d="M381.215 4.55c.601-.413 1.273.204 1.508.755.27.52-.028 1.074-.286 1.527-.289.54-.832.86-1.32 1.188-.734.476-1.629.796-2.508.605-.441-.074-.828-.367-1.273-.387-.516.102-.813.594-1.184.922-.03-.058-.097-.172-.129-.226.309-.598.582-1.282 1.157-1.68.465-.336 1.12-.024 1.558-.426.875-.7 1.582-1.594 2.477-2.277m-.488 1.36c-.688.23-1.036.929-1.313 1.542 1-.043 1.95-.46 2.7-1.121-.4-.285-.884-.586-1.387-.422ZM408.39 4.816c1.126.711 1.868 1.895 2.278 3.141.539 1.711.73 3.656 0 5.34.02-1.93 0-4-1.086-5.672-.36-.633-.953-1.07-1.418-1.61-.3-.394-.027-.863.227-1.199ZM429.863 7.133c.102-1.067.852-2.156 1.961-2.344.301.32.563.707.582 1.164.117.89-.258 1.953.457 2.668.344.34.11.824-.031 1.203-.48-.074-.965-.367-1.45-.215-.058-.242.036-.496-.058-.726-.414-.64-1.281-.969-1.46-1.75m1.023-.766c.191.309.281.785.715.824.128-.402.02-.832-.375-1.03-.086.05-.254.155-.34.206ZM455.547 5.473c.887-.235 1.765-.508 2.68-.633-.059.441-.082 1.062-.633 1.164-2.418.707-4.871 1.289-7.278 2.047-5.992 1.824-11.968 3.691-17.953 5.547-.66.195-1.281.484-1.925.714-.004-.503.167-1.078.699-1.257 2.543-.996 5.16-1.793 7.754-2.653a347.807 347.807 0 0 1 16.656-4.93ZM362.195 5.46c.38-.187.739-.46 1.18-.476-.055.516-.238 1.079-.727 1.332-1.5.801-3.023 1.559-4.53 2.336-1.067.516-2.087 1.133-3.188 1.57a14.86 14.86 0 0 1-.254-.245c.258-.383.484-.84.93-1.047 2.187-1.176 4.386-2.32 6.59-3.47ZM371.16 8.668c-.172-1.273-.148-2.73.762-3.742 1.008 2.07 1.598 4.304 2.332 6.472-.129.086-.25.176-.371.262-.188-.36-.375-.723-.567-1.082-.433.172-.253.688-.27 1.047.352 3.398.79 6.79 1.118 10.188.328 3.257.484 6.527.57 9.796.012 1.34.121 2.68.047 4.02-.148 1.039-.195 2.121-.672 3.078-.093-.133-.18-.27-.265-.402.168-3.348-.164-6.696-.528-10.02-.68-6.543-1.336-13.09-2.156-19.617ZM415.262 5.352c.746-.434 1.64-.32 2.468-.32.735.05 1.489.058 2.196.3.406.137.414.64.265.977-.804 2.156-3.101 3.617-5.386 3.492-.274-.016-.5-.18-.73-.293 1.26-.61 2.542-1.192 3.804-1.809-.332-.191-.68-.394-1.07-.386-.993.003-1.973.144-2.946.312.172-.887.57-1.816 1.399-2.273ZM365.129 5.184c.094-.016.277-.043.371-.059a329.777 329.777 0 0 1 2.148 6.273c-.46.086-.828-.28-1.222-.449.402 5.848 1.347 11.64 1.73 17.485.153 2.875.02 5.78-.617 8.593-.45 1.961-1.371 3.828-2.762 5.285-1.043 1.106-2.316 1.973-3.687 2.622-.492.21-.977.523-1.531.464.53-.859 1.386-1.433 2.07-2.16 1.66-1.613 3.223-3.351 4.433-5.336.641-1.05 1.133-2.261 1.012-3.52-.695-8.312-1.207-16.644-2.238-24.925-.125-.723-.426-1.43-.367-2.176.039-.746.367-1.426.66-2.097ZM395.297 6.5c.152-.496.469-.914.816-1.297.29.254.64.496.762.887.11.32-.047.644-.133.95-.344-.114-.683-.228-1.02-.337-.503 1.29.028 2.692-.367 3.996-.105.348-.312.649-.511.946-.48-.52-.664-1.22-.895-1.868-.148-.422-.277-.894-.656-1.172-.516-.375-1.281-.46-1.59-1.082-.183-.691.492-1.164.918-1.593 1.414.93 1.473 2.78 2.332 4.105.113-1.176-.043-2.398.344-3.535ZM403.367 6.5c.149-.465.418-.879.715-1.266.672 1.079 1.106 2.286 1.508 3.485.34 1.094.687 2.21.687 3.367-.238-.379-.457-.77-.687-1.152-.14.261-.344.523-.281.84.39 3.21.75 6.43 1.12 9.644.544 4.805 1.09 9.633.95 14.477-.059 1.566-.031 3.203-.734 4.648-.141-.223-.344-.441-.282-.727.16-3.02-.16-6.039-.496-9.035-.773-7.113-1.46-14.242-2.496-21.324-.129-.977-.34-2-.004-2.957ZM483.05 5.414c.477-.074.962-.234 1.442-.074-.555.96-1.394 1.836-2.512 2.07-6.199 1.356-12.402 2.68-18.593 4.063-10.742 2.406-21.535 4.738-31.942 8.379-1.715.64-3.328 1.527-5.039 2.171.399-1.156.93-2.484 2.188-2.918 10.355-3.718 21.035-6.425 31.734-8.94a569.515 569.515 0 0 1 18.75-4.024c1.317-.27 2.645-.5 3.973-.727ZM335.895 6.473c-.067-.34.148-.637.3-.922 1.52.937 2.239 2.734 2.52 4.43.21 1.359.152 2.777-.29 4.09-.132-.989-.027-1.989-.175-2.973-.172-1.395-.723-2.782-1.734-3.782-.235-.257-.559-.48-.621-.843ZM340.688 9.266c-.141-1.364.562-2.649 1.37-3.696.032.332.02.7.231.98.305.434.8.74.969 1.27.418 1.098-.281 2.477-1.43 2.75-.73.121-1.012-.75-1.14-1.304m.55-.664c-.082.488.496 1.007.965.761.356-.195.582-.554.828-.867-.402-.348-.8-.695-1.203-1.039-.246.348-.539.703-.59 1.145Zm0 0"/><path style="stroke:none;fill-rule:nonzero;fill:#000;fill-opacity:1" d="M333.04 5.68c.397.738.522 1.57.694 2.379.829 4.14.957 8.37 1.16 12.578.122 2.554.235 5.11.348 7.668.102 1.492.02 3.015.43 4.468.371 1.375 1.148 2.653 2.25 3.563.707.59 1.676.937 2.594.703 1.14-.27 2.015-1.144 2.722-2.039a85.12 85.12 0 0 0 1.73-2.363c.169-.278.489-.36.786-.45.098 1.047-.242 2.09-.07 3.133.093.606.441 1.207 1.02 1.47.73.347 1.585.167 2.304-.122.644-.266 1.328-.566 1.742-1.156.363-.512.418-1.168.344-1.774-.332-2.664-.91-5.297-1.664-7.875-.18-.625-.442-1.258-.368-1.922.083-.816.438-1.57.778-2.304.324-.075.363.328.465.539 1.023 3.578 1.847 7.222 2.328 10.914.16 1.305.918 2.57 2.12 3.152 1.36.688 2.985.418 4.333-.168.355-.133.7-.496.547-.902-.27-.75-.746-1.418-1.313-1.969-.425-.43-.718-.992-.78-1.59-.099-.797.108-1.582.335-2.34.098.016.297.043.395.059.886 1.152 1.671 2.426 2.027 3.852.394 1.46.242 3.035-.328 4.425-.375.895-1.153 1.586-2.059 1.899-.945.336-2.043.457-2.96-.02-.919-.465-1.52-1.355-1.99-2.242a121.21 121.21 0 0 1-1.1-2.117c-.255.742-.505 1.488-.747 2.234-.258.754-.613 1.528-1.281 2-.844.598-1.969.809-2.965.54-.875-.239-1.574-.97-1.82-1.837-.25-.898-.281-1.836-.422-2.75-.254.133-.543.266-.625.563-.457 1.262-1.203 2.469-2.332 3.234-.797.547-1.766.93-2.742.801-.93-.117-1.738-.656-2.43-1.258a5.335 5.335 0 0 1-1.734-3.07 96.11 96.11 0 0 1-.785-5.688c-.372-3.87-.504-7.761-.72-11.64-.19-3.149-.237-6.332-1.01-9.406-.298-1.125.21-2.235.792-3.172ZM160.102 6.344c.644.406 1.328.761 1.945 1.215.238.164.308.496.18.757-.235.524-.563 1.047-1.067 1.348-.445.258-.984.05-1.347-.25-.403-.32-.872-.758-.743-1.332.227-.637.68-1.164 1.032-1.738ZM261.684 8.723c-.043-.88.156-1.813.796-2.45.696.438.586 1.344.762 2.043.559 2.754.59 5.575.805 8.364.234 3.629.457 7.261.68 10.894.097 1.653.058 3.328.425 4.953.239.993.57 2.035 1.375 2.715.832.723 2.036.883 3.07.57 1.247-.374 2.458-.988 3.352-1.953.336-.37.727-.675 1.133-.968.148.734.145 1.582.711 2.148.516.55 1.344.633 2.043.434 1.004-.239 1.836-.973 2.305-1.883.37-.598.593-1.473 1.414-1.559.03.594-.086 1.207.078 1.79.246.57.933.71 1.476.855.41.062.965.203 1.266-.172.152-.39-.047-.8-.059-1.2-.086-.683.282-1.304.68-1.827.543.507.738 1.25.754 1.976.059 1.125-.379 2.23-1.055 3.117-.636.805-1.824 1.032-2.742.617-.742-.304-1.219-.976-1.726-1.562-.7.637-1.247 1.426-1.965 2.035-.746.63-1.895.836-2.742.293-.75-.43-1.079-1.266-1.52-1.96-.656.495-1.152 1.175-1.852 1.612-.96.614-2.078 1.106-3.238 1-1.23-.082-2.36-.851-2.957-1.917-.992-1.743-1.328-3.762-1.492-5.739-.258-3.074-.23-6.16-.406-9.238-.172-3.465-.442-6.93-.985-10.36-.117-.878-.347-1.742-.386-2.628ZM19.637 6.715c.383-.406 1.027-.367 1.484-.113 1.07.593 2.035 1.476 2.52 2.62.418.981.129 2.243-.735 2.887-.586.387-1.277-.207-1.879.102-.468.215-.773.644-1.113 1.012-.434.488-.918.941-1.48 1.277a289.793 289.793 0 0 1-7.008 4.227 3.407 3.407 0 0 1-1.442.425c-.043-.066-.125-.203-.168-.27 3.317-2.28 7.008-4.027 10.043-6.71-.23-.64-.996-.91-1.148-1.598-.16-.734.305-1.398.414-2.105.113-.594.055-1.29.512-1.754m-.239 2.945c.204.328.465.781.926.7.446-.055.508-.614.535-.97-.03-.273-.187-.699-.527-.628-.492.031-.719.527-.934.898m2.23-.02c-.308.41.044.977.47 1.126.285.117.578-.04.843-.13.032-.57-.273-1.116-.808-1.34-.238-.136-.375.2-.504.345ZM201.734 7.469c.399-.414.805-.903 1.391-1.04.434-.109.848.223.965.633.265.899.031 1.833-.121 2.731-.145.738.808 1.031.851 1.71-.07.446-.422.774-.672 1.126-.351-.145-.699-.293-1.05-.438-2.22 2.711-5.211 4.684-8.395 6.086-.723.305-1.469.582-2.258.66 1.121-.988 2.426-1.726 3.68-2.527 1.645-1.062 3.355-2.05 4.828-3.355.484-.418.969-.836 1.457-1.25-.605-.61-1.418-1.133-1.61-2.032-.202-.886.395-1.671.934-2.304m.305 1.636c.176.278.492.415.758.586.242-.398.605-1.043.094-1.39-.496-.426-1.13.316-.852.804ZM232.777 6.566c.266-.101.77-.086.73.313.044.176-.007.309-.148.402-.925.742-2.132.922-3.226 1.285-1.895.57-3.801 1.086-5.676 1.707-.988.301-1.93.797-2.969.895-.039-.29-.133-.629.114-.855.43-.41 1.011-.598 1.562-.786 3.203-.996 6.41-1.968 9.613-2.96ZM242.547 8.598c.11-.805.598-1.48.984-2.176 1.172 2.191 2.024 4.535 2.817 6.887-.47-.114-.938-.227-1.403-.336-.054.57.016 1.144.082 1.714.399 4.047.813 8.09 1.176 12.141.152 1.672.11 3.36-.148 5.016-.137.851-.278 1.761-.844 2.445-.242-.312-.383-.691-.34-1.09-.012-1.77.074-3.543-.125-5.304-.57-5.766-1.226-11.528-1.855-17.286-.047-.683-.446-1.316-.344-2.011Zm0 0"/><path style="stroke:none;fill-rule:nonzero;fill:#000;fill-opacity:1" d="m318.086 6.516.418-.028c.77 2.203 1.535 4.41 2.3 6.617-.468-.09-.933-.183-1.398-.277-.011 1.145.176 2.277.274 3.41.539 5.2 1.152 10.399 1.293 15.625.03 1.25.078 2.524-.23 3.746-.243.946-.708 1.868-1.458 2.504-.695.594-1.62.887-2.527.848-.719-.035-1.48-.191-2.024-.695-.52-.453-.75-1.121-1.039-1.727-.172.07-.37.09-.504.223-.675.808-1.191 1.87-2.226 2.277-.86.379-1.871.625-2.77.254-.86-.355-1.394-1.176-1.738-2.004-.574-1.289-.48-2.738-.758-4.102-.226.184-.527.336-.558.657-.23 1.027-.918 1.863-1.684 2.55-1.965 1.766-4.117 3.368-6.539 4.438-.883.398-1.941.574-2.844.152-.84-.379-1.37-1.242-1.527-2.129-.125-.73-.164-1.484-.063-2.218.082-.676.473-1.27.512-1.953-.555-.149-.922.328-1.32.62-.906.68-1.809 1.368-2.715 2.051-.785.586-1.55 1.215-2.426 1.672-.96.528-2.004.875-3.066 1.133-1.63.41-3.18 1.106-4.848 1.36.297-.766 1.098-1.036 1.754-1.41 2.031-1.13 4.105-2.188 6.082-3.41 2.961-1.848 5.66-4.079 8.258-6.407.332-.328.789-.605.906-1.09-.098-.672-.484-1.258-.715-1.887a101.307 101.307 0 0 1-1.86-4.773c-.265-.82.216-1.621.692-2.25.91.668 1.575 1.59 2.348 2.395-.348.25-.695.492-1.043.742.324.773.644 1.547 1.059 2.277.765 1.418.836 3.191.14 4.648-.437 1.047-1.281 1.836-1.797 2.832-.57 1.07-.98 2.243-1.113 3.454-.098.98.8 1.882 1.77 1.836 1.855-.122 3.554-1.024 5.023-2.114 1.438-1.023 2.824-2.117 4.234-3.18.637-.453.895-1.296.688-2.042-.645-2.418-1.246-4.848-1.938-7.258-.21-.762-.53-1.52-.484-2.324.02-.684.258-1.332.527-1.95.805.618 1.16 1.594 1.59 2.477.942 2.043 1.445 4.254 1.727 6.48.293 1.98.449 3.985.883 5.942.175.703.355 1.512 1.003 1.933.82.555 1.875.403 2.79.23.625-.148 1.335-.343 1.699-.925.363-.61.226-1.351.168-2.023-.711-7.317-1.426-14.637-2.149-21.953-.062-.75-.195-1.5-.16-2.254.047-1.028.434-1.996.875-2.914.25.125.578.253.598.585.312 2.188.691 4.368.89 6.57.563 6.298 1.047 12.606 1.582 18.907.102.977.176 2.059.875 2.82.68.801 1.872 1.047 2.84.664.528-.203 1.145-.52 1.274-1.128.05-.563-.063-1.13-.09-1.692-.703-7.715-1.422-15.433-2.133-23.148-.031-.586-.387-1.121-.305-1.715.09-.746.586-1.34.977-1.95ZM42.27 8.102c1.64-.582 3.316-1.047 4.98-1.54.285-.14.594.137.527.434-.113.484-.504.879-.965 1.047-1.808.672-3.69 1.129-5.464 1.89-.63.239-1.172.778-1.88.723-1.277.016-2.406.692-3.581 1.102-3.664 1.273-7.282 2.68-10.918 4.027-.29.102-.602.117-.907.152-.011-.66.305-1.34.958-1.574 2.343-.941 4.73-1.777 7.105-2.636 3.379-1.215 6.758-2.43 10.145-3.625ZM82.582 8.605c.129-.777.61-1.43.957-2.125.277.344.578.684.734 1.102.727 1.871 1.602 3.691 2.082 5.648a65.335 65.335 0 0 1-1.261-.21c-.04.203-.074.406-.04.609.505 3.434 1.028 6.867 1.512 10.305.301 2.152.633 4.304.77 6.476.098 1.508-.074 3.012-.168 4.516-.031.336-.047.695-.238.988-.153.242-.43.352-.668.488-.18-3.468-.692-6.902-1.133-10.34-.695-5.257-1.492-10.503-2.254-15.75-.074-.574-.414-1.113-.293-1.707ZM95.473 7.96c.097-.534.308-1.17.89-1.339.496-.18.942.242 1.219.61.445.57.266 1.335.242 2.003-.441-.214-.886-.425-1.328-.636-.762.359-.617 1.3-.726 1.992-.207 1.582-.122 3.226-.649 4.75-.285.094-.379-.203-.488-.395-.567-1.129-1.028-2.308-1.582-3.445-.184-.41-.645-.586-1.07-.48-.583.12-1.106-.301-1.372-.778-.203-.36-.07-.781.04-1.144.12-.325.253-.684.554-.883.613-.18 1.2.195 1.602.625.847.832 1.207 1.992 1.73 3.027.13-.031.258-.058.387-.09.043-1.289.308-2.554.55-3.816ZM148.488 6.594c.594.258.7.93.938 1.457.55 1.344 1.09 2.695 1.629 4.043.168.39.164.824.195 1.242a65.728 65.728 0 0 0-1.145-.387c-.136.45-.007.914.055 1.367.68 4.817 1.363 9.633 2.043 14.45.297 1.761.402 3.57.137 5.343-.13.778-.192 1.676-.852 2.211l-.265-.191c-.125-3.2-.543-6.379-1.016-9.547-.66-4.379-1.2-8.773-1.828-13.156-.203-1.344-.316-2.707-.719-4.012-.281-1.031.403-1.945.828-2.82ZM184.535 7.707c.078-.453.32-.934.778-1.102.558-.164 1.082.31 1.261.81.2.526.063 1.097-.086 1.616-.367-.18-.734-.363-1.097-.55-.309.261-.575.605-.61 1.023-.18 1.336-.21 2.684-.379 4.016-.066.527-.246 1.027-.449 1.511-.726-1.293-1.058-2.789-1.96-3.984-.083.023-.243.078-.325.105-.504.95-1.41 1.621-2.414 1.965-1.457.5-2.922.969-4.383 1.445-.555.192-1.133.258-1.707.329.352-.633 1.004-.965 1.664-1.184 1.547-.652 3.102-1.289 4.649-1.95.468-.194.87-.51 1.27-.816-.36-.515-.903-1.004-.892-1.683a1.74 1.74 0 0 1 .77-1.371c.43-.168.809.21 1.113.468.973.875 1.282 2.192 1.91 3.293.133-.21.317-.414.344-.671.106-1.102.324-2.188.543-3.27ZM221.602 6.73c.293-.054.699-.257.933.032.168.406-.187.836-.512 1.054-3.828 1.332-7.66 2.664-11.488 4-1.25.442-2.515.844-3.73 1.387-.016-.543-.004-1.273.625-1.465 4.683-1.785 9.398-3.484 14.172-5.008ZM279.102 6.71c.226-.21.554-.054.78.08.411.269.802.655.9 1.155.077.344-.094.672-.204.989a51.657 51.657 0 0 1-1.172-.414c-.238.234-.46.511-.476.859-.133 1.633-.09 3.27-.149 4.906.008.348-.23.61-.46.84-.696-1.352-1.384-2.703-2.075-4.055-.086.012-.266.04-.355.055-.641 1.102-1.746 1.828-2.918 2.262-1.883.687-3.782 1.328-5.676 1.98-.367.153-.75.063-1.086-.11.266-.288.566-.554.937-.698 1.266-.528 2.524-1.082 3.79-1.614 1.238-.535 2.5-1.027 3.68-1.687-.278-.551-.677-1.102-.587-1.75.031-.477.203-1.043.684-1.235.46-.12.86.247 1.195.512.875.735 1.274 1.832 1.77 2.824l.382-.046c.047-1.172.192-2.336.38-3.493.07-.508.245-1.03.66-1.36ZM292.207 10.055c3.184-1.239 6.344-2.582 9.648-3.489.29-.117.665.11.586.45-.164.379-.425.804-.851.914-2.98.902-5.945 1.863-8.805 3.101-.586.239-1.14.614-1.797.602.078-.711.54-1.34 1.219-1.578ZM136.902 6.773c.387-.097.786-.066 1.18-.043-.148.59-.539 1.145-1.16 1.282-2.414.601-4.86 1.09-7.266 1.726-4.523 1.219-9.027 2.5-13.488 3.93-3.258 1.05-6.488 2.187-9.715 3.324-1.64.57-3.234 1.262-4.848 1.906-.3.125-.625.176-.94.227-.099-.5-.032-1.094.425-1.398.691-.47 1.5-.72 2.273-1.008 5.668-1.875 11.313-3.832 17.008-5.625 1.813-.567 3.625-1.133 5.461-1.625 3.668-.996 7.383-1.793 11.07-2.696Zm0 0"/><path style="stroke:none;fill-rule:nonzero;fill:#000;fill-opacity:1" d="M140.594 9.328c-.164-.973.328-1.91.972-2.594.657.836 1.075 1.825 1.496 2.79.5 1.222.993 2.464 1.192 3.78-.41-.113-.816-.23-1.227-.343-.129.57.036 1.137.114 1.7.539 3.456 1.093 6.91 1.629 10.366.312 2.149.789 4.305.617 6.493-.032 1.675-.586 3.308-.407 4.992a10.44 10.44 0 0 0 .836 3.195c.344.668.84 1.328 1.567 1.602.57.214 1.203-.028 1.633-.426.832-.77 1.507-1.688 2.168-2.602 1.347-1.875 2.43-4.062 4.414-5.363.867-.54 1.863-1.027 2.906-.973.992.086 1.434 1.078 2.039 1.715.812.793 1.633 1.66 2.719 2.063 1.136.441 2.465.297 3.492-.352 1.117-.715 1.824-1.879 2.715-2.832.195-.23.515-.191.789-.219.215.621.355 1.29.758 1.825.566.796 1.558 1.289 2.539 1.183.746-.066 1.43-.453 1.945-.984.934-.93 1.625-2.094 2.707-2.875.074.031.219.09.293.117.035.504.027 1.02.164 1.508.164.496.465.933.711 1.386.75-.882 1.297-1.91 2.031-2.804 1.336-1.664 2.922-3.188 4.844-4.149 1.012-.515 2.195-.718 3.309-.453 1.03.23 1.921.836 2.757 1.461.844.652 1.637 1.485 1.899 2.555.285 1.14-.043 2.328-.5 3.379-.145.308-.227.64-.29.976 1.067-.113 2.063-.539 3.012-1.015 1.297-.664 2.489-1.528 3.579-2.496.382-.348.8-.657 1.222-.954.336 1.047.325 2.262 1.11 3.118 1.777-1.649 3.254-3.59 5.039-5.227.968-.836 2.148-1.379 3.351-1.797 2.047-.656 4.364.29 5.653 1.946.859 1.085 1.097 2.582.75 3.906-.258 1.062-.856 1.992-1.493 2.86a5.277 5.277 0 0 0 1.98-.02c1.259-.27 2.544-.371 3.81-.614 1.34-.257 2.734-.332 3.996-.89-.512-.57-1.297-.64-1.993-.836-1.539-.41-3.082-.801-4.625-1.184-.296-.062-.691-.258-.582-.629.258-1.004 1.11-1.777 2.078-2.09 1.22-.382 2.434-.785 3.676-1.085a10.798 10.798 0 0 0 3.938-1.868c.957-.699 1.719-1.629 2.71-2.285.364-.234.77-.523 1.231-.437.387.117.54.543.64.898.259.922.348 1.969 1.028 2.707.625.66 1.621.676 2.461.559.582-.094 1.207-.172 1.707-.512.406-.3.328-.867.277-1.309-.699-5.214-1.277-10.449-2.199-15.632-.082-.567-.234-1.125-.242-1.7.07-.804.508-1.515.957-2.16.234.235.48.469.61.781.855 1.934 1.73 3.875 2.238 5.934-.469-.191-.934-.394-1.403-.59-.062 1.246.227 2.473.344 3.711.297 2.38.598 4.758.88 7.14.206 1.368.1 2.794-.435 4.075-.335.902-1.003 1.652-1.234 2.598a4.03 4.03 0 0 0 .559 3.41c.683 1 1.793 1.625 2.945 1.922 2.453.691 5.035.367 7.508-.047 3.484-.578 6.676-2.164 10.004-3.27.836-.254 1.675-.527 2.55-.593.418-.051.91.175.977.636.094.692-.184 1.375-.422 2.016-.937 2.113-2.71 3.668-4.066 5.496.351-2.074 1.918-3.586 3.008-5.293-.274-.29-.668-.477-1.059-.3-1.906.644-3.805 1.312-5.66 2.085-3.403 1.38-7.028 2.383-10.727 2.336-1.707.008-3.468-.45-4.808-1.543-.856-.683-1.434-1.715-1.52-2.816-.11-1.344.024-2.692-.012-4.04-1.07.208-2.207.63-3.273.18-.977-.382-1.492-1.39-1.77-2.343-.214-.586-.34-1.266-.824-1.696-.433-.3-.922.086-1.234.38-1.348 1.362-2.715 2.866-4.59 3.476-.344.093-.605.343-.86.574 3.81 1.36 7.852 1.758 11.817 2.418a3.126 3.126 0 0 1-1.004 1.95c-.281.253-.68.222-1.023.19-2.899-.296-5.79.274-8.602.926-2.137.508-4.273 1.016-6.441 1.368-3.317.554-6.676.859-10.04.933-2.331.074-4.773-.187-6.8-1.437-.445.644-.879 1.3-1.34 1.937-.332-.644-.266-1.406.125-2.012.61-1.035.055-2.21-.289-3.23-.602.125-1 .602-1.445.98-2.426 2.012-5.563 2.88-8.633 3.25-1.785.196-3.574.414-5.371.387-1.953-.012-3.832-.598-5.727-.996-.32.61-.62 1.227-.953 1.828-.226-.344-.426-.754-.285-1.172.172-.605.476-1.285.11-1.883-.376-.585-.66-1.222-.923-1.867-.906.582-1.273 1.645-1.992 2.407-.719.808-1.793 1.39-2.898 1.25-1.047-.114-1.922-.864-2.399-1.774-.23-.457-.449-.918-.726-1.351-.86.894-1.48 1.992-2.438 2.785-.699.586-1.566 1.015-2.492 1.039-.965.043-1.879-.36-2.695-.836a6.54 6.54 0 0 1-2.164-2.074c-.32-.446-.594-1.004-1.14-1.207-.63-.22-1.282.062-1.872.265a7.027 7.027 0 0 0-3.535 2.906c-1.2 1.883-2.363 3.84-4.031 5.356-.297.258-.657.484-1.059.5-.422.016-.805-.203-1.121-.457-1.066-.879-1.887-2.074-2.238-3.418-.32-1.254-.465-2.54-.696-3.813-.886.301-1.605 1.012-2.554 1.13-.766.128-1.61-.075-2.145-.657-.594-.602-.797-1.465-.86-2.285-.05-.367-.09-.914-.546-.992-.422.12-.719.476-1.078.71-1.281.95-2.781 1.497-4.254 2.063.277.563.601 1.106.773 1.711.407 1.379.114 2.914-.664 4.106a1.894 1.894 0 0 1-1.933.824c-1.66-.29-3.067-1.453-3.926-2.871-.403-.61-.64-1.301-.992-1.934-.203-.402-.68-.46-1.028-.676-.215-.195-.375-.441-.55-.668-.7-.011-1.38.137-2.063.22-3.5.448-7.039.597-10.566.464-1.352-.04-2.743-.215-3.946-.871-.293-.215-.722-.137-.86.215-.343.754-.577 1.562-.983 2.289-.364-.602-.438-1.39-.047-1.996.285-.453.449-.993.367-1.528-.11-.773-.504-1.465-.84-2.164-.082-.199-.289-.273-.453-.383-.594.852-1.211 1.688-1.809 2.54-.566.785-1.226 1.57-2.156 1.921-1.105.461-2.418.223-3.355-.496-.973-.75-1.684-1.77-2.477-2.695-.324-.355-.727-.73-1.234-.738-.54-.008-1.02.265-1.47.523-1.534.906-2.702 2.32-3.57 3.856-.648 1.125-1.136 2.343-1.878 3.414-.477.68-1.196 1.308-2.07 1.297-.872-.024-1.587-.622-2.118-1.258-1.355-1.621-2.058-3.723-2.105-5.82-.02-.755.039-1.508-.008-2.258-.664.03-1.336.14-1.938.433-2.41 1.192-4.66 2.73-7.207 3.63-1.074.347-2.246.757-3.367.378-.887-.281-1.531-1.016-1.984-1.8-.195-.263-.39-.704-.781-.63-.606.36-.86 1.075-1.329 1.575-.453.535-1.148.94-1.867.804-1.113-.191-1.922-1.043-2.758-1.73-.714.816-1.402 1.773-2.476 2.133-1.067.312-2.305.101-3.156-.633-.399-.332-.692-.766-.97-1.203-.937.75-1.827 1.632-2.995 2.023-1.418.508-3.207.262-4.184-.973-.449-.457-.597-1.187-1.152-1.53-.426.16-.7.554-1.035.843-.957.887-2.11 1.672-3.434 1.832-1.047.14-2.129-.227-2.906-.938-.555-.472-.922-1.113-1.328-1.707-.098-.164-.282-.242-.438-.336-.289.57-.383 1.239-.785 1.754-.746 1.055-2.035 1.516-3.254 1.758a2.879 2.879 0 0 1-2.719-.851c-.609-.633-.828-1.516-1.148-2.313-.754.746-1.305 1.664-2.063 2.402-.96.934-2.41 1.27-3.699.973-1.066-.246-1.992-.953-2.605-1.848-.89-1.3-1.395-2.828-1.688-4.37a3.062 3.062 0 0 0-.46-1.157c-.294.328-.497.711-.66 1.117-.376.871-1.177 1.5-2.075 1.77-.664.187-1.352.312-2.035.414-.574.059-1.281.11-1.7-.375-.359-.445-.296-1.063-.222-1.59.18-1.133.652-2.262 1.527-3.031 1.028-.86 2.207-1.508 3.336-2.215.2-.137.461-.293.457-.566.004-.528-.215-1.051-.082-1.582.164-.692.61-1.266.926-1.899.227.121.527.203.605.48.215.684.215 1.438.575 2.067.183.266.511.059.722-.055.618-.386 1.215-.804 1.887-1.097-.043.398-.082.851-.41 1.132-.473.407-1.117.625-1.457 1.18-.524.738-.363 1.711-.078 2.512.488 1.355.64 2.808 1.18 4.148.433 1.07 1.355 1.985 2.503 2.223 1.164.262 2.375-.191 3.27-.934 1.07-.898 1.969-1.984 3.027-2.898.305.836.192 1.789.672 2.559.34.62 1.031.992 1.727 1.011 1.062.063 2.058-.386 3.011-.797.38-.164.77-.386.953-.777.196-.379.13-.816.04-1.215-.43-1.867-.778-3.754-1.297-5.601-.246-.86-.098-1.805.363-2.567a.592.592 0 0 1 .492-.305c.293.067.395.372.485.625a47.972 47.972 0 0 1 1.136 3.903c.336 1.398.528 2.848 1.082 4.187.41.977 1.23 1.864 2.317 2.032 1.336.207 2.605-.465 3.633-1.25.851-.676 1.71-1.34 2.554-2.028.285.785.399 1.676.985 2.313.64.75 1.652 1.043 2.601 1.086 1.082.062 2.164-.285 3.05-.903.665-.492 1.298-1.03 1.974-1.507.101.73.421 1.515 1.136 1.835 1.395.614 3.227.313 4.2-.917.449-.594.882-1.254 1.624-1.5.141.558.176 1.207.61 1.632.39.352.902.555 1.414.645.648.113 1.289-.235 1.687-.735.465-.593.852-1.25 1.293-1.867.438.707.438 1.672 1.153 2.203 1.078.809 2.554.832 3.812.5 1.64-.457 3.121-1.328 4.633-2.093.34-.145.574-.442.79-.735-1.118-.41-2.325-.351-3.485-.523-1.88-.235-3.77-.203-5.656-.203.05-.875.433-1.762 1.18-2.262.41-.305.94-.324 1.429-.387 1.3-.148 2.605-.277 3.906-.406.313-.059.762-.07.879-.437.086-.48-.07-.965-.14-1.442-.91-4.738-1.672-9.508-2.442-14.273-.074-.684-.188-1.367-.422-2.012-.387-1.148.102-2.344.754-3.285.242.183.555.328.66.644.602 1.434 1.168 2.883 1.746 4.332.16.41.38.82.34 1.278-.36.004-.715.004-1.07.004-.012.289-.024.582.023.867.54 3.176 1.117 6.347 1.578 9.535.204 1.39.348 2.809.2 4.215-.043.449-.168.883-.204 1.336-.027.316.254.578.551.636.781.196 1.59.274 2.399.325 1.703.113 3.41.207 5.117.316.547.031 1.082.14 1.617.242-.273.637-.398 1.36-.844 1.903-.73.703-1.836.113-2.683.492-.254.129-.297.449-.301.707.031 1.484.445 2.922.809 4.351.148.66.632 1.172 1.128 1.598.465.395 1.125.652 1.715.398.782-.32 1.227-1.09 1.688-1.75 1.133-1.66 1.949-3.535 3.261-5.07.922-1.101 2.165-1.89 3.473-2.465.434-.183.996-.343 1.406-.011.536.433.88 1.05 1.309 1.582.746 1.004 1.707 1.96 2.969 2.226 1.152.27 2.347-.215 3.18-1.008 1.007-.96 1.652-2.218 2.523-3.289.215-.289.586-.332.914-.363.281.973.414 2.063 1.082 2.86.324.359.742-.044.945-.325 1.246-1.64 2.442-3.347 3.989-4.73 1.359-1.235 2.984-2.285 4.816-2.614 1.61-.28 3.223.375 4.46 1.38.84.628 1.567 1.476 1.84 2.511.286 1.055.184 2.188-.163 3.211a9.506 9.506 0 0 1-1.309 2.137c.406.058.828.125 1.238.043.848-.157 1.766-.168 2.504-.668.63-.403.95-1.133 1.082-1.844.274-1.395 1.114-2.57 1.715-3.836.633-1.148 1.215-2.332 1.988-3.394.372.52.575 1.148.567 1.789-.028 1.238.262 2.468.105 3.707-.101 1.332-.726 2.53-1.168 3.765 1.305.063 2.575-.289 3.801-.691.781-.262 1.606-.426 2.34-.809 1.203-.629 2.238-1.527 3.426-2.18.066.547.039 1.094.031 1.645-.004 1.067.688 2.125 1.7 2.48.98.227 2.054.008 2.902-.515.445-.266.617-.813.523-1.305a924.53 924.53 0 0 0-1.508-10.468c-.656-4.25-1.195-8.52-2.023-12.735M114 28.398c-1.574.864-2.898 2.118-4.086 3.45-.477.566-1.047 1.086-1.289 1.808.516.313 1.09.516 1.691.563 3.293.328 6.625-.395 9.645-1.703.617-.32 1.316-.575 1.777-1.114.27-.386-.136-.777-.398-1.03-1.067-.938-2.16-1.934-3.531-2.388-1.258-.425-2.657-.207-3.809.414m13.605 2.383c-.425.746-.738 1.57-.812 2.434a4.01 4.01 0 0 0 1.777-.656c.325-.227.746-.438.832-.864.192-1.144.028-2.312-.16-3.445-.941.54-1.105 1.676-1.637 2.531m-115.066-.36c-.402.286-.879.634-.914 1.173.125.336.566.441.887.343 1.097-.23 2.199-.472 3.273-.792.426-.114.7-.567.633-.997-.07-.535-.277-1.043-.434-1.554-1.218.468-2.367 1.101-3.445 1.828m197.64-.723c-2.105.63-3.878 2.051-5.304 3.688-.352.425-.754.824-1.031 1.308-.168.27.058.578.34.633.77.227 1.566.332 2.355.484.57.137 1.152-.03 1.723-.085 2.05-.25 4.175-.508 6.008-1.543.484-.293 1.003-.579 1.359-1.032.215-.27.012-.601-.145-.836-.875-1.218-2.117-2.21-3.574-2.62a3.14 3.14 0 0 0-1.73.003m-23.504.133c-1.961.613-3.59 1.992-4.899 3.54-.336.421-.71.82-.972 1.292-.176.336.191.629.492.684.844.195 1.707.285 2.562.422.426.058.86.167 1.297.101 1.352-.2 2.73-.312 4.04-.746 1.175-.395 2.3-.926 3.398-1.504.289-.133.558-.48.344-.793-.43-.617-1.004-1.125-1.57-1.613-1.31-1.008-3.005-1.867-4.692-1.383m-58.992 7.211c.53 1.18 1.59 2.039 2.718 2.617.438.188 1.012.45 1.446.125.257-.351-.121-.719-.34-.976-.957-1.102-2.399-1.637-3.824-1.766ZM286.098 6.816c.125-.027.25-.05.379-.078.949 1.809 1.566 3.762 2.343 5.64.133.306.106.642.125.962-.418-.13-.832-.266-1.246-.399-.015 1.29.196 2.567.297 3.848.336 3.48.684 6.961.977 10.441.164 2.043.062 4.122-.461 6.106-.086.418-.485.637-.785.879-.18-.727-.04-1.473-.036-2.211.059-2.875-.289-5.734-.597-8.586-.426-4.332-.969-8.652-1.489-12.977-.074-.66-.468-1.277-.324-1.957.106-.62.477-1.152.817-1.668ZM326.086 10.84c-.184-1.527.52-3.027 1.504-4.156-.055 1.066-.762 1.945-.953 2.976-.114.48.043.965.234 1.406.324-.078.656-.156.988-.226-.093.629-.394 1.238-.976 1.55-.426-.413-.742-.953-.797-1.55ZM436.5 8.719c-.18-.567.02-1.153.133-1.715.113.371.144.828.476 1.082.348.254.79.07 1.168-.016-.363.512-.699 1.04-1.058 1.551-.29-.254-.61-.516-.719-.902ZM349.36 7.313c1.777 1.273 3.48 2.73 4.652 4.601-.469-.11-.934-.23-1.399-.34-.027.602.446 1.004.77 1.45 1.594 2.101 3.199 4.195 4.797 6.292 1.355 1.77 2.664 3.579 4.101 5.282 1.344 1.652 2.719 3.363 3.426 5.406.55 1.574.738 3.25.809 4.91.023.328-.118.637-.215.938-.34-.559-.336-1.23-.504-1.848-.496-2.016-1.567-3.84-2.824-5.469-3.063-3.984-6.196-7.922-9.047-12.066-1.164-1.703-2.36-3.387-3.496-5.11-.282-.586-.942-.875-1.188-1.48-.367-.824-.12-1.742.117-2.566Zm0 0"/><path style="stroke:none;fill-rule:nonzero;fill:#000;fill-opacity:1" d="M102.918 11.121c.086-1.238.57-2.422 1.258-3.441-.164 1.054-.531 2.086-.496 3.16.054.62.77.719 1.242.867-.137.484-.254 1.055-.711 1.34-.262.168-.606.062-.797-.156-.426-.477-.531-1.153-.496-1.77ZM192.063 11.375c.023-1.219.503-2.375 1.105-3.414-.129.996-.45 1.996-.34 3.012.117.547.777.582 1.219.722-.11.477-.25.996-.656 1.305a.68.68 0 0 1-.903-.102c-.351-.418-.425-.996-.425-1.523ZM11.652 11.754c-.27-1.227-.03-2.598.778-3.578-.063.793-.258 1.59-.14 2.386.112.583.82.575 1.273.668-.165.48-.258 1.118-.774 1.356-.555.207-1.02-.34-1.137-.832ZM51.824 10.84c-.094-.953.383-1.836.973-2.543-.098.668-.406 1.324-.313 2.008.18.52.825.539 1.274.668-.078.57-.551.992-1.094 1.117-.516-.176-.84-.719-.84-1.25ZM165.785 8.738c.43-.312.988-.531 1.52-.343 1.007.402 1.765 1.234 2.328 2.144 1.148 1.738 1.445 4.016.746 5.984-.426 1.172-1.344 2.13-2.461 2.672-1.824.91-3.758 1.559-5.66 2.282-.688.234-1.207.75-1.73 1.226.265.453.718.805 1.265.79 3.746.136 7.488.44 11.238.308 13.86-.403 27.715-.906 41.57-1.39 3.872-.13 7.743-.298 11.61-.45 1.367-.02 2.746-.219 4.105-.023.16.363-.308.507-.554.636-1.469.395-2.938.86-4.461.953-6.64.555-13.285 1.032-19.93 1.512-6.984.39-13.969.73-20.96.98-3.923.165-7.849.25-11.778.297-3.07.02-6.145.11-9.215.063-1.258-.11-2.617-.047-3.746-.7-.738-.406-.965-1.343-.742-2.113.593-2.195 2.312-4.035 4.445-4.812 1.555-.543 3.11-1.09 4.656-1.664.567-.219 1.153-.516 1.52-1.02.226-.289-.016-.652-.293-.793-.942-.527-2.055-.527-3.102-.515-.77.008-1.59-.293-2.023-.961-.485-.723-.43-1.656-.235-2.465.25-1.074.973-2 1.887-2.598m-.39 2.657c-.086.203.062.437.25.523.605.223 1.3.281 1.902 0-.309-.363-.649-.766-1.133-.89-.367-.102-.828.015-1.02.367ZM386.492 12.96c-.008-1.67.63-3.276 1.492-4.683-.289 1.563-1.086 3.106-.644 4.723.469-.246.941-.496 1.41-.75-.2.59-.32 1.215-.629 1.762-.195.363-.695.504-1.039.273-.43-.285-.574-.84-.59-1.324ZM27.68 11.414c-.371-1.05.144-2.117.476-3.101.137.617-.086 1.25.043 1.867.153.539.77.636 1.238.722-.19.457-.37 1.043-.921 1.16-.418.098-.739-.285-.836-.648ZM252.145 8.55c.078.02.226.06.304.079-.094.644-.34 1.289-.258 1.945.141.477.723.496 1.121.61.028.609-.375 1.379-1.066 1.328-.492-.032-.66-.61-.73-1.012-.22-1.04.324-1.996.629-2.95ZM67.613 8.754c.36-.102.735-.11 1.11-.117-.051.597-.41 1.16-1.02 1.297-7.812 2.32-15.68 4.48-23.414 7.058-1.789.59-3.574 1.184-5.36 1.774-.511.172-1.023.343-1.554.445-.012-.379-.098-.828.191-1.133.38-.39.93-.508 1.418-.695 3.72-1.352 7.524-2.445 11.297-3.633 4.164-1.273 8.324-2.574 12.532-3.703 1.597-.434 3.203-.856 4.8-1.293ZM306.762 11.336c-.32-.738-.117-1.578.242-2.262.11.403.156.852.453 1.172.215.234.535.297.828.39-.223.352-.367.821-.785.985-.277.137-.621-.012-.738-.285ZM424.078 10.605c.985-.37 1.914-.918 2.965-1.097-.066.39-.242.781-.645.918-2.363 1.027-4.753 1.984-7.101 3.047-2.715 1.23-5.402 2.52-8.094 3.8-1.23.563-2.426 1.211-3.695 1.688.101-.516.433-.961.933-1.145 5.2-2.43 10.332-5.015 15.637-7.21ZM112.898 11.578c-.343-.652-.253-1.441.028-2.098.453.524.883 1.067 1.332 1.598-.125.32-.281.684-.637.8-.281.134-.594-.042-.723-.3ZM430.29 10.48c.304-.195.522-.566.866-.668.133.231-.125.45-.242.633-1.957 2.184-4.312 3.996-6.883 5.399-.582.3-1.152.71-1.84.664.73-.692 1.57-1.242 2.38-1.84 1.906-1.395 3.827-2.773 5.718-4.188ZM153.441 12.488c.121-.875.43-1.742 1.043-2.398-.136.82-.418 1.629-.363 2.469.098.515.723.527 1.129.652-.027.45-.215.922-.602 1.18-.28.168-.707.23-.941-.043-.457-.508-.363-1.243-.266-1.86ZM230.523 10.938c.247-.25.57.07.723.285.512.922 1.055 1.976.758 3.062-.106.375-.188.918-.637 1.004-.453-.008-.855-.254-1.281-.375-.336.414-.652.973-1.23 1.047-.528.031-.848-.484-1.028-.91-.316-.809-.539-1.656-.789-2.489-.176-.562.531-.718.895-.91.05.657.054 1.32.164 1.97.054.476.558.663.902.901.258-.335.68-.683.543-1.164-.07-.789-.7-1.562-.305-2.347.215.16.48.297.578.57.286.703.418 1.477.809 2.137.195.144.457.136.688.199.171-.43.054-.863-.204-1.23-.3-.54-.453-1.149-.586-1.75ZM359.602 12.113c.402-.418.863-.949 1.507-.886.325.02.442.394.493.664.101.394-.176.738-.332 1.074a97.826 97.826 0 0 1-.938-.715c-.168.305-.504.59-.453.965.277.383.773.515 1.226.45.715-.048 1.274-.536 1.852-.903.11.363.145.804-.18 1.07-.945.867-2.007 1.594-3.035 2.348-.14-.375.098-.735.192-1.086-.407-.45-1-.824-1.11-1.465-.023-.602.414-1.086.778-1.516ZM381.555 11.766c.078-.204.257-.329.418-.47-.832 2.665-1.86 5.313-2.051 8.126.031.515.133 1.215.707 1.398.578.075 1.012-.41 1.465-.691-.059 1.125-.29 2.308-1.016 3.203-.23.254-.605.566-.953.332-.719-.379-.98-1.227-1.168-1.96-.281-1.11-.023-2.243.258-3.321a35.156 35.156 0 0 1 2.34-6.617ZM39.137 13.969c-.301-.86.093-1.735.476-2.492.094.597-.008 1.273.313 1.808.324.211.726.227 1.09.332-.246.45-.457 1.063-1.024 1.172-.469.05-.722-.45-.855-.82ZM398.262 12.121c.144-.223.258-.586.601-.434a89.532 89.532 0 0 0-1.527 4.422c-.184.672-.484 1.371-.293 2.07.098.4.43.653.75.872.36-.211.723-.422 1.09-.63-.293 1.24-.293 2.813-1.504 3.563-.402-.043-.73-.449-.945-.785-.512-.984-.579-2.16-.348-3.23.457-2.035 1.094-4.055 2.176-5.848ZM68.813 11.848c.62-.223 1.113.43 1.304.941.324 1.055-.332 2.125-1.105 2.8-.465.419-1.258.18-1.469-.386-.137-.383.039-.77.14-1.137.333.192.669.465 1.075.43.316-.02.531-.277.762-.46-.098-.235-.13-.54-.372-.673-.324-.18-.703-.203-1.058-.273.097-.469.195-1.078.722-1.242ZM478.25 12.258c.578-.2 1.219-.262 1.785.02-.523.327-1.027.71-1.62.89-1.353.434-2.692.895-4.075 1.215-3.125.719-6.258 1.398-9.387 2.09-2.652.593-5.324 1.129-7.95 1.84-.523.148-1.065.23-1.565.437-.372.148-.598.5-.7.867-.523 1.633-1.086 3.254-1.562 4.903-.223.753-.278 1.543-.285 2.328-.008.578.152 1.187.554 1.62.23.259.618.38.942.223.465-.16.726-.593 1.008-.968.199 1.101-.106 2.273-.762 3.172-.356.464-.906.894-1.52.82-.406-.059-.656-.434-.793-.785-.629-1.63-.629-3.446-.234-5.133.566-2.274 1.504-4.43 2.281-6.637-.43.008-.855.027-1.265.156-2.692.747-5.399 1.446-8.07 2.25-4.634 1.395-9.216 2.934-13.825 4.399a2.252 2.252 0 0 0-1.34.992c.57.203 1.153.387 1.735.578-.141.348-.141.899-.57 1.008-.446-.016-.876-.145-1.294-.262-.312-.082-.613-.277-.699-.601-.2-.696.027-1.52.617-1.957.406-.297.903-.426 1.367-.61 10.137-3.781 20.606-6.574 31.125-9.054 5.364-1.286 10.735-2.536 16.102-3.801ZM304.328 12.398c1.063.723 1.633 2.063 1.52 3.332-.063.473-.243 1.036-.72 1.235-.483.082-.878-.285-1.28-.48-.34.425-.618 1.038-1.207 1.136-.528.059-.832-.46-1.024-.863-.367-.836-.597-1.723-.816-2.602-.153-.523.379-.793.789-.91.117.61.195 1.223.242 1.84.008.473.379.894.824 1.027.485-.117.746-.715.625-1.18-.144-.738-.36-1.46-.5-2.203.23.07.563.036.703.286.387.738.473 1.597.871 2.336.13.27.555.335.704.039.218-.547-.192-1.067-.403-1.547-.25-.442-.293-.95-.328-1.446ZM133.434 13.383c1.324-.34 2.632-.774 4.004-.856-.086.309-.13.657-.348.907-.223.27-.567.382-.89.48-4.692 1.316-9.384 2.645-14.075 3.965-.91.223-1.75.707-2.707.719-.043-.664.371-1.29 1.031-1.45 4.313-1.308 8.633-2.605 12.985-3.765ZM481.55 15.48c.075-1.09.552-2.113 1.231-2.953-.242.801-.554 1.586-.676 2.418-.046.34-.07.754.196 1.012.336.273.797.14 1.191.117-.172.461-.25.985-.597 1.352a.6.6 0 0 1-.872 0c-.515-.5-.527-1.278-.472-1.946ZM487.313 13c.183-.21.437-.457.753-.36.332.102.493.458.641.747.39.765.05 1.726.586 2.441.207.34.664.785.3 1.176-.48.371-1.183.422-1.507 1-2.098 3.035-5.106 5.328-8.367 6.988 2.965-2.555 6.316-4.773 8.59-8.027-.473-.38-.985-.703-1.414-1.117-.317-.301-.52-.743-.426-1.18.113-.621.441-1.188.844-1.668m.128.879c-.07.172-.144.348-.171.531.117.309.449.473.687.688.074-.04.219-.118.29-.153-.153-.437-.208-1.086-.806-1.066ZM341.355 15.281c1.38-.777 2.75-1.57 4.133-2.336.075.426.032.934-.406 1.145-2.16 1.285-4.34 2.531-6.512 3.793-.472.262-.918.594-1.441.742-.059-.379.031-.785.371-1.004 1.21-.898 2.559-1.582 3.855-2.34ZM254.05 15.336c.177-.543.434-1.227 1.06-1.363.605-.012 1.117.53 1.222 1.109.11.48-.047.961-.2 1.41-.386-.234-.769-.472-1.155-.71-.196.378-.399.769-.442 1.202-.219 1.754-.39 3.512-.578 5.27-.25-.043-.586-.012-.687-.297-.508-1.094-.918-2.23-1.47-3.305a.782.782 0 0 0-.89-.441c-.62.125-1.414-.207-1.535-.879.04-.687.426-1.277.746-1.86.309.036.68.005.906.262.47.465.887.98 1.278 1.512.422.57.664 1.258 1.105 1.82.39-1.21.36-2.5.64-3.73ZM295.465 13.953c-.067.586-.235 1.184-.117 1.774.214.394.71.52 1.062.773-.195.398-.402.938-.914.992-.46.059-.656-.465-.691-.836-.188-.957.3-1.851.66-2.703ZM349.844 17.855c.078-1.058.597-2.011 1.105-2.921.352.523.715 1.039 1.133 1.515.762.914.516 2.488-.535 3.082a1.057 1.057 0 0 1-1.285-.082c-.39-.426-.477-1.039-.418-1.594m.535.133c.05.395.504.793.91.606.402-.188.695-.54 1.012-.844-.473-.375-.942-.746-1.414-1.113-.23.422-.528.851-.508 1.351ZM281.875 16.367c1.074-.363 2.113-.875 3.266-.957-.02.336.023.707-.176.996-.266.395-.746.524-1.16.688-5.426 1.922-10.782 4.027-16.16 6.062-.512.219-1.051.38-1.606.414-.05-.71.313-1.437 1.012-1.683 4.894-1.961 9.87-3.711 14.824-5.52Zm0 0"/><path style="stroke:none;fill-rule:nonzero;fill:#000;fill-opacity:1" d="M215.52 15.516c-.165.683-.458 1.355-.403 2.07.07.598.746.734 1.219.883-.102.367-.211.754-.504 1.015-.355.375-1.102.23-1.227-.293-.375-1.289.079-2.668.915-3.675ZM210.492 15.648c.219.165.453.313.633.52.668.953 1.246 2.078 1.117 3.277-.058.477-.21 1.086-.726 1.25-.594.121-1.098-.308-1.598-.55-.387.511-.79 1.199-1.512 1.21-.605-.066-.945-.656-1.133-1.175-.265-.785-.535-1.57-.8-2.356-.22-.574.453-.851.828-1.105.183.984.238 2.05.75 2.937.332.504.96.106 1.164-.308.355-.563-.008-1.196-.207-1.743-.203-.464-.266-.972-.281-1.476.27.066.632.062.777.355.434.84.422 1.907 1.101 2.614.247.28.633.101.938.035.012-.942-.773-1.613-1.016-2.477-.062-.332-.035-.672-.035-1.008ZM220.125 15.86c.426-.356.973.011 1.348.265.57.402 1.308.906 1.257 1.7-.152.827-.914 1.32-1.53 1.8-.692-.465-1.434-.871-2.063-1.426-.364-.304-.02-.762.175-1.058.32-.399.489-.891.813-1.282ZM182.55 19.984c-.023-1.328.009-2.754.77-3.902.387.922-.48 1.926-.03 2.86.292.425.878.335 1.327.398-.133.648-.527 1.297-1.191 1.496-.496.113-.887-.39-.875-.852ZM420.379 16.543c.23-.184.672-.254.855.043.207.394.13.863.149 1.297-.34-.14-.672-.285-1.004-.434-.172 1.07-.2 2.156-.266 3.235.004.636-.238 1.226-.55 1.77-.079 0-.235-.009-.313-.013-.238-.59-.406-1.203-.59-1.812-.176-.555-.531-1.102-1.105-1.293-.325-.145-.785-.18-.907-.574-.144-.489.086-1.075.516-1.344.309-.164.621.082.8.32.661.852 1.063 1.864 1.419 2.871.062 0 .183.004.246.008.078-.965.148-1.93.281-2.883.07-.418.117-.902.469-1.191ZM89.473 18.516c.058-.75.355-1.461.785-2.067-.008.688-.125 1.375-.051 2.063.07.527.734.468 1.117.578-.113.437-.183.937-.543 1.25a.68.68 0 0 1-.949-.067c-.418-.476-.418-1.164-.36-1.757ZM230.695 17.809c.559-.305.774-1.004 1.328-1.325.387-.093.75.133 1.09.29.594.312 1.168.663 1.75 1-.406.57-.789 1.16-1.218 1.714-.16.219-.41.403-.692.348-.758-.176-1.328-.86-2.121-.91-.707.187-.95 1.039-1.582 1.344-.242.101-.465-.067-.672-.157-.687-.379-1.36-.781-2.035-1.172.402-.558.754-1.152 1.227-1.656.261-.308.714-.285 1.085-.246.641.172 1.141.813 1.84.77ZM340.633 20.758c-.063-1.403.543-2.762 1.387-3.852-.192.91-.801 1.711-.801 2.664-.02.367.129.707.258 1.04l1.035-.141c-.176.62-.348 1.43-1.055 1.636-.55-.203-.824-.789-.824-1.347ZM138.227 19.395c-.282-.641-.86-1.239-.606-1.997.805.235 1.024 1.094 1.39 1.743.274.476.282 1.078.028 1.562-.172.352-.41.793-.848.82-.558.02-1.03-.335-1.507-.57-.266.59-.852 1.117-1.536 1.043-.562-.078-.867-.633-1.046-1.117-.239-.684-.477-1.379-.575-2.098-.093-.5.7-.843.95-.386.273.738-.063 1.718.593 2.296.668.434 1.504-.437 1.262-1.125-.121-.66-.766-1.359-.234-1.992.234.14.511.274.609.551.273.695.422 1.453.836 2.086.152.234.512.312.715.094.207-.27.094-.633-.031-.91ZM67.246 18.84c.41-.438.824-.926 1.39-1.16.477-.176.997.18 1.087.66.191.941-.067 1.887-.149 2.824-.031.645.684.977.774 1.578-.047.45-.43.762-.684 1.102-.469-.301-1.21-.422-1.582.09-1.672 2.015-3.95 3.402-6.273 4.539-1.184.562-2.352 1.16-3.586 1.586-.055-.09-.157-.27-.211-.364 1.886-1.386 3.988-2.441 5.949-3.707 1.219-.726 2.305-1.644 3.398-2.543.204-.164.317-.402.45-.617-.594-.539-1.32-1.086-1.454-1.937-.128-.797.415-1.477.891-2.051m.922.582c-.207.215-.492.39-.586.691.066.356.406.676.777.664.246-.109.422-.328.621-.5-.27-.289-.539-.57-.812-.855ZM174.52 17.71l.328-.093c.605.746 1.207 1.606 1.203 2.61.008.503-.067 1.144-.563 1.402-.508.234-1.054-.012-1.531-.211-.355.395-.664.91-1.203 1.066-.36.114-.727-.12-.879-.441-.48-.906-.766-1.902-1.055-2.883.172-.223.344-.437.52-.652.222.265.562.523.5.914-.04.543-.031 1.195.465 1.543.445.383 1.097-.086 1.14-.598.086-.867-.68-1.617-.379-2.5.204.113.485.164.598.399.336.675.438 1.453.82 2.109.211.406.938.2.887-.254-.21-.828-.988-1.516-.851-2.41ZM328.457 19.098c.156-.516.492-.95.856-1.34.289.199.667.344.835.676.09.37-.027.75-.082 1.117-.3-.164-.597-.328-.894-.496-.55.46-.367 1.215-.39 1.84-.02.882.038 1.77-.036 2.652-.031.508-.402.89-.785 1.176-.461-.942-.656-1.977-1.008-2.957-.308-.832-1.426-.586-1.894-1.262-.59-.68.464-1.914 1.203-1.324 1.066.937 1.32 2.402 1.918 3.629.12-1.235-.106-2.508.277-3.711ZM58.809 18.832c.109-.36.289-.805.707-.867.46-.024.789.379 1.02.73.3.41.136.946.136 1.418-.426-.152-.852-.304-1.277-.453-.961 1.824-.485 3.98-1.196 5.88-.886-.954-.926-2.352-1.62-3.415-.25-.371-.731-.355-1.126-.379-.484.004-.848-.527-.738-.984.101-.524.46-.934.762-1.352.285.07.617.102.8.36a9.94 9.94 0 0 1 1.254 1.925c.14.301.399.516.653.72.039-1.22.304-2.415.625-3.583ZM201.516 20.664c-.246-.969.187-1.922.675-2.738-.043.527-.222 1.074-.058 1.597.152.45.648.59 1.047.739-.184.422-.336.976-.852 1.09-.433.125-.758-.305-.812-.688ZM32.438 18.23c.41-.289.832.141 1.18.34.527.38 1.3.77 1.273 1.524-.164.75-.825 1.234-1.344 1.742-.598-.383-1.223-.734-1.79-1.168-.339-.223-.35-.715-.163-1.047.242-.48.48-.984.843-1.39ZM16.215 20.379c.613-.387.87-1.238 1.605-1.45.617-.015 1.11.438 1.637.7.36.215.941.484.777 1.004-.27.469-.672.844-1.007 1.262-.262.296-.555.714-1.008.62-.719-.199-1.258-.812-1.989-.98-.89.059-1.085 1.324-1.976 1.395-.961-.207-1.785-.801-2.649-1.254.383-.543.743-1.102 1.102-1.664.203-.297.469-.688.883-.63.742.157 1.34.661 2.008.985a.664.664 0 0 0 .617.012ZM411.547 19.434c.078.011.23.039.308.05-.203.836-.386 1.743.012 2.551.301-.105.602-.207.91-.305.024.672-.418 1.602-1.207 1.5-.433-.257-.488-.828-.48-1.285.05-.851.285-1.675.457-2.511ZM123.727 19.66c1.238-.2 2.507-.125 3.75 0 .351.047.808.16.886.57.043.446-.277.81-.515 1.149-.52.66-1.02 1.351-1.66 1.902-1.004.77-2.293 1.082-3.54 1.086.883-1.144 2.477-1.262 3.465-2.273-1.113-.79-2.531-.278-3.758-.66.204-.723.56-1.582 1.372-1.774ZM385.953 22.047c.399-.852.8-1.7 1.211-2.543.82.285 1.496.86 2.063 1.504.195.21.257.543.109.797-.316.687-.711 1.34-1.066 2.008l-2.317-1.766ZM112.527 20.172c.13-.192.317-.39.57-.383.54.305 1.044.672 1.528 1.063.2.183.5.39.375.707-.152.605-.496 1.191-1.004 1.566-.242.191-.535.02-.738-.14-.563-.422-1.113-.86-1.668-1.286.308-.512.601-1.031.937-1.527ZM259.285 20.152c.422.711-.305 1.446-.082 2.18.238.45.828.457 1.262.598a1.61 1.61 0 0 1-1.125 1.11c-.5-.13-.832-.645-.871-1.142-.11-.988.379-1.898.816-2.746ZM474.91 21.871c.38-.387.762-.808 1.277-1.008.254-.117.555.032.684.274.23.484.348 1.093.004 1.554-.348-.218-.66-.554-1.082-.593-.316.07-.555.304-.809.484.407.531.856 1.227 1.606 1.238.808-.039 1.457-.597 2.207-.84.062.364.058.801-.3 1.012-1.017.692-2.126 1.223-3.18 1.848.038-.309.132-.637.019-.938-.219-.57-.906-.808-1.059-1.418-.16-.613.246-1.18.633-1.613ZM104.11 25.648c-.036-1.449.46-2.886 1.261-4.085.098 1.175-.633 2.25-.43 3.425.23.559.977.336 1.446.371-.367.57-.59 1.414-1.328 1.594-.692.07-.91-.765-.95-1.305ZM153.246 22.77c.246-.415.418-.895.79-1.22.323-.187.64.13.894.305.445.395.984.735 1.254 1.282.09.77-.696 1.336-.66 2.093.203.465.687.715 1.042 1.051.258.219.61.532.422.903-.324.714-.808 1.347-1.234 2.003-.55-.414-1.106-.828-1.652-1.242-.227-.168-.485-.386-.457-.699.082-.656.628-1.172.636-1.844-.164-.71-.96-1-1.277-1.62-.168-.36.09-.704.242-1.012ZM45.617 21.926c.766-.363 1.625-.125 2.434-.102.71.067 1.469.043 2.125.363.344.16.386.606.219.91-1.09 1.993-3.215 3.618-5.579 3.43.72-1.293 2.547-1.02 3.325-2.238-1.215-.672-2.664-.168-3.926-.68.3-.668.71-1.359 1.402-1.683ZM78.867 24.457c-.027-.973.371-1.883.801-2.734.3.078.152.355.14.547-.097.546-.304 1.097-.222 1.66.144.535.8.558 1.246.687-.035.442-.215.91-.605 1.145-.286.148-.696.18-.938-.063-.32-.324-.406-.804-.422-1.242ZM308.016 24.738c.074-.879.316-1.73.492-2.593.082.011.242.03.32.043-.055.664-.195 1.34-.09 2.007.149.504.774.504 1.196.625-.13.426-.22.926-.614 1.196-.257.16-.644.265-.89.035-.36-.324-.45-.848-.414-1.313ZM464.828 23.535c-.144-.46.082-.918.3-1.312.63.793.872 1.8 1.032 2.78.13.65.235 1.392.774 1.84.257.216.62.458.972.302.301-.141.367-.536.25-.82-.297-.84-.847-1.598-.937-2.505-.051-.406.058-.804.187-1.183.492.773.746 1.664 1.106 2.504.285.664.55 1.418.312 2.14-.199.59-.66 1.246-1.344 1.235-.707-.028-1.171-.637-1.566-1.145-.328.426-.613.89-1.02 1.242-.253.223-.632.317-.94.172a2.055 2.055 0 0 1-1.177-1.812c-.007-.864.192-1.707.293-2.559l-1.156.8c.3-.792.715-1.581 1.434-2.07.308.669.324 1.426.175 2.141-.097.555-.343 1.168-.035 1.703.227.48.89.676 1.34.371.578-.394.84-1.16.7-1.836-.094-.71-.497-1.316-.7-1.988ZM96.207 22.605c.332-.218.723.047 1.043.165.813.414 1.785.632 2.355 1.398-.3.871-.753 1.797-1.535 2.32-.933.04-1.687-.633-2.527-.937-.25-.09-.563-.07-.75.133-.367.433-.531 1.035-1.004 1.378-.309.102-.602-.105-.879-.214-.594-.297-1.222-.524-1.8-.844-.294-.149-.485-.504-.356-.82.18-.457.422-.887.629-1.332.137-.29.36-.645.734-.579.918.122 1.664.747 2.535 1.016.203.086.418-.023.543-.187.395-.461.57-1.079 1.012-1.497ZM277.063 22.508c.511-.23 1.117.082 1.363.558.336.536.254 1.196.219 1.797-.399-.152-.782-.336-1.192-.449-.41.102-.36.633-.484.957-.297 1.82.008 3.692-.317 5.512l-.32.023c-.73-1.34-1.422-2.71-2.203-4.023-.535-.028-1.137.18-1.613-.153-.774-.585-.77-1.957.023-2.527.285-.215.703-.14.93.129.922 1.02 1.82 2.086 2.422 3.336.12-.168.34-.313.328-.55.027-1.13.113-2.259.25-3.38.07-.445.144-1 .594-1.23ZM27.2 22.91c.757.504 1.437 1.274 1.507 2.223 0 .543-.223 1.183-.754 1.418-.558.207-1.094-.168-1.601-.356-.497.48-1.13 1.078-1.88.825-.835-.332-.929-1.36-1.19-2.11-.192-.496-.137-1.297.519-1.375.215.363.402.762.355 1.195-.039.418.098.875.473 1.098.398.262.969.027 1.144-.398.368-.793-.57-1.563-.105-2.348.184.105.426.168.52.379.308.637.48 1.34.894 1.922.215.11.465.09.7.129.019-.207.073-.418.05-.63-.14-.366-.422-.667-.55-1.038-.075-.305-.067-.625-.083-.934ZM282.36 26.54c-.372-1.24 0-2.599.753-3.618-.078.726-.273 1.46-.156 2.195.14.461.7.535 1.082.711-.004.442-.144.93-.535 1.18-.422.254-1.02.004-1.145-.469Zm0 0"/><path style="stroke:none;fill-rule:nonzero;fill:#000;fill-opacity:1" d="M388.668 25.227c.441-.766.879-1.536 1.32-2.301.746.195 1.403.648 1.89 1.246a.95.95 0 0 1 .09.933c-.265.645-.628 1.243-.952 1.864-.582-.414-1.13-.887-1.758-1.227-.246-.156-.582-.105-.735.145-.457.625-.785 1.332-1.191 1.992-.816-.629-1.633-1.254-2.445-1.883l1.453-2.496c.777.57 1.55 1.152 2.328 1.727ZM354.2 25.66c.109-.676.538-1.234.925-1.781.637.289 1.281.598 1.824 1.055.32.27.551.691.469 1.125-.117.699-.547 1.289-.914 1.878-.668-.343-1.395-.625-1.93-1.167-.289-.286-.453-.704-.375-1.11ZM136.844 24.297c.242-.281.613-.055.86.101.562.383 1.23.82 1.347 1.543.097.832-.621 1.508-1.348 1.758-.629-.539-1.273-1.066-1.879-1.633.172-.668.57-1.253 1.02-1.77ZM341.79 26.719c.054-.852.425-1.692 1.132-2.192.262.227.578.422.738.746.07.364-.105.715-.195 1.059-.317-.21-.63-.43-.942-.645-.23 1.079-.253 2.18-.148 3.274.098.941-.14 1.926-.824 2.605-.574-.867-.711-1.91-1.043-2.867-.11-.336-.352-.648-.707-.719-.453-.109-.934-.261-1.215-.656-.469-.59.105-1.633.851-1.515.52.125.762.668 1.028 1.078.52.847.765 1.828 1.246 2.695.238-.941-.074-1.914.078-2.863ZM419.352 26.703c-.145-.887.609-1.555 1.128-2.164.532.32 1.06.652 1.54 1.047.253.207.476.512.445.86-.055.734-.442 1.394-.555 2.113-.039.195.125.332.262.441.5.395 1.125.613 1.578 1.074.203.235.102.567.027.836-.226.672-.468 1.352-.894 1.926-.594-.293-1.188-.594-1.73-.977-.212-.16-.462-.359-.466-.648 0-.856.668-1.54.739-2.375-.567-.816-1.774-1.102-2.074-2.133ZM443.074 26.305a2.656 2.656 0 0 1 1.016-1.633c.336.238.816.414.926.863.027.363-.13.707-.239 1.047a23.17 23.17 0 0 1-.777-.559l-.293.16c-.144.922-.273 1.848-.227 2.782.012.687.094 1.39-.097 2.062-.14.461-.488.809-.832 1.13-.254-.864-.48-1.735-.73-2.594-.122-.38-.25-.782-.54-1.067-.445-.46-1.242-.207-1.617-.777-.59-.504-.164-1.492.488-1.707.375-.102.668.21.91.449 1.036 1.004 1.254 2.504 1.754 3.797.372-1.293-.062-2.653.258-3.953ZM398.84 25.309c1.035 1.062 2.086 2.105 3.117 3.171-.39.102-.777.2-1.16.297.539 1.356 1.523 2.465 2.113 3.793.938 2.075.637 4.63-.765 6.422-1.305 1.625-2.977 2.918-4.747 3.992a96.464 96.464 0 0 1-5.546 3.032c-.809.39-1.606.851-2.5 1.015-.895.203-1.817.035-2.72.13-1.558.097-3.027.679-4.558.917.274-.543.817-.812 1.38-.953 4.44-1.664 8.808-3.57 12.905-5.977 1.977-1.164 3.891-2.5 5.43-4.222.266-.309.55-.617.695-1.008.141-.45-.113-.89-.308-1.281-1.098-1.965-2-4.04-3.219-5.93-.664-1.031-.281-2.285-.117-3.398ZM254.098 25.832c.457-.285.87.191 1.222.43.399.34.95.597 1.133 1.12-.004.555-.488.938-.777 1.368-.281.324-.567.875-1.082.738-.637-.238-1.055-.879-1.727-1.05-.328-.114-.578.183-.773.402-.281.348-.57.691-.946.937-.878-.41-1.593-1.078-2.285-1.742.461-.62.887-1.27 1.38-1.87.206-.294.632-.294.902-.087.57.395 1.105.836 1.664 1.242.433-.488.773-1.074 1.289-1.488ZM38.133 29.895c-.39-1.25-.024-2.618.668-3.688.156.824-.242 1.66.004 2.473.218.511.867.433 1.324.496-.145.558-.293 1.297-.95 1.449-.507.191-.913-.293-1.046-.73Zm0 0"/><path style="stroke:none;fill-rule:nonzero;fill:#000;fill-opacity:1" d="M413.672 26.375c.586-.238 1.2.129 1.59.559 1.273 1.367 2.34 2.988 2.793 4.824a8.285 8.285 0 0 1 .16 3.176c-.094.703-.34 1.382-.375 2.093-.098 1.391.328 2.758.875 4.02.265.598.691 1.226 1.375 1.375.945.203 1.926-.344 2.383-1.172 1.058-2.043 1.168-4.469 2.437-6.418.543-.836 1.152-1.66 1.977-2.234.476-.348 1.16-.41 1.648-.047.863.617 1.29 1.633 1.82 2.515.66 1.13 1.727 2.04 2.993 2.407 1.843.582 3.906-.145 5.187-1.543.582-.59 1.082-1.328 1.902-1.598-.109.61-.335 1.25-.097 1.855.2.586.785.993 1.398 1.004.93 0 1.867-.41 2.469-1.132a32.723 32.723 0 0 0 2.473-3.254c.05.047.152.14.203.183.133.684-.39 1.262-.403 1.93-.007.656.579 1.203 1.204 1.289.511.059.937-.324 1.23-.703.578-.766 1.059-1.594 1.535-2.426.242 1.055.73 2.082 1.567 2.793.968.856 2.32 1.2 3.59 1.024 2-.262 3.851-1.22 5.406-2.485.57-.46 1.105-.972 1.664-1.457-.09.734-.332 1.473-.207 2.215.129.66.87.875 1.449.945 1.2.184 2.328-.535 3.043-1.453.984-1.3 1.273-2.996 2.293-4.285.09.305.223.633.078.95-.223.64-.531 1.382-.18 2.038.371.657 1.184.864 1.88.969.527.094 1.042-.102 1.476-.395-.168-.64-.445-1.265-.461-1.937.023-.656.281-1.262.465-1.883.39.356.742.801.793 1.348.14 1.57 0 3.207-.668 4.648-.223.492-.63.953-1.192 1.035-.902.13-1.945-.02-2.601-.707-.524-.539-.653-1.308-.852-2.004-.656 1.22-1.504 2.356-1.906 3.7a13.81 13.81 0 0 0-.606 3.785c-.03 1.156.364 2.351 1.207 3.164.82.805 2.032 1.156 3.16.969.864-.117 1.622-.563 2.38-.965 1.984-1.063 3.878-2.313 5.546-3.836.895-.828 1.79-1.703 2.325-2.82.16-.348.34-.727.27-1.121-.052-.231-.274-.387-.493-.426-.754-.14-1.484.265-2.238.144-.79-.11-1.637-.23-2.266-.765-.535-.45-.695-1.22-.531-1.88.183-.761.441-1.503.703-2.241.36-.891.887-1.88 1.844-2.223.96-.266 1.773.508 2.336 1.191.632.84 1.304 1.672 1.746 2.64 1.183-.151 2.367-.737 2.976-1.8.59-1.09 1.41-2.02 2.227-2.937.59-.645 1.066-1.399 1.781-1.922.453-.34.977-.793 1.594-.633.582.2.824.852.965 1.398.187.899.312 1.805.46 2.711.094.649.255 1.325.051 1.965-.175.567-.359 1.184-.832 1.567-.464.347-1.078.199-1.57.015-1.312-.504-2.441-1.363-3.629-2.09-.828.864-1.25 2.016-2.07 2.883-.371.473-.883.781-1.371 1.11-.543.378-.602 1.074-.656 1.671-.297 2.43-1.704 4.59-3.497 6.196-2.101 1.86-4.425 3.515-7.023 4.601-1.371.586-3.063.52-4.273-.394-1.028-.735-1.598-1.942-1.836-3.157-.485-2.14-.067-4.351.562-6.417-.773.19-1.543.46-2.344.449-.433 0-.828-.254-1.062-.606-.387-.562-.625-1.21-.895-1.832-1.054.836-2.242 1.473-3.402 2.14-1.035.56-2.137 1.126-3.34 1.118-1.27.035-2.5-.598-3.293-1.574-.469-.547-.746-1.219-1.094-1.844-.246.445-.492.89-.855 1.25-.52.527-1.012 1.113-1.68 1.457-.398.2-.898.04-1.133-.324-.418-.617-.566-1.363-.82-2.055-.906.914-1.578 2.051-2.598 2.852-.75.594-1.902.777-2.69.168-.692-.473-.923-1.309-1.185-2.055-1.101.848-2.003 2.043-3.378 2.461-1.918.61-4.13-.133-5.383-1.688-.7-.851-1-1.953-1.711-2.796-.246-.29-.59-.551-.985-.516-.48.047-.886.344-1.246.64-.87.747-1.37 1.813-1.754 2.872-.488 1.394-.906 2.82-1.53 4.164-.446.781-1.09 1.562-1.985 1.828-1.012.195-1.723-.762-2.207-1.508-.844-1.512-1.266-3.223-1.531-4.922-.72.477-1.282 1.13-1.926 1.692-2.98 2.672-6.45 4.742-10.028 6.5-.851.457-1.836.207-2.75.347-1.816.16-3.48.957-5.253 1.293.09-.351.23-.738.609-.863 2.125-.918 4.308-1.703 6.379-2.746 2.441-1.188 4.8-2.547 7.101-3.988 2.184-1.297 4.278-2.844 5.797-4.91.61-.778-.086-1.903-.902-2.184-1.348-.215-2.719.476-4.055.058-.832-.234-1.355-1.082-1.344-1.921-.003-1.313.497-2.594 1.247-3.653.425-.566.89-1.172 1.57-1.449M488.094 29c-.332.113-.5.445-.684.715.637.598 1.348 1.176 2.227 1.363.015-.527.011-1.094-.278-1.555-.25-.421-.789-.671-1.265-.523m-75.864 1.176c.438.226.899.469 1.407.465.402.015.773-.16 1.136-.317-.363-.535-.816-1.187-1.539-1.156-.562.004-.824.566-1.004 1.008m63.88 3.27c.706.75 1.777.824 2.745.769-.37-.574-.761-1.27-1.48-1.426-.527-.09-.93.324-1.266.656ZM51.23 30.156c-.277-1.293.243-2.59.895-3.687.195.898-.48 1.715-.27 2.61.176.562.868.507 1.329.62-.2.473-.38 1.082-.922 1.266-.52.16-.946-.34-1.032-.809ZM197.266 29.754c.027-1.133.336-2.344 1.242-3.094-.153.719-.442 1.426-.426 2.168.082.52.691.594 1.09.766-.106.386-.262.781-.563 1.054-.273.247-.714.204-.996 0-.277-.203-.347-.574-.347-.894ZM299.125 30.754c-.477-1.277.082-2.688.91-3.684-.164.75-.465 1.504-.351 2.285.128.56.793.622 1.25.758-.086.336-.172.696-.434.942-.39.425-1.21.273-1.375-.301ZM290.996 27.21c.367.59.79 1.145 1.125 1.755.098.578-.875 1.055-1.14.433-.22-.707-.02-1.464.015-2.187ZM267.848 31.602c-.016-1.332.37-2.707 1.261-3.72-.16.966-.511 1.927-.421 2.915.152.512.8.441 1.218.539-.215.55-.394 1.324-1.062 1.465-.645.058-.985-.649-.996-1.2ZM393.516 30.566c-.278-.78.082-1.586.418-2.285 1.078.785 1.832 1.942 2.328 3.164.406.973.32 2.059.191 3.078-.187 1.372-1.027 2.61-2.2 3.325-4.085 2.504-8.624 4.293-13.35 5.109-.626.086-1.29.336-1.614.918-.426.887-1.043 1.82-.793 2.852.324 0 .649.003.977.007.07.602-.29 1.36-.957 1.403-.528-.028-.555-.66-.594-1.055-.168-1.422.762-2.617 1.223-3.895-1.204-.058-2.418-.042-3.598-.3-1.485-.293-2.969-.899-4.012-2.028-1.18-1.293-1.84-3-2.012-4.726a11.45 11.45 0 0 1 .594-5.028c.07-.27.348-.367.567-.503-.227 1.55-.536 3.156-.075 4.699.504 2.015 2.168 3.578 4.098 4.234 2.723.938 5.703.817 8.484.2a42.107 42.107 0 0 0 10.672-4.005c.602-.382 1.282-.726 1.707-1.32.309-.492-.02-1.062-.297-1.48-.52-.84-1.414-1.414-1.757-2.364ZM329.648 29.18c.434-.153 1.008-.192 1.329.203.425.547.527 1.281.511 1.957-.039.906-.55 1.715-1.187 2.328-.23-.715-.336-1.613-1.051-2.023-.836-.508-1.96.238-2.035 1.148.004.414.406.637.695.863.606.41 1.207.864 1.91 1.098.774-.055 1.399-.582 2.035-.977.625-.468 1.356-.75 2.09-1.007-.297.917-.566 1.914-1.289 2.597-.437.43-1.043.586-1.594.801a18.504 18.504 0 0 0-3.613 1.918c-.597.383-1.12.914-1.832 1.074.07-.91.746-1.555 1.106-2.344.195-.293-.13-.543-.297-.746-.578-.59-.965-1.394-.918-2.23.035-.914.508-1.746 1.09-2.426.824-.965 1.84-1.809 3.05-2.234ZM164.086 31.754c-.063-.93.379-1.781.766-2.594.023.598-.168 1.184-.114 1.777.078.524.64.704 1.07.844-.16.348-.253.782-.62.973-.243.144-.575.144-.782-.055-.258-.242-.304-.613-.32-.945Zm0 0"/><path style="stroke:none;fill-rule:nonzero;fill:#000;fill-opacity:1" d="M382.879 29.508c.351-.422 1.152-.153 1.219.379.03.304-.082.593-.141.886l-1.117-.187c-.38 2.027-.07 4.148-.735 6.125-1.043-.844-1.101-2.293-1.73-3.395-.254-.437-.777-.504-1.21-.648a1.418 1.418 0 0 1-.68-1.066c.07-.532.41-1.118.956-1.262.434.015.68.437.868.777.57 1.133 1.093 2.29 1.43 3.512.081-.016.245-.043.327-.059-.043-1.316.204-2.617.407-3.914.082-.394.132-.832.406-1.148ZM434.73 29.637c.082.515.051 1.07.297 1.543.301.343.801.011 1.172-.016-.058.688-.426 1.316-1.043 1.645-.265-.282-.55-.575-.652-.957-.227-.739.031-1.504.226-2.215ZM487.809 40.348c.347-.973 1.3-1.52 2.214-1.868.426.48.836 1.047.832 1.72.024.75-.43 1.39-.894 1.929-.64-.348-1.29-.68-1.922-1.035-.328.316-.476.758-.746 1.113-.613.809-1.453 1.422-2.356 1.867-1.886.95-3.804 1.836-5.73 2.696-.18.046-.687.12-.621-.149.824-.64 1.809-1.035 2.715-1.555 1.234-.664 2.484-1.304 3.722-1.96 1.164-.626 2.278-1.5 2.786-2.758m1.27-.403c.167.211.343.414.523.621.097-.113.207-.222.316-.336-.266-.148-.54-.601-.84-.285ZM65.488 39.207c.489.086.551.719.328 1.082-.218.387-.441.777-.722 1.121-.36.281-.832.063-1.235.047-.656-.082-1.183.473-1.832.445-.574 0-1.004-.48-1.57-.527-.59-.078-1.145.195-1.617.516-1.442.968-2.793 2.058-4.2 3.074-.261.164-.644.367-.917.105 1.14-1.152 2.5-2.058 3.71-3.125.922-.761 1.817-1.715 3.04-1.941.668-.145 1.25.246 1.832.496.691.215 1.125-.484 1.582-.867l.836.668c.257-.364.515-.727.765-1.094ZM252.953 39.996c1.074-.277 2.133-.648 3.254-.695-.012.664-.437 1.273-1.09 1.43-3.21.933-6.433 1.82-9.648 2.73-1.239.371-2.535.605-3.684 1.223-.433.21-.773.656-1.293.601-.008-.625.063-1.41.711-1.71.91-.415 1.902-.622 2.848-.942 2.96-.906 5.914-1.828 8.902-2.637ZM274.84 40.633c.316-.36.52-.84.926-1.11.46.825-.125 1.704-.684 2.301-.367.246-.812.016-1.207-.011-.664-.122-1.207.449-1.867.386-.574-.039-1-.52-1.57-.562-.63-.086-1.211.222-1.731.535-1.309.773-2.465 1.766-3.707 2.637-.348.246-.754.386-1.152.535a7.17 7.17 0 0 1-.149-.301c1.801-1.398 3.574-2.836 5.41-4.195.704-.532 1.688-.805 2.52-.399.383.156.726.547 1.176.422.468-.148.777-.566 1.14-.879.297.211.598.426.895.64ZM113.48 40.703c.383-.469.95-.937 1.598-.812.89.129 1.809.285 2.578.785-1.238.172-2.605-.602-3.722.226.144.399.484.637.855.805.566.242.773.871 1.074 1.36.196-.337.403-.665.617-.989.813.274 1.504-.312 2.168-.683-.015.394-.035.789-.05 1.183.289.027.582.05.875.074-.028.403-.266.844-.688.918-.344-.02-.656-.191-.972-.308l-.188.91c-.332-.168-.668-.332-1.004-.5-1.156 1.058-2.766 1.266-4.223 1.652-.03-.097-.093-.293-.125-.39a42.823 42.823 0 0 1 2.403-.758c.238-.078.64-.219.55-.543-.269-.758-.94-1.266-1.538-1.762-.333-.273-.512-.809-.208-1.168ZM213.52 41.25c.761-.34 1.332-1.031 2.144-1.277.688-.211 1.356.578 1.102 1.23-.465 1.281-1.91 2.05-3.235 1.879-.605-.059-1.09-.5-1.687-.59-1.028-.215-2.051.215-2.895.778-.937.644-1.902 1.265-2.855 1.89-.364.242-.805.16-1.184.016a170.888 170.888 0 0 1 3.832-2.64c.969-.641 2-1.388 3.219-1.364.52-.02 1.047.293 1.559.078m.59.543c.39.066.808.164 1.195.02.285-.098.476-.344.683-.547-.347-.168-.722-.418-1.12-.301-.38.129-.555.52-.759.828ZM97.875 40.645c.984-.258 1.957-.61 2.98-.668.04.316.122.68-.093.953-.313.437-.825.66-1.32.808-2.942.875-5.891 1.727-8.829 2.617-.82.239-1.578.637-2.363.958-.027-.47-.098-.993.18-1.41.254-.391.718-.548 1.14-.684 2.766-.871 5.532-1.742 8.305-2.574ZM16.625 41.25c1.137-.434 2.246-1 3.477-1.11-.047.313-.036.665-.254.922-.25.305-.637.43-.989.579-2.91 1.148-5.82 2.308-8.683 3.578-.172-.57.027-1.23.597-1.48 1.891-.962 3.895-1.673 5.852-2.489ZM325.3 45.723c3.048-1.864 6.044-3.805 9.15-5.567.128.598-.087 1.239-.653 1.52-2.836 1.726-5.652 3.492-8.469 5.25-1.066.644-2.094 1.37-3.223 1.906.188-.676.489-1.367 1.082-1.785.68-.477 1.41-.875 2.114-1.324ZM191.77 40.563c.761-.204 1.546-.266 2.332-.329-.02.48-.196 1.024-.707 1.168-1.004.332-2.051.512-3.075.778-3.011.718-6.027 1.43-9.035 2.175-.816.204-1.578.563-2.367.84-.074-.675.273-1.386.969-1.554 3.918-1.184 7.91-2.102 11.883-3.078ZM70.45 41.223c.433-.48 1.12-.684 1.753-.657.387.012.824.266.852.688-.04.5-.395.898-.5 1.383-.059.297-.063.601-.078.906 1.074.223 2.093-.309 2.933-.926.762-.562 1.426-1.246 2.168-1.836.059.254.234.543.059.785-1.094 1.645-2.774 2.766-4.469 3.704-.484.27-1.16.308-1.582-.098-.434-.367-.488-1.008-.305-1.52.2-.566.457-1.109.684-1.668-.485.051-.988.223-1.469.075-.367-.121-.234-.614-.047-.836ZM225.574 41.145c.516-.575 1.367-.747 2.098-.555.297.074.52.363.492.672-.05.71-.707 1.254-.644 1.988-.02.281.312.371.53.371.598-.031 1.157-.289 1.688-.555 1.098-.57 1.93-1.504 2.864-2.289.074.063.222.188.293.25-.196.739-.758 1.285-1.27 1.82-.973.954-2.125 1.696-3.305 2.356-.39.227-.886.336-1.308.14-.547-.273-.82-.956-.645-1.538.184-.63.488-1.22.727-1.828-.559.043-1.18.23-1.696-.079-.109-.257-.011-.558.176-.753ZM320.2 40.973c.722-.149 1.44-.399 2.19-.309-.148.66-.636 1.227-1.312 1.367-1.508.356-3.035.64-4.547.98-2.324.516-4.64 1.079-6.953 1.65-.621.148-1.203.421-1.797.644-.07-.348-.172-.758.078-1.059.508-.621 1.317-.836 2.07-.976 3.423-.774 6.844-1.54 10.27-2.297ZM38.414 41.387c.785-.254 1.543-.625 2.371-.73.086.257.274.558.07.812-.3.394-.785.57-1.222.754-1.946.71-3.906 1.367-5.844 2.09-.695.257-1.316.667-1.98.992-.133-.555-.024-1.23.539-1.5 1.933-1.016 4.023-1.676 6.066-2.418ZM350.766 42.91c.32-.73.683-1.445 1.015-2.172.64.532 1.309 1.028 1.926 1.586.25.207.313.57.184.86-.278.722-.621 1.414-.938 2.117-.656-.489-1.344-.934-1.98-1.442-.293-.214-.368-.629-.207-.949ZM27.508 41.715c.277-.371.562-.969 1.125-.84.527.176.969.535 1.484.746.324.152.797.383.692.824-.168.715-.735 1.235-1.207 1.762-.403.508-1.125.191-1.586-.07-.48-.258-1.075-.79-1.625-.387-.493.465-.825 1.074-1.258 1.59-.77-.434-1.563-.828-2.32-1.285-.254-.137-.422-.45-.282-.723.258-.469.602-.887.895-1.336.207-.273.453-.676.86-.594.808.207 1.444.82 2.245 1.051.473.078.727-.43.977-.738ZM46.887 41.02c.265-.29.675-.114.965.042.558.317 1.125.626 1.648 1 .336.22.316.7.078.985-.414.512-.77 1.098-1.3 1.496-.567.309-1.153-.176-1.65-.418-.401-.191-.886-.621-1.343-.344-.523.438-.832 1.063-1.215 1.617-.691-.421-1.398-.82-2.066-1.273-.328-.176-.434-.61-.375-.945.355-.563.695-1.149 1.137-1.653.238-.289.629-.152.894.012.625.367 1.238.75 1.895 1.07.492-.488.86-1.086 1.332-1.59ZM161.715 41.023c.5-.148 1.023-.203 1.543-.25-.016.602-.313 1.23-.934 1.395-2.523.758-5.078 1.41-7.59 2.195-.902.285-1.714.844-2.672.946-.09-.621.188-1.301.84-1.47 2.922-.98 5.828-2.034 8.813-2.816ZM460.152 42.39c.32-.55.625-1.113.953-1.663.082.441.11.906.313 1.316.164.305.559.293.855.398.07-.586.13-1.171.22-1.754.417.579.683 1.313.51 2.028-.093.46-.421.969-.937.992-.586.082-1.015-.383-1.425-.715-.61.446-1.032 1.192-1.805 1.367-.453.114-.86-.16-1.262-.308-.324-.14-.66.054-.914.242a44.101 44.101 0 0 0-3.3 2.914c-1.044 1.004-2.372 1.688-3.805 1.895.34-.575.984-.79 1.515-1.137 1.086-.692 2.078-1.528 3.012-2.414.773-.715 1.469-1.52 2.316-2.153.387-.293.801-.636 1.313-.64.52-.035.937.375 1.45.383.448-.024.773-.391.991-.75ZM259.43 44.777c-.282-1.332.05-2.797.96-3.824-.16.672-.421 1.336-.386 2.035.035.555.601.793 1.016 1.04-.118.41-.207.87-.536 1.167-.375.262-.953.02-1.054-.418ZM295.29 43.84c3.233-.965 6.487-1.867 9.733-2.797.36-.125.747-.117 1.125-.094-.058.594-.308 1.262-.964 1.38-2.532.667-5.07 1.312-7.61 1.94-.941.243-1.855.575-2.707 1.044-.129-.02-.387-.055-.515-.075.011-.601.32-1.23.937-1.398ZM345.031 42.277c-.082-.394.16-.75.293-1.101.946.3 1.625 1.11 1.969 2.015.605 1.551.586 3.38-.2 4.864 0-.774.294-1.524.2-2.297-.086-1.086-.719-2.055-1.527-2.754-.254-.234-.559-.426-.735-.727ZM170.64 42.574c.59-.289.786-1.11 1.454-1.258.562.067.996.47 1.504.684.293.145.707.3.687.7-.148.76-.703 1.374-1.258 1.882-.863.094-1.507-.781-2.363-.672-.637.266-.875 1.004-1.422 1.395-.617-.39-1.258-.75-1.851-1.176-.27-.164-.473-.559-.254-.836.312-.504.64-1.02 1.086-1.422.902-.351 1.554.727 2.418.703ZM196.734 44.512c-.328-1.137.305-2.239.977-3.106-.074.574-.274 1.133-.305 1.715.047.5.598.691.938.969-.16.433-.29.945-.696 1.215-.488.133-.793-.407-.914-.793ZM444.508 43.328a2.918 2.918 0 0 1 .027-1.937c.664.789.848 2.093.07 2.87-.367.434-1.05.45-1.496.145-.3-.258-.527-.586-.777-.886-.375.476-.7 1.007-1.172 1.394-.348.281-.86.398-1.262.172-.425-.23-.816-.594-1.328-.578-.777 0-1.332.613-1.886 1.074-.825.672-1.532 1.484-2.434 2.063-.938.605-2.012 1.058-3.148 1.058.718-.652 1.66-.957 2.457-1.5 1.195-.746 2.253-1.687 3.222-2.707.614-.57 1.313-1.219 2.196-1.242.593-.016.984.496 1.48.734.55.215 1.074-.23 1.387-.64.418-.602.77-1.246 1.183-1.856.098.52.114 1.07.356 1.551.23.383.746.25 1.125.285ZM341.324 41.66c.73.567 1.457 1.145 2.188 1.715-.422.848-.84 1.688-1.262 2.527-.621-.402-1.18-.902-1.84-1.234-.273-.164-.594-.02-.742.234-.402.618-.719 1.282-1.117 1.899-.625-.485-1.281-.934-1.867-1.457-.329-.25-.364-.739-.176-1.082.312-.621.726-1.188 1.101-1.778.754.567 1.508 1.137 2.266 1.703.484-.843.965-1.687 1.45-2.527ZM106.133 44.566c-.149-.996.199-2.004.699-2.855.05.508-.137 1.008-.074 1.516.172.445.672.613 1.047.859-.172.367-.254.805-.547 1.105-.461.313-1.078-.113-1.125-.625ZM137.617 41.934c.063.011.196.039.258.054.031.426.023.86.133 1.278.11.418.543.59.87.804-.112.387-.21.805-.491 1.11-.36.277-.961.047-1.035-.407-.188-.953.093-1.906.265-2.84ZM356.684 42.39c.535-.277.972.356.996.837-.032 1.64-.895 3.222-2.22 4.183.438-.832 1.13-1.535 1.372-2.465.129-.449.066-.918-.004-1.37-.379.198-.754.41-1.14.6.05-.702.41-1.386.996-1.784ZM427.848 42.41c.226-.23.64-.238.84.043.351.45.32 1.078.175 1.602-.304 1.242-.992 2.394-1.98 3.207-.422.336-.875.77-1.461.648 1.027-.953 2.23-1.867 2.691-3.254.203-.406.051-.836-.082-1.234-.379.254-.754.605-1.246.535.324-.535.598-1.117 1.063-1.547ZM119.672 43.945c.422-.5.879-.972 1.289-1.48-.008.351.098.781-.18 1.062-.3.278-.73.32-1.11.418ZM287.895 45.055c-.196-.64-.067-1.32.14-1.938.402.434.797.88 1.203 1.313-.12.312-.152.73-.484.902-.297.113-.723.04-.86-.277ZM372.3 43.352c.184-.11.384-.164.606-.172-.058.582-.476 1.011-.972 1.261-2.368 1.325-4.73 2.645-7.059 4.028-.266.18-.574.265-.887.3.13-.535.364-1.09.875-1.363 2.469-1.367 4.961-2.699 7.438-4.054ZM413.832 46.414c.094-1.059.457-2.117 1.18-2.914-.094.906-.793 1.742-.48 2.676.14.535.788.254 1.179.289-.14.45-.25.95-.598 1.293a.62.62 0 0 1-.86.015c-.366-.34-.452-.878-.421-1.359Zm0 0"/></svg>